<?xml version="1.0"?>
<svg xmlns="http://www.w3.org/2000/svg" height="512px" viewBox="0 0 600 600" width="512px"><path d="m450 100h20v20h-20zm0 0" fill="#FFFFFF"/><path d="m410 100h20v20h-20zm0 0" fill="#FFFFFF"/><path d="m370 100h20v20h-20zm0 0" fill="#FFFFFF"/><path d="m130 100h20v20h-20zm0 0" fill="#FFFFFF"/><path d="m320 550h-40c-5.523438 0-10 4.476562-10 10s4.476562 10 10 10h40c5.523438 0 10-4.476562 10-10s-4.476562-10-10-10zm0 0" fill="#FFFFFF"/><path d="m600 320c-.078125-59.601562-35.390625-113.511719-90-137.386719v-132.613281c-.035156-27.601562-22.398438-49.9648438-50-50h-320c-27.601562.0351562-49.964844 22.398438-50 50v110h-80c-5.523438 0-10 4.476562-10 10v300c0 5.523438 4.476562 10 10 10h80v70c.035156 27.601562 22.398438 49.964844 50 50h320c27.601562-.035156 49.964844-22.398438 50-50v-92.613281c54.609375-23.875 89.921875-77.785157 90-137.386719zm-460-300h320c16.566406 0 30 13.433594 30 30v10h-380v-10c0-16.566406 13.433594-30 30-30zm-120 160h160v280h-160zm440 400h-320c-16.566406 0-30-13.433594-30-30v-10h380v10c0 16.566406-13.433594 30-30 30zm30-60h-380v-40h80c5.523438 0 10-4.476562 10-10v-300c0-5.523438-4.476562-10-10-10h-80v-80h380v95.582031c-61.132812-17.160156-126.441406 6.027344-163.066406 57.898438-36.621094 51.867187-36.621094 121.171875 0 173.039062 36.625 51.871094 101.933594 75.058594 163.066406 57.898438zm-40-70c-71.796875 0-130-58.203125-130-130s58.203125-130 130-130 130 58.203125 130 130c-.082031 71.761719-58.238281 129.917969-130 130zm0 0" fill="#FFFFFF"/><path d="m514.46875 311-120-60c-3.105469-1.550781-6.796875-1.382812-9.75.453125s-4.738281 5.070313-4.71875 8.546875v120c-.019531 3.476562 1.765625 6.710938 4.71875 8.546875s6.644531 2.003906 9.75.453125l120-60c3.398438-1.691406 5.539062-5.15625 5.539062-8.953125 0-3.789063-2.140624-7.253906-5.539062-8.949219zm-114.46875 52.820312v-87.640624l87.640625 43.820312zm0 0" fill="#FFFFFF"/><path d="m40 200h20v20h-20zm0 0" fill="#FFFFFF"/><path d="m70 200h90v20h-90zm0 0" fill="#FFFFFF"/><path d="m40 240h20v20h-20zm0 0" fill="#FFFFFF"/><path d="m70 240h90v20h-90zm0 0" fill="#FFFFFF"/><path d="m40 280h20v20h-20zm0 0" fill="#FFFFFF"/><path d="m70 280h90v20h-90zm0 0" fill="#FFFFFF"/><path d="m40 340h20v20h-20zm0 0" fill="#FFFFFF"/><path d="m70 340h90v20h-90zm0 0" fill="#FFFFFF"/><path d="m40 380h20v20h-20zm0 0" fill="#FFFFFF"/><path d="m70 380h90v20h-90zm0 0" fill="#FFFFFF"/><path d="m40 420h20v20h-20zm0 0" fill="#FFFFFF"/><path d="m70 420h90v20h-90zm0 0" fill="#FFFFFF"/><path d="m60 310h80v20h-80zm0 0" fill="#FFFFFF"/></svg>
