<?xml version="1.0" encoding="iso-8859-1"?>
<!-- Generator: Adobe Illustrator 19.0.0, SVG Export Plug-In . SVG Version: 6.00 Build 0)  -->
<svg xmlns="http://www.w3.org/2000/svg" xmlns:xlink="http://www.w3.org/1999/xlink" version="1.1" id="Capa_1" x="0px" y="0px" viewBox="0 0 375.467 375.467" style="enable-background:new 0 0 375.467 375.467;" xml:space="preserve" width="512px" height="512px">
<g>
	<g>
		<path d="M95.573,3.413C42.873,3.413,0,46.286,0,98.987c0,52.7,42.873,95.573,95.573,95.573c52.7,0,95.573-42.873,95.573-95.573    C191.147,46.286,148.273,3.413,95.573,3.413z M95.573,180.907c-45.174,0-81.92-36.75-81.92-81.92s36.746-81.92,81.92-81.92    s81.92,36.75,81.92,81.92S140.747,180.907,95.573,180.907z" fill="#FFFFFF"/>
	</g>
</g>
<g>
	<g>
		<path d="M143.36,78.507h-27.307V51.2c0-11.293-9.187-20.48-20.48-20.48c-11.293,0-20.48,9.187-20.48,20.48v27.307H47.787    c-11.293,0-20.48,9.187-20.48,20.48c0,11.293,9.187,20.48,20.48,20.48h27.307v27.307c0,11.293,9.187,20.48,20.48,20.48    c11.293,0,20.48-9.187,20.48-20.48v-27.307h27.307c11.293,0,20.48-9.187,20.48-20.48C163.84,87.694,154.653,78.507,143.36,78.507z     M143.36,105.813h-34.133c-3.773,0-6.827,3.057-6.827,6.827v34.133c0,3.763-3.06,6.827-6.827,6.827    c-3.767,0-6.827-3.063-6.827-6.827V112.64c0-3.77-3.053-6.827-6.827-6.827H47.787c-3.767,0-6.827-3.063-6.827-6.827    c0-3.763,3.06-6.827,6.827-6.827H81.92c3.773,0,6.827-3.057,6.827-6.827V51.2c0-3.763,3.06-6.827,6.827-6.827    c3.767,0,6.827,3.063,6.827,6.827v34.133c0,3.77,3.053,6.827,6.827,6.827h34.133c3.767,0,6.827,3.063,6.827,6.827    C150.187,102.75,147.127,105.813,143.36,105.813z" fill="#FFFFFF"/>
	</g>
</g>
<g>
	<g>
		<path d="M68.267,303.787c-30.626,0-54.613,14.993-54.613,34.133c0,19.14,23.987,34.133,54.613,34.133    c30.626,0,54.613-14.993,54.613-34.133C122.88,318.78,98.893,303.787,68.267,303.787z M68.267,358.4    c-24.141,0-40.96-10.793-40.96-20.48c0-9.687,16.819-20.48,40.96-20.48s40.96,10.793,40.96,20.48    C109.227,347.607,92.407,358.4,68.267,358.4z" fill="#FFFFFF"/>
	</g>
</g>
<g>
	<g>
		<path d="M372.859,39.006c-1.654-1.297-3.806-1.766-5.833-1.266L182.712,82.574c-3.666,0.889-5.912,4.584-5.019,8.247    c0.893,3.659,4.586,5.922,8.247,5.019L361.813,53.06v216.593c0,3.77,3.053,6.827,6.827,6.827s6.827-3.057,6.827-6.827V44.373    C375.467,42.279,374.508,40.299,372.859,39.006z" fill="#FFFFFF"/>
	</g>
</g>
<g>
	<g>
		<path d="M116.053,180.907c-3.773,0-6.827,3.057-6.827,6.827V337.92c0,3.77,3.053,6.827,6.827,6.827s6.827-3.057,6.827-6.827    V187.733C122.88,183.963,119.827,180.907,116.053,180.907z" fill="#FFFFFF"/>
	</g>
</g>
<g>
	<g>
		<path d="M320.853,235.52c-30.626,0-54.613,14.993-54.613,34.133s23.987,34.133,54.613,34.133s54.613-14.993,54.613-34.133    S351.479,235.52,320.853,235.52z M320.853,290.133c-24.141,0-40.96-10.793-40.96-20.48c0-9.687,16.819-20.48,40.96-20.48    s40.96,10.793,40.96,20.48C361.813,279.34,344.994,290.133,320.853,290.133z" fill="#FFFFFF"/>
	</g>
</g>
<g>
	<g>
		<polygon points="176.461,125.053 179.686,138.32 361.813,94.02 361.813,127.753 115.234,187.733 109.227,187.733 109.227,203.247     375.467,138.487 375.467,76.646   " fill="#FFFFFF"/>
	</g>
</g>
<g>
</g>
<g>
</g>
<g>
</g>
<g>
</g>
<g>
</g>
<g>
</g>
<g>
</g>
<g>
</g>
<g>
</g>
<g>
</g>
<g>
</g>
<g>
</g>
<g>
</g>
<g>
</g>
<g>
</g>
</svg>
