<?xml version="1.0"?>
<svg xmlns="http://www.w3.org/2000/svg" height="512px" viewBox="0 -19 511.9999 511" width="512px"><path d="m511.410156 116.257812c-1.179687-4.40625-4.003906-8.085937-7.949218-10.363281l-178.59375-103.113281c-8.152344-4.703125-18.609376-1.898438-23.3125 6.246094l-43.207032 74.835937h-36.265625c-4.140625 0-7.5 3.359375-7.5 7.5 0 4.144531 3.359375 7.5 7.5 7.5h118.992188c1.136719 0 2.0625.925781 2.0625 2.066407v225.351562c0 1.140625-.925781 2.0625-2.0625 2.0625h-206.222657c-1.136718 0-2.0625-.925781-2.0625-2.0625v-225.351562c0-1.140626.925782-2.066407 2.0625-2.066407h53.054688c4.140625 0 7.5-3.355469 7.5-7.5 0-4.140625-3.359375-7.5-7.5-7.5h-53.054688c-9.410156 0-17.0625 7.65625-17.0625 17.066407v82.5l-109.261718 63.078124c-8.148438 4.707032-10.949219 15.164063-6.246094 23.3125l112.675781 195.160157c3.160157 5.46875 8.90625 8.53125 14.808594 8.53125 2.894531 0 5.824219-.738281 8.503906-2.285157l75.132813-43.378906c3.585937-2.070312 4.816406-6.65625 2.746094-10.242187-2.074219-3.589844-6.660157-4.816407-10.246094-2.746094l-75.132813 43.378906c-.984375.570313-2.25.230469-2.820312-.757812l-112.675781-195.160157c-.570313-.988281-.230469-2.253906.753906-2.820312l101.761718-58.75v15.3125l-78.9375 45.574219c-3.589843 2.070312-4.816406 6.65625-2.746093 10.242187l70.777343 122.59375c.996094 1.722656 2.632813 2.980469 4.554688 3.492188.636719.171875 1.289062.257812 1.9375.257812 1.308594 0 2.601562-.339844 3.75-1.003906l92.246094-53.257812c.320312-.183594.609375-.394532.890625-.613282h94.683593l5.171876 8.957032c.570312.984374.230468 2.25-.753907 2.820312l-72.820312 42.042969c-3.585938 2.070312-4.816407 6.65625-2.746094 10.246093 1.390625 2.402344 3.910156 3.75 6.503906 3.75 1.273438 0 2.5625-.324218 3.742188-1.007812l72.820312-42.039062c8.148438-4.707032 10.949219-15.164063 6.246094-23.3125l-.84375-1.460938h18.808594c9.410156 0 17.066406-7.652344 17.066406-17.0625v-4.664062l15.578125 8.996093c2.628906 1.515625 5.546875 2.292969 8.503906 2.292969 1.484375 0 2.976563-.195312 4.445313-.589844 4.402343-1.179687 8.082031-4.003906 10.359375-7.949218l55.164062-95.546876c1.1875-2.054687 1.332032-4.546874.394532-6.722656-.9375-2.175781-2.851563-3.777344-5.15625-4.324218l-.105469-.027344c-3.957031-1.019532-8.019531 1.316406-9.105469 5.273437v.007813l-54.179688 93.839844c-.570312.984374-1.832031 1.324218-2.820312.753906l-23.078125-13.324219v-68.894531l36.71875 21.199218c1.183594.683594 2.472656 1.007813 3.746094 1.007813 2.589843 0 5.113281-1.347656 6.5-3.75l70.777343-122.59375c.996094-1.722656 1.265626-3.769531.75-5.691406-.515624-1.921875-1.769531-3.558594-3.492187-4.554688l-146.214844-84.414062c-3.585937-2.070313-8.171875-.84375-10.242187 2.746093l-25.699219 44.511719h-15.3125l38.875-67.332031c.570313-.988281 1.832031-1.328125 2.820313-.757812l178.59375 103.113281c.613281.351562.859374.875.960937 1.253906.101563.375.148437.953125-.207031 1.566406l-40.304688 69.8125c-2.070312 3.585938-.84375 8.171875 2.742188 10.242188 1.183594.683593 2.472656 1.007812 3.746094 1.007812 2.589843 0 5.113281-1.347656 6.5-3.75l40.304687-69.8125c2.28125-3.949219 2.886719-8.546875 1.707031-12.949219zm-395.289062 264.21875-63.277344-109.601562 64.945312-37.496094v92.902344c0 9.410156 7.65625 17.0625 17.0625 17.0625h45.585938zm209.800781-327.128906 133.222656 76.914063-63.277343 109.601562-37.726563-21.78125v-117.152343c0-9.410157-7.65625-17.066407-17.066406-17.066407h-32.769531zm0 0" fill="#FFFFFF"/><path d="m146.046875 119.625v141.554688c0 4.144531 3.359375 7.5 7.5 7.5h168.832031c4.140625 0 7.5-3.355469 7.5-7.5v-141.554688c0-4.144531-3.359375-7.5-7.5-7.5h-168.832031c-4.140625 0-7.5 3.355469-7.5 7.5zm15 7.5h153.832031v126.554688h-153.832031zm0 0" fill="#FFFFFF"/><path d="m118.207031 25.554688h.074219c4.109375 0 7.457031-3.308594 7.5-7.425782l.027344-3.066406c.042968-4.144531-3.28125-7.535156-7.421875-7.574219-.027344 0-.050781 0-.078125 0-4.105469 0-7.457032 3.308594-7.496094 7.425781l-.03125 3.066407c-.042969 4.144531 3.28125 7.535156 7.425781 7.574219zm0 0" fill="#FFFFFF"/><path d="m117.945312 59.023438h.078126c4.105468 0 7.457031-3.308594 7.496093-7.425782l.03125-3.066406c.039063-4.144531-3.285156-7.535156-7.425781-7.574219-4.121094.003907-7.53125 3.28125-7.574219 7.425781l-.03125 3.066407c-.039062 4.144531 3.285157 7.535156 7.425781 7.574219zm0 0" fill="#FFFFFF"/><path d="m133.292969 40.871094 3.070312.027344h.070313c4.109375 0 7.460937-3.308594 7.5-7.425782.039062-4.144531-3.285156-7.53125-7.429688-7.574218l-3.066406-.027344c-.027344 0-.050781 0-.074219 0-4.109375 0-7.457031 3.3125-7.496093 7.429687-.039063 4.140625 3.285156 7.53125 7.425781 7.570313zm0 0" fill="#FFFFFF"/><path d="m99.820312 40.609375 3.070313.03125h.074219c4.109375 0 7.460937-3.308594 7.5-7.425781.039062-4.144532-3.285156-7.53125-7.425782-7.574219l-3.066406-.03125c-.027344 0-.050781 0-.078125 0-4.105469 0-7.457031 3.3125-7.496093 7.425781-.042969 4.144532 3.28125 7.535156 7.421874 7.574219zm0 0" fill="#FFFFFF"/><path d="m76.542969 85.5h.074219c4.109374 0 7.460937-3.308594 7.5-7.425781l.03125-3.066407c.039062-4.144531-3.285157-7.535156-7.425782-7.574218-.027344 0-.050781 0-.078125 0-4.105469 0-7.457031 3.308594-7.496093 7.425781l-.03125 3.066406c-.039063 4.140625 3.285156 7.53125 7.425781 7.574219zm0 0" fill="#FFFFFF"/><path d="m76.285156 118.96875h.074219c4.109375 0 7.457031-3.308594 7.5-7.425781l.027344-3.066407c.042969-4.144531-3.285157-7.535156-7.425781-7.574218-.023438 0-.050782 0-.074219 0-4.109375 0-7.457031 3.3125-7.496094 7.425781l-.03125 3.070313c-.042969 4.140624 3.285156 7.53125 7.425781 7.570312zm0 0" fill="#FFFFFF"/><path d="m91.628906 100.816406 3.066406.027344h.078126c4.105468 0 7.457031-3.308594 7.496093-7.425781.042969-4.140625-3.28125-7.53125-7.421875-7.574219l-3.070312-.027344c-.023438 0-.050782 0-.074219 0-4.109375 0-7.460937 3.308594-7.5 7.425782-.039063 4.140624 3.285156 7.53125 7.425781 7.574218zm0 0" fill="#FFFFFF"/><path d="m58.164062 100.558594 3.066407.027344h.074219c4.105468 0 7.457031-3.3125 7.496093-7.429688.042969-4.140625-3.285156-7.53125-7.425781-7.570312l-3.070312-.027344c-.023438 0-.046876 0-.070313 0-4.109375 0-7.460937 3.308594-7.5 7.425781-.039063 4.140625 3.285156 7.53125 7.429687 7.574219zm0 0" fill="#FFFFFF"/><path d="m413.574219 363.4375c-.023438 0-.050781 0-.074219 0-4.109375 0-7.460938 3.3125-7.5 7.425781l-.03125 3.070313c-.039062 4.140625 3.285156 7.53125 7.425781 7.574218h.078125c4.105469 0 7.457032-3.3125 7.496094-7.425781l.03125-3.070312c.039062-4.140625-3.285156-7.53125-7.425781-7.574219zm0 0" fill="#FFFFFF"/><path d="m413.3125 396.90625c-.023438 0-.046875 0-.074219 0-4.105469 0-7.457031 3.308594-7.496093 7.425781l-.03125 3.066407c-.042969 4.144531 3.285156 7.535156 7.425781 7.574218h.074219c4.105468 0 7.457031-3.308594 7.5-7.425781l.027343-3.066406c.042969-4.140625-3.28125-7.53125-7.425781-7.574219zm0 0" fill="#FFFFFF"/><path d="m431.699219 381.851562-3.070313-.03125c-.023437 0-.046875 0-.074218 0-4.109376 0-7.457032 3.3125-7.5 7.425782-.039063 4.144531 3.285156 7.535156 7.425781 7.574218l3.070312.03125h.074219c4.105469 0 7.457031-3.308593 7.5-7.425781.039062-4.144531-3.285156-7.535156-7.425781-7.574219zm0 0" fill="#FFFFFF"/><path d="m398.226562 381.589844-3.066406-.027344c-.027344 0-.050781 0-.074218 0-4.109376 0-7.460938 3.3125-7.5 7.429688-.039063 4.140624 3.289062 7.53125 7.429687 7.570312l3.066406.027344h.074219c4.109375 0 7.460938-3.308594 7.496094-7.425782.039062-4.144531-3.285156-7.53125-7.425782-7.574218zm0 0" fill="#FFFFFF"/></svg>
