<?xml version="1.0" encoding="utf-8"?>
<!-- Generator: Adobe Illustrator 23.1.1, SVG Export Plug-In . SVG Version: 6.00 Build 0)  -->
<svg version="1.1" id="Capa_1" xmlns="http://www.w3.org/2000/svg" xmlns:xlink="http://www.w3.org/1999/xlink" x="0px" y="0px"
	 viewBox="0 0 512 512" style="enable-background:new 0 0 512 512;" xml:space="preserve">
<style type="text/css">
	.st0{fill:#F9F7F7;}
	.st1{fill:#F9F9F9;}
	.st2{fill:#FCFCFC;}
</style>
<g>
	<g>
		<path class="st0" d="M338.4,89H84c-46.3,0-84,37.7-84,84v254.4c0,46.3,37.7,84,84,84h254.4c46.3,0,84-37.7,84-84V173
			C422.4,126.7,384.7,89,338.4,89z M392.4,427.4c0,29.8-24.2,54-54,54H84c-29.8,0-54-24.2-54-54V173c0-29.8,24.2-54,54-54h254.4
			c29.8,0,54,24.2,54,54V427.4z"/>
	</g>
</g>
<g>
	<g>
		<path class="st1" d="M173,296.6c12.1-5.7,19.3-21.5,19.3-41c0-32.8-22.2-44.2-52.1-44.2c-41.7,0-54.1,25.4-54.1,43
			c0,10.4,2.2,13.8,16.5,13.8c11.9,0,15.3-4.9,15.3-12.4c0-9.9,5.9-16.5,22-16.5c13.3,0,21.7,5.4,21.7,21.7
			c0,21.2-10.4,24.2-22.7,24.2c-7.2,0-9.6,6.4-9.6,12.6c0,6.4,2.5,12.6,9.6,12.6c15.8,0,27.2,5.2,27.2,23.5v4.7
			c0,18.8-7.9,26.7-26.4,26.7c-15.8,0-25.7-6.9-25.7-18c0-7.9-3.5-11.4-16.5-11.4c-11.1,0-15.3,2.7-15.3,12.6c0,20,16.3,45,56.8,45
			c32.6,0,59.3-15.1,59.3-54.8v-4.7C198.2,313.4,187.6,302.3,173,296.6z"/>
	</g>
</g>
<g>
	<g>
		<path class="st1" d="M278.5,211.4h-43.7c-8.4,0-14.1,4.7-14.1,9.9V382c0,5.2,5.7,9.9,14.1,9.9h43.7c32.6,0,58-15.3,58-56.6v-67.4
			C336.5,226.7,311.1,211.4,278.5,211.4z M304.4,335.4c0,19.3-9.6,28.4-25.9,28.4h-25.7V239.5h25.7c16.3,0,25.9,9.1,25.9,28.4V335.4
			z"/>
	</g>
</g>
<g>
	<g>
		<path class="st2" d="M362.2,0.6H156.3c-8.3,0-15,6.7-15,15s6.7,15,15,15h205.9c66.1,0,119.8,53.7,119.8,119.8v205.9
			c0,8.3,6.7,15,15,15c8.3,0,15-6.7,15-15V150.4C512,67.8,444.8,0.6,362.2,0.6z"/>
	</g>
</g>
</svg>
