<svg xmlns="http://www.w3.org/2000/svg" xmlns:xlink="http://www.w3.org/1999/xlink" viewBox="0 0 200 262.91"><defs><style>.cls-1,.cls-10,.cls-11,.cls-15,.cls-20{fill:#fff;}.cls-2{fill:none;}.cls-3{fill:#f9ede4;}.cls-4{fill:#efd9ca;}.cls-5{isolation:isolate;}.cls-6{fill:url(#Unnamed_Pattern_3);}.cls-7{fill:#231f20;}.cls-8{fill:#f9df1c;}.cls-9{fill:#e20505;}.cls-10{opacity:0.71;}.cls-11{opacity:0.72;}.cls-12{fill:#7eb26b;}.cls-13{clip-path:url(#clip-path);}.cls-14{fill:url(#radial-gradient);}.cls-15{mix-blend-mode:overlay;}.cls-16{clip-path:url(#clip-path-2);}.cls-17{fill:url(#radial-gradient-2);}.cls-18{fill:#42131d;}.cls-19{fill:#a83646;}.cls-20,.cls-22{stroke:#000;}.cls-20{stroke-miterlimit:10;stroke-width:1.81px;}.cls-21{fill:#dd263d;}.cls-22{fill:#ea9dba;stroke-linecap:round;stroke-linejoin:round;stroke-width:2.86px;}</style><pattern id="Unnamed_Pattern_3" data-name="Unnamed Pattern 3" width="22.4" height="22.4" patternUnits="userSpaceOnUse" viewBox="0 0 22.4 22.4"><rect class="cls-2" width="22.4" height="22.4"/><rect class="cls-3" width="22.4" height="22.4"/><circle class="cls-4" cx="-0.1" cy="0.02" r="2.88"/><circle class="cls-4" cx="22.4" r="2.88"/><circle class="cls-4" cy="22.4" r="2.88"/><circle class="cls-4" cx="22.4" cy="22.4" r="2.88"/><circle class="cls-4" cx="11.2" cy="11.2" r="2.88"/></pattern><clipPath id="clip-path" transform="translate(-357.23 -471.08)"><path class="cls-1" d="M457.84,587.18c0,1.58-4.53,5.19-10.71,4.37s-9.57-5.28-10.56-6.43c2-1.74,6.27-5.53,11.3-5.12S457.92,584.13,457.84,587.18Z"/></clipPath><radialGradient id="radial-gradient" cx="410.4" cy="532.46" r="25.04" gradientTransform="translate(-0.65 -1.18) scale(0.22 0.22)" gradientUnits="userSpaceOnUse"><stop offset="0" stop-color="#94c165"/><stop offset="0.28" stop-color="#92be64"/><stop offset="0.47" stop-color="#8bb55f"/><stop offset="0.63" stop-color="#80a657"/><stop offset="0.77" stop-color="#6f904c"/><stop offset="0.91" stop-color="#5a753f"/><stop offset="1" stop-color="#495e33"/></radialGradient><clipPath id="clip-path-2" transform="translate(-357.23 -471.08)"><path class="cls-1" d="M477,587.15c.05,1.58,4.55,5.18,10.73,4.34s9.55-5.31,10.53-6.46c-2-1.73-6.28-5.51-11.31-5.08S476.9,584.1,477,587.15Z"/></clipPath><radialGradient id="radial-gradient-2" cx="301.73" cy="532.06" r="25.04" gradientTransform="matrix(-0.16, -0.15, -0.15, 0.16, 615.83, 544.52)" xlink:href="#radial-gradient"/></defs><title>lywi</title><g class="cls-5"><g id="girl"><path class="cls-6" d="M548,734c2.26-8.78,9.45-40.28-1-49.82-8.6-7.88-43.77-9.62-52.33-21.8-5.92-8.43-4.29-33.85-3.87-35.39-7.51,1.41-46.74,1-46.74,1s3.41,19.65-1.43,34c-4.61,13.69-47.9,10.22-56.66,24.46-6.87,11.16-.62,39.25,1.43,47.46Z" transform="translate(-357.23 -471.08)"/><path class="cls-7" d="M383.17,718.26c.54,3.07,1.16,6.12,1.89,9.15.35,1.51.74,3,1.15,4.52.18.69.38,1.37.57,2.06H388c-.48-2.3-.92-4.61-1.34-6.92-.27-1.52-.52-3-.76-4.56s-.46-3-.66-4.57c-.39-3.05-.72-6.1-.92-9.16a79.54,79.54,0,0,1-.13-9.13c.07-1.51.2-3,.41-4.49a28.15,28.15,0,0,1,.95-4.32,16.77,16.77,0,0,1,.75-2c.07-.16.14-.33.22-.48l.24-.47c.09-.16.18-.3.26-.45l.07-.12,0,0h0l0,0,.15-.25c.18-.26.38-.54.6-.81s.44-.52.69-.77a14.21,14.21,0,0,1,1.59-1.4,23,23,0,0,1,3.74-2.27,41,41,0,0,1,4.14-1.73,88.58,88.58,0,0,1,8.78-2.55c6-1.46,12.06-2.58,18.12-4.08a70.5,70.5,0,0,0,9-2.79,29,29,0,0,0,4.34-2.13,14.26,14.26,0,0,0,3.8-3.25,9.14,9.14,0,0,0,1.31-2.27c.09-.21.16-.41.23-.63l.16-.55c.11-.37.23-.74.33-1.13.43-1.56.74-3.09,1-4.65a65.64,65.64,0,0,0,.84-9.37,91.27,91.27,0,0,0-.28-9.36c-.12-1.55-.27-3.1-.47-4.65-.17-1.35-.37-2.69-.61-4q11.4.08,22.8,0c3.91,0,7.81-.11,11.71-.23l2.93-.11c1,0,1.95-.08,2.92-.14s2-.12,2.94-.2c.74-.07,1.49-.14,2.24-.25l-.06.49c-.05.39-.09.78-.12,1.16-.08.77-.14,1.54-.19,2.31-.11,1.54-.17,3.08-.22,4.63-.09,3.08-.07,6.18.1,9.27a66.31,66.31,0,0,0,1.07,9.27A32.78,32.78,0,0,0,492,659.3a18.86,18.86,0,0,0,1,2.24l.29.54c.11.18.21.37.33.54l.17.27,0,.06,0,.06,0,0,.09.12.34.46.41.5c.14.17.28.31.42.47s.28.29.43.44.28.29.44.43a20.93,20.93,0,0,0,1.87,1.54c.65.48,1.32.92,2,1.34s1.37.8,2.08,1.16c1.4.74,2.83,1.38,4.27,2s2.91,1.13,4.38,1.63c2.95,1,5.92,1.88,8.89,2.71s5.94,1.6,8.9,2.39,5.9,1.61,8.77,2.56c1.44.47,2.85,1,4.21,1.57a21.53,21.53,0,0,1,3.8,2c.15.1.28.2.42.31l.38.32.1.08.05,0h0l0,0,.21.2c.12.12.22.21.34.35a11.92,11.92,0,0,1,1.25,1.63,17.7,17.7,0,0,1,1.75,3.88,27.87,27.87,0,0,1,1,4.29c.23,1.46.38,3,.47,4.45a76.12,76.12,0,0,1-.06,9.06c-.18,3-.5,6.06-.9,9.08-.2,1.51-.42,3-.67,4.53s-.5,3-.78,4.52c-.42,2.28-.89,4.56-1.39,6.83h1.22c.63-2.15,1.2-4.32,1.73-6.5.36-1.5.7-3,1-4.52s.6-3,.86-4.55c.53-3,1-6.12,1.23-9.22a73,73,0,0,0,.26-9.36,37.65,37.65,0,0,0-1.48-9.4,19.66,19.66,0,0,0-2-4.5,14.19,14.19,0,0,0-1.54-2c-.14-.16-.32-.33-.46-.48l-.21-.2,0,0,0,0-.07-.06-.12-.11-.5-.41-.51-.38a23.87,23.87,0,0,0-4.3-2.3c-1.46-.62-2.94-1.16-4.43-1.64-3-1-6-1.78-8.92-2.57s-6-1.53-8.91-2.32-5.89-1.62-8.78-2.57a63.65,63.65,0,0,1-8.38-3.35c-.67-.33-1.32-.69-2-1.06s-1.26-.77-1.86-1.19a18.75,18.75,0,0,1-1.7-1.36c-.14-.12-.26-.25-.39-.37l-.38-.38c-.12-.13-.25-.26-.36-.39l-.33-.38-.35-.45-.09-.11v0h0l0,0-.14-.21c-.1-.14-.19-.3-.28-.45l-.27-.46a17.62,17.62,0,0,1-.89-2,30.55,30.55,0,0,1-1.25-4.28,69,69,0,0,1-1.29-9c-.25-3-.36-6.09-.39-9.15,0-1.53,0-3,0-4.58,0-.76.05-1.53.09-2.29,0-.38,0-.76.07-1.14l.05-.56,0-.27c0-.09,0-.17,0-.23h0l.15-.75-.73.13c-.92.17-1.89.26-2.85.35s-1.93.14-2.9.2l-2.92.14-2.91.1c-3.89.12-7.79.19-11.69.23q-11.68.12-23.38,0h0l-.58,0,.08.6c.41,3,.65,6.12.79,9.19.07,1.53.09,3.07.09,4.61s0,3.06-.12,4.59-.22,3.06-.39,4.58-.4,3-.69,4.51c-.13.75-.3,1.49-.47,2.23l-.28,1.1c-.1.36-.21.72-.31,1.08s-.22.72-.34,1.09l-.18.55a4.37,4.37,0,0,1-.18.46,6.93,6.93,0,0,1-1,1.72,12.29,12.29,0,0,1-3.27,2.68,26.47,26.47,0,0,1-4,1.88A70.52,70.52,0,0,1,424.4,671c-6,1.41-12.08,2.47-18.16,3.9a87,87,0,0,0-9.06,2.6,41.4,41.4,0,0,0-4.43,1.84,24.65,24.65,0,0,0-4.19,2.52,17.64,17.64,0,0,0-1.9,1.66c-.3.3-.58.63-.86,1a12.63,12.63,0,0,0-.78,1.06l-.16.24-.05.08,0,.07-.08.14c-.1.19-.22.37-.31.56l-.29.56c-.1.19-.18.38-.26.57A19.3,19.3,0,0,0,383,690a29.35,29.35,0,0,0-1,4.75,45.09,45.09,0,0,0-.38,4.76,75.94,75.94,0,0,0,.33,9.43C382.2,712.09,382.63,715.19,383.17,718.26Z" transform="translate(-357.23 -471.08)"/><path class="cls-8" d="M414.28,647.82s-4.13,16.25-19.28,10.47c6.06,10.19,18.13,15.11,26.44,11A113.68,113.68,0,0,0,414.28,647.82Z" transform="translate(-357.23 -471.08)"/><path class="cls-7" d="M414.33,651.76c-.2.37-.4.75-.63,1.11s-.61,1-.94,1.4a16.83,16.83,0,0,1-1.07,1.33,15.21,15.21,0,0,1-1.19,1.22c-.21.19-.42.38-.64.56l-.68.53-.72.49c-.24.15-.49.29-.74.43l-.19.11-.19.09-.39.19-.39.18-.4.15-.41.15-.41.13c-.27.07-.54.17-.83.22l-.83.16-.85.1-.42,0h-1.26l-.84-.06a1.92,1.92,0,0,1-.41,0l-.41-.06-.41-.06a2.57,2.57,0,0,1-.4-.08l-.81-.19a5.69,5.69,0,0,1-.78-.22l-.78-.24-1.51-.59.67-.8h0l.52.81c.17.27.36.52.54.79s.38.51.57.76.39.5.6.75l.3.37.32.35c.21.24.42.48.65.7.43.47.9.9,1.37,1.33.24.21.47.43.71.63l.75.6.76.57.78.54.8.51.82.47c.28.16.56.3.84.45l.85.41c.29.14.58.25.87.38l.89.34.89.29c.3.1.6.18.91.26l.91.22.92.17.93.13.93.07a16.49,16.49,0,0,0,1.86,0c.31,0,.61,0,.92-.08l.46-.06.45-.09.45-.09.45-.11c.29-.07.58-.17.87-.26s.29-.1.43-.15l.43-.17.83-.38h0l-.48,1-.38-1.36c-.13-.45-.25-.9-.38-1.35l-.41-1.35c-.13-.45-.27-.9-.42-1.34l-.42-1.34-.45-1.33c-.15-.45-.31-.89-.46-1.33l-.48-1.32-.49-1.32c-.16-.44-.34-.87-.5-1.31s-.35-.87-.53-1.3-.35-.86-.53-1.29C414.87,653,414.6,652.36,414.33,651.76Zm1.42-4.66c.21.48.39.92.57,1.37s.36.9.53,1.35c.34.9.67,1.8,1,2.71.16.45.31.9.46,1.36l.45,1.36c.14.46.29.91.42,1.37l.42,1.37.39,1.38c.13.46.26.92.38,1.38l.37,1.38.35,1.39c.11.47.23.93.33,1.39l.32,1.4c.11.46.2.93.31,1.39l.29,1.4.15.73-.63.28h0c-.32.14-.63.29-1,.42l-.48.17a4.91,4.91,0,0,1-.5.17c-.33.09-.66.2-1,.27l-.5.12-.51.09-.51.08-.51.05c-.34,0-.69.06-1,.08a17.32,17.32,0,0,1-2,0l-1-.1-1-.16c-.34-.07-.67-.13-1-.21l-1-.25c-.32-.1-.65-.19-1-.3l-.95-.34-.93-.39c-.3-.14-.61-.27-.91-.42s-.61-.29-.9-.45l-.88-.49-.85-.53-.84-.55-.81-.59-.79-.62-.76-.64-.74-.68c-.48-.46-1-.93-1.4-1.42-.23-.24-.45-.5-.67-.75l-.32-.38-.31-.39c-.21-.26-.42-.52-.61-.79s-.4-.54-.57-.82-.38-.55-.55-.83l-.52-.85h0v-1l.67.2c.5.14,1,.3,1.48.43l.74.16a6.63,6.63,0,0,0,.75.15l.75.11a2.31,2.31,0,0,0,.37,0l.38,0,.37,0a2.29,2.29,0,0,0,.37,0h.75l.36,0,.37,0,.37,0,.36-.06.71-.14.7-.2c.23-.07.45-.17.67-.25l.34-.13.32-.16.32-.15.32-.18.3-.18.16-.09.15-.11c.19-.14.39-.26.58-.41l.56-.45.53-.49.5-.52a13.9,13.9,0,0,0,.91-1.12,14.16,14.16,0,0,0,.81-1.21,14.43,14.43,0,0,0,.71-1.28c.22-.44.43-.88.61-1.34s.36-.91.51-1.37c.08-.23.15-.46.21-.7s.13-.47.17-.66l1-5Z" transform="translate(-357.23 -471.08)"/><path class="cls-8" d="M521.53,647.17s5.14,16,19.9,9.24c-5.41,10.55-17.15,16.22-25.7,12.66A113.36,113.36,0,0,1,521.53,647.17Z" transform="translate(-357.23 -471.08)"/><path class="cls-7" d="M523,646.69c0,.19.13.43.21.65s.17.46.26.68c.18.46.38.9.6,1.35s.45.87.7,1.3.51.83.79,1.23a14.38,14.38,0,0,0,.9,1.16c.31.37.65.72,1,1.06.18.16.35.33.54.49l.56.46.59.41.61.38.16.09.16.08.32.16.32.16.34.13.33.14a3.58,3.58,0,0,0,.35.11c.23.06.46.15.69.2l.71.15c.24,0,.49.07.73.1s.24,0,.36,0h.37l.37,0h.37l.75,0a2.46,2.46,0,0,0,.37,0l.37,0,.37,0,.37-.07.74-.16a4.73,4.73,0,0,0,.74-.19l.73-.21,1.45-.53.64-.23.06,1h0l-.47.88c-.15.3-.33.58-.49.87s-.35.56-.52.85-.37.55-.56.83l-.28.41-.3.39c-.2.27-.4.54-.62.79-.41.52-.85,1-1.31,1.51-.23.24-.45.49-.69.72l-.72.69-.75.67-.77.64-.8.6-.82.58-.84.55-.87.51c-.29.17-.59.32-.88.48l-.91.44-.93.4c-.31.13-.63.24-.94.36l-1,.31-1,.27-1,.22-1,.17a20,20,0,0,1-2,.17c-.34,0-.69,0-1,0l-.51,0-.52,0-.51-.06-.51-.08c-.34,0-.68-.14-1-.21a4.67,4.67,0,0,1-.5-.14l-.5-.14-1-.35h0l-.65-.24.11-.74.21-1.42c.07-.47.14-.94.22-1.41l.24-1.41c.07-.47.16-.94.25-1.4l.27-1.41.28-1.4.3-1.4.31-1.4.34-1.39c.11-.47.23-.93.34-1.39s.24-.93.37-1.39.25-.93.38-1.39c.26-.92.53-1.84.82-2.75.14-.46.29-.92.44-1.38s.31-.91.49-1.39l1.64-4.45Zm-1.28,4.23c-.25.67-.5,1.34-.73,2l-.45,1.33c-.14.44-.29.88-.43,1.33s-.28.89-.41,1.34l-.41,1.35-.38,1.35c-.13.45-.25.9-.37,1.35l-.36,1.36-.34,1.37-.33,1.37-.31,1.37c-.11.46-.19.92-.29,1.38l-.29,1.38-.54-1h0c.29.11.56.23.85.32l.44.14a3.19,3.19,0,0,0,.44.13c.29.07.59.16.89.21l.45.08c.15,0,.3,0,.46.06l.45.06.46,0c.31,0,.62,0,.93,0a16.4,16.4,0,0,0,1.85-.11l.93-.13.92-.18.91-.23.89-.27.89-.32.88-.35.86-.4c.28-.14.56-.27.84-.43s.56-.3.83-.46l.81-.5.79-.53.77-.55.74-.59.73-.62.7-.64c.24-.22.45-.45.68-.67.44-.46.88-.93,1.29-1.41.21-.24.4-.49.6-.74l.3-.38.28-.39c.18-.25.37-.51.55-.78s.36-.52.52-.8.33-.54.49-.82l.47-.84h0l.69.73c-.49.23-1,.46-1.47.68l-.76.29c-.25.1-.51.19-.77.27l-.79.23a2.6,2.6,0,0,1-.4.1l-.4.09-.41.09-.41.07-.82.1a3,3,0,0,1-.42,0l-.42,0h-.42a3,3,0,0,1-.42,0l-.85,0-.84-.11c-.28,0-.56-.12-.84-.17l-.41-.1-.41-.13-.41-.13c-.14,0-.27-.1-.4-.15l-.4-.16-.2-.09-.19-.09c-.25-.13-.51-.25-.76-.39l-.74-.44-.71-.48-.67-.52a15.19,15.19,0,0,1-1.26-1.15,16.89,16.89,0,0,1-1.14-1.25c-.36-.43-.7-.88-1-1.34S522,651.33,521.71,650.92Z" transform="translate(-357.23 -471.08)"/><path class="cls-8" d="M391.54,696.24c19.37,13.2,40.93-5.8,48-18.81,8.42-15.49-.78-32.62-1.65-46l-3.44-5.84h0c-3.91-7.5-7.57-17.67-8.84-35.13-3.71-58.67,26.26-49,41.48-49.44,14.36-.39,45.24-9.64,42.07,49-1.41,22.28-8.44,35-12.92,42.7h0c-.22,2-.39,4.24-.5,6.63-.68,13.65-.82,29.73-.61,37.41.33,12.46,21.56,34.36,48.29,19.47,6.34-4.12,9.68-10.56,12.61-17.11-5.46,6.31-15.7,7.81-20.79,3.88,5.47-1.11,11.25-8.9,14.79-15.75-17.32,8-24.4-4.42-26.36-16.14-2.79-23.33,18.44-38.06,9.61-97.35-5.16-34.66-37.55-53.13-66.25-53.62h-.83c-26.35.25-61.05,17.6-66,61.14-5.42,47.89,11.29,57,12.64,89-.27,11.3-3.5,24.48-26.39,19.2,3.55,6.84,7.93,12.59,13.4,13.69-5.24,4-15.32,2.46-20.79-3.84A51.91,51.91,0,0,0,391.54,696.24Z" transform="translate(-357.23 -471.08)"/><path d="M392.12,695.48a28.54,28.54,0,0,0,2.67,1.6,25.5,25.5,0,0,0,2.88,1.28,22.7,22.7,0,0,0,6.14,1.33,24.12,24.12,0,0,0,6.29-.35,29.81,29.81,0,0,0,6.09-1.82,38.78,38.78,0,0,0,5.69-2.94,47.79,47.79,0,0,0,5.21-3.76,53.32,53.32,0,0,0,8.84-9.36,37.44,37.44,0,0,0,3.38-5.45,27.61,27.61,0,0,0,2.15-6,32.08,32.08,0,0,0,.81-6.34,44.85,44.85,0,0,0-.29-6.44,118.8,118.8,0,0,0-2.38-12.82c-.47-2.14-1-4.28-1.35-6.44a53.62,53.62,0,0,1-.83-6.57h0l.06.21L434,625.79l-.05-.1v-.1h0l0,.17a69.87,69.87,0,0,1-3.12-6.89,75.31,75.31,0,0,1-2.36-7.18c-.67-2.43-1.2-4.89-1.67-7.36l-.33-1.86c-.11-.62-.19-1.24-.29-1.86l-.14-.93c-.05-.31-.08-.62-.13-.94l-.24-1.87c-.07-.62-.13-1.24-.2-1.87s-.14-1.25-.18-1.87l-.16-1.88c0-.32,0-.62-.07-1l-.06-.94c-.15-2.49-.22-5-.24-7.53s0-5,.19-7.54.4-5,.79-7.51a55.44,55.44,0,0,1,1.64-7.39,36.31,36.31,0,0,1,1.27-3.58c.23-.59.5-1.16.76-1.74.14-.29.29-.57.43-.85l.21-.43.24-.41c.16-.28.3-.56.47-.83l.51-.81c.36-.53.71-1.06,1.11-1.56a23,23,0,0,1,2.57-2.83,21.39,21.39,0,0,1,6.46-4.07,28.74,28.74,0,0,1,7.39-1.81,54.75,54.75,0,0,1,7.57-.28c2.51.06,5,.23,7.51.31,1.25,0,2.48.06,3.72,0s2.49-.15,3.73-.25c2.49-.21,5-.41,7.52-.47a43.65,43.65,0,0,1,7.57.43,26.37,26.37,0,0,1,7.3,2.18,21.87,21.87,0,0,1,6.2,4.42,22.79,22.79,0,0,1,2.44,2.94,26.54,26.54,0,0,1,2,3.26c.3.55.56,1.13.83,1.7l.38.88.19.43.17.45.33.88.31.9c.22.6.39,1.21.57,1.81a57,57,0,0,1,1.61,7.39c.37,2.49.63,5,.78,7.51s.21,5,.21,7.54-.1,5-.23,7.53a107.39,107.39,0,0,1-2,14.94,88.54,88.54,0,0,1-4.3,14.45c-.93,2.34-2,4.64-3.1,6.89s-2.36,4.44-3.62,6.61l.06-.21h0v.06h0c-.24,2.62-.37,5.24-.45,7.88s-.15,5.28-.21,7.92-.1,5.28-.13,7.92,0,5.28,0,7.92,0,5.28.05,7.91c0,1.32.05,2.64.09,3.95v.48l0,.49c0,.31.05.59.11.9a14.21,14.21,0,0,0,.4,1.83,23.19,23.19,0,0,0,3.38,6.81,31.72,31.72,0,0,0,5.16,5.7,33.44,33.44,0,0,0,6.35,4.33,30.85,30.85,0,0,0,7.2,2.66,30,30,0,0,0,7.62.78,30.44,30.44,0,0,0,3.82-.33,34.57,34.57,0,0,0,3.77-.79,33.47,33.47,0,0,0,3.67-1.2c.61-.22,1.2-.48,1.79-.73s1.18-.53,1.75-.83,1.15-.59,1.72-.9l.11-.05,0,0,0,0s-.11.07,0,0l.2-.14.41-.27.76-.55a25.28,25.28,0,0,0,2.86-2.52,35.78,35.78,0,0,0,4.71-6.1c1.38-2.2,2.61-4.53,3.85-6.86l.63.4h0a17.35,17.35,0,0,1-4.39,3.93,19.56,19.56,0,0,1-5.48,2.38,18,18,0,0,1-6.06.59,14.64,14.64,0,0,1-3.1-.6,11,11,0,0,1-3-1.46h0l-2.8-2.09,3.42-.59a6.59,6.59,0,0,0,1.11-.26,9.25,9.25,0,0,0,1.12-.44c.36-.18.73-.38,1.1-.6s.72-.46,1.07-.71l.52-.39c.17-.14.35-.27.51-.42s.34-.28.51-.42l.49-.45.49-.46.48-.47c.32-.32.63-.64.93-1s.61-.68.9-1,.59-.69.88-1l.84-1.08c.27-.36.55-.73.81-1.1q1.6-2.22,3-4.61h0l.48.5a26.26,26.26,0,0,1-6.81,2.71,16.39,16.39,0,0,1-7.57.07,14.2,14.2,0,0,1-3.63-1.45,15.67,15.67,0,0,1-3.1-2.38,18.83,18.83,0,0,1-2.45-3,24.58,24.58,0,0,1-1.85-3.32,34,34,0,0,1-2.32-7.13l-.18-.91-.08-.46,0-.23,0-.11c0-.23,0-.13,0-.21l-.09-.89c0-.31,0-.63-.07-.95-.08-1.26-.1-2.5-.07-3.74a46.38,46.38,0,0,1,.9-7.37c.49-2.41,1.13-4.76,1.82-7.07,1.4-4.63,3-9.13,4.35-13.68a136.51,136.51,0,0,0,3.51-13.79,128.31,128.31,0,0,0,2.27-28.37c-.11-4.77-.47-9.53-1-14.27-.26-2.37-.59-4.74-.93-7.1l-.29-1.76c-.11-.58-.21-1.17-.34-1.74-.24-1.16-.51-2.32-.83-3.46a56,56,0,0,0-2.3-6.72,56.11,56.11,0,0,0-11.69-17.63,64.51,64.51,0,0,0-10.92-8.94,68.77,68.77,0,0,0-6.11-3.54c-2.08-1.09-4.23-2-6.4-2.93a77.51,77.51,0,0,0-13.47-4q-3.45-.69-6.95-1.07c-1.16-.12-2.32-.23-3.49-.29-.59,0-1.17-.06-1.75-.08l-.88,0h-1.73l-.89,0c-.57,0-1.14,0-1.73.08-1.16.07-2.33.17-3.49.3-2.32.26-4.63.65-6.91,1.14a71.21,71.21,0,0,0-13.35,4.31c-2.15,1-4.25,2-6.29,3.14a67.06,67.06,0,0,0-5.94,3.79A62.4,62.4,0,0,0,416.59,524a61.07,61.07,0,0,0-8.07,11.62,64.87,64.87,0,0,0-3,6.43c-.88,2.2-1.65,4.45-2.31,6.73a78.18,78.18,0,0,0-2.62,14c-.5,4.75-.81,9.51-.84,14.28a109.23,109.23,0,0,0,.77,14.24,101.76,101.76,0,0,0,2.74,14c1.22,4.59,2.76,9.09,4.31,13.61q1.17,3.39,2.27,6.84c.72,2.3,1.4,4.62,2,7A85.23,85.23,0,0,1,414.17,647c.05.61.09,1.21.13,1.82l0,.91,0,.46v.55c0,1.23-.12,2.46-.25,3.69a28.07,28.07,0,0,1-1.72,7.34,17.88,17.88,0,0,1-1.81,3.43,14.63,14.63,0,0,1-2.65,2.91,14.18,14.18,0,0,1-3.34,2,16.48,16.48,0,0,1-3.67,1.1,25,25,0,0,1-7.42.11,41.28,41.28,0,0,1-7.09-1.55l.34-.45h0c.84,1.42,1.72,2.8,2.66,4.13a36,36,0,0,0,3.06,3.75l.84.85.44.4.44.39.46.37c.15.13.3.24.46.36s.63.45.95.65a9.75,9.75,0,0,0,1,.57,10.13,10.13,0,0,0,1,.46,4.56,4.56,0,0,0,.52.18l.52.16a7.8,7.8,0,0,0,1,.21l3,.47-2.43,2h0a12.28,12.28,0,0,1-2.93,1.35,14.35,14.35,0,0,1-3.06.58,17.14,17.14,0,0,1-3,0,20.66,20.66,0,0,1-2.95-.51,21.29,21.29,0,0,1-2.83-.93,19.76,19.76,0,0,1-2.64-1.33,18.19,18.19,0,0,1-4.51-3.78l.75-.48.54,1.19.58,1.17.63,1.15.67,1.12.7,1.1.75,1.08.78,1,.81,1,.84,1,.87,1,.88,1,.9.94.91.92.93.92.94.89Zm-1.18,1.5-1-1-.94-1-.92-1-.89-1-.85-1L385.5,691l-.8-1.08-.76-1.1-.74-1.11-.71-1.13-.69-1.15-.67-1.15-.65-1.17-.62-1.17-.6-1.19-.58-1.2-1.36-2.84,2.11,2.36a15.86,15.86,0,0,0,2,1.9,16.85,16.85,0,0,0,4.89,2.63,16.47,16.47,0,0,0,2.68.69,14.74,14.74,0,0,0,2.73.24,13.5,13.5,0,0,0,2.7-.25,10.58,10.58,0,0,0,2.5-.8,8.19,8.19,0,0,0,2.1-1.37h0l.55,2.44a12.13,12.13,0,0,1-1.33-.43c-.21-.08-.43-.17-.64-.27s-.41-.19-.61-.3a13.27,13.27,0,0,1-1.17-.68,12.49,12.49,0,0,1-1.08-.79c-.35-.28-.68-.56-1-.86l-.47-.45c-.16-.15-.31-.31-.46-.47s-.29-.31-.43-.47-.29-.32-.43-.49c-.27-.32-.54-.66-.8-1a36.84,36.84,0,0,1-2.75-4.23c-.81-1.46-1.55-3-2.24-4.45h0l-.34-.55.69.1a54.54,54.54,0,0,0,7.06.67,26,26,0,0,0,6.86-.68,16.73,16.73,0,0,0,1.61-.5,12.09,12.09,0,0,0,1.52-.67,12.27,12.27,0,0,0,2.67-1.83,12.58,12.58,0,0,0,2.06-2.48,17.1,17.1,0,0,0,1.43-3,23.5,23.5,0,0,0,.9-3.24c.22-1.11.38-2.25.49-3.39s.18-2.31.21-3.47v-.34c0-.13,0,0,0,0l0-.44,0-.88c0-.59-.07-1.17-.12-1.76-.09-1.17-.2-2.34-.34-3.51s-.29-2.33-.47-3.49q-.54-3.5-1.35-6.93c-1-4.6-2.45-9.14-3.85-13.71s-2.79-9.2-3.86-13.91A106.09,106.09,0,0,1,399,591.4a126.05,126.05,0,0,1-.43-14.41q.09-3.6.34-7.2c.17-2.39.37-4.78.63-7.16a85.51,85.51,0,0,1,2.57-14.19,72.18,72.18,0,0,1,5.15-13.51,64.64,64.64,0,0,1,18.36-22.29,67.17,67.17,0,0,1,12.47-7.58,69.76,69.76,0,0,1,6.78-2.76q3.46-1.19,7-2a71,71,0,0,1,7.23-1.26c1.21-.15,2.43-.26,3.66-.34.61,0,1.22-.06,1.85-.09l.9,0h1.86l.92,0q.92,0,1.83.09c1.22.07,2.44.18,3.65.32,2.43.29,4.84.68,7.22,1.2a75.18,75.18,0,0,1,13.9,4.5,71.72,71.72,0,0,1,12.7,7.15,65.66,65.66,0,0,1,10.9,9.62,61.46,61.46,0,0,1,8.41,11.8,63.26,63.26,0,0,1,3.09,6.56,59.34,59.34,0,0,1,2.26,6.87c.32,1.16.59,2.34.84,3.52.12.59.22,1.19.34,1.78l.28,1.78c.35,2.37.68,4.75,1,7.13.15,1.19.27,2.38.4,3.57s.24,2.39.33,3.59.19,2.39.28,3.59.15,2.39.2,3.59a139.64,139.64,0,0,1-1.41,28.8,133.18,133.18,0,0,1-3.08,14.13c-.62,2.33-1.31,4.63-2,6.93s-1.38,4.58-2,6.85-1.21,4.56-1.66,6.85a43.3,43.3,0,0,0-.79,6.87,32.48,32.48,0,0,0,.06,3.42c0,.28,0,.55.06.84l.1.9s0,.17,0,0l0,.11,0,.21.08.43c0,.28.11.56.16.84a34.63,34.63,0,0,0,2,6.54,24.08,24.08,0,0,0,1.54,3,16.69,16.69,0,0,0,2,2.64,12.51,12.51,0,0,0,5.39,3.52,15.47,15.47,0,0,0,6.66.51,31.8,31.8,0,0,0,6.79-1.73l1-.36-.5.85h0q-1.15,2.55-2.55,5c-.23.41-.47.81-.72,1.21s-.49.8-.75,1.2-.51.78-.78,1.17-.55.77-.83,1.15-.57.76-.87,1.13c-.15.18-.3.37-.46.55l-.47.54-.48.54-.5.52c-.17.18-.34.35-.52.51l-.54.5c-.37.33-.75.65-1.15,1a14.47,14.47,0,0,1-1.25.86,12.18,12.18,0,0,1-1.39.73,10.89,10.89,0,0,1-1.55.54l.63-2.68h0a8.23,8.23,0,0,0,2.06,1.28,11.67,11.67,0,0,0,2.46.73,15.81,15.81,0,0,0,5.36,0,18.06,18.06,0,0,0,5.21-1.69,16,16,0,0,0,4.48-3.27h0l1.49-2-.86,2.36a55.15,55.15,0,0,1-3.22,7.32,31.3,31.3,0,0,1-4.66,6.64c-.47.5-1,1-1.47,1.45s-1,.9-1.58,1.32c-.27.21-.56.41-.84.61l-.41.28L544,697l-.09.06,0,0-.06,0-.11.06c-.59.32-1.19.64-1.79.93s-1.23.58-1.84.86-1.24.54-1.88.77a37,37,0,0,1-3.86,1.26c-1.31.34-2.65.62-4,.83a34.72,34.72,0,0,1-4.07.34,31.79,31.79,0,0,1-15.73-3.71,35,35,0,0,1-6.69-4.62,33.52,33.52,0,0,1-5.42-6.05,24.9,24.9,0,0,1-3.56-7.37,15.56,15.56,0,0,1-.44-2.05c-.05-.33-.08-.71-.11-1.06l0-.5v-.52c0-1.32,0-2.65,0-4,0-2.65,0-5.3.06-7.94q.12-7.93.45-15.87c.11-2.64.25-5.29.4-7.93s.36-5.29.69-7.92h0v0l.06-.2c1.25-2.17,2.48-4.34,3.59-6.57s2.14-4.5,3.06-6.82a86,86,0,0,0,4.25-14.32,107.18,107.18,0,0,0,2-14.82c.12-2.49.21-5,.21-7.49s0-5-.2-7.48-.41-5-.79-7.43a56.17,56.17,0,0,0-1.58-7.28c-.18-.59-.35-1.19-.56-1.77l-.3-.88-.33-.87-.17-.43-.18-.43-.37-.85c-.27-.56-.52-1.13-.82-1.67a26,26,0,0,0-1.92-3.15,22.77,22.77,0,0,0-2.35-2.83,21,21,0,0,0-6-4.25,25.38,25.38,0,0,0-7.05-2.1,42.68,42.68,0,0,0-7.42-.41c-2.48.05-5,.26-7.47.46-1.25.1-2.5.2-3.77.26s-2.53,0-3.78,0c-2.52-.09-5-.25-7.5-.31a52.73,52.73,0,0,0-7.44.28,27.78,27.78,0,0,0-7.16,1.75,20.2,20.2,0,0,0-6.19,3.9,22,22,0,0,0-2.47,2.72c-.38.48-.72,1-1.06,1.5l-.49.79c-.17.26-.31.53-.46.8l-.23.4-.21.41c-.13.28-.28.55-.41.83-.26.56-.52,1.12-.74,1.7-.48,1.14-.87,2.31-1.24,3.5a54.36,54.36,0,0,0-1.61,7.26c-.38,2.46-.62,4.94-.77,7.43s-.21,5-.19,7.48.1,5,.25,7.48l.05.94c0,.3.05.62.07.93l.16,1.86c0,.62.12,1.24.19,1.86s.12,1.25.2,1.86l.24,1.86c0,.31.07.62.12.93l.14.92c.1.62.19,1.24.29,1.85l.33,1.84c.46,2.45,1,4.89,1.65,7.29s1.44,4.76,2.34,7.08a66.89,66.89,0,0,0,3.08,6.79l0,.09v.09h0l-.06-.19,3.44,5.84.06.1v.11h0a52.13,52.13,0,0,0,1,6.42c.44,2.13,1,4.25,1.48,6.37a116.25,116.25,0,0,1,2.62,12.94,46,46,0,0,1,.39,6.65,33.46,33.46,0,0,1-.78,6.67,29.18,29.18,0,0,1-2.22,6.37,39.73,39.73,0,0,1-3.49,5.72,52.1,52.1,0,0,1-4.25,5.13,53.82,53.82,0,0,1-4.85,4.58,48.63,48.63,0,0,1-5.39,3.94,40,40,0,0,1-5.95,3.1,32.17,32.17,0,0,1-6.47,1.94,26,26,0,0,1-6.77.38,24.38,24.38,0,0,1-6.65-1.43,27.77,27.77,0,0,1-3.11-1.38A30.24,30.24,0,0,1,391,697Z" transform="translate(-357.23 -471.08)"/><path class="cls-9" d="M467.07,528c6.54-.2,47.09.81,44.33,53.63a16.54,16.54,0,0,0,2.72-1.39s10.23-63.53-47.24-63.15c-57.47,0-46.33,63.17-46.33,63.17a15.84,15.84,0,0,0,2.72,1.37C420.16,528.8,459.63,527.93,467.07,528Z" transform="translate(-357.23 -471.08)"/><path d="M468.2,527.45c1.31,0,2.6,0,3.9.16q2.5.23,5,.69c1.65.31,3.29.71,4.9,1.18a49.5,49.5,0,0,1,4.74,1.7,39.67,39.67,0,0,1,8.72,5,36.33,36.33,0,0,1,7.1,7.13,36.94,36.94,0,0,1,2.77,4.22,42,42,0,0,1,2.23,4.51c.65,1.55,1.21,3.13,1.71,4.73.12.4.23.8.34,1.2l.17.61.15.61c.1.4.21.81.3,1.22l.26,1.22c.09.41.17.82.24,1.24l.21,1.23.19,1.24.09.62.07.62.14,1.25c0,.41.08.83.11,1.24s.08.84.1,1.25l.08,1.25,0,.63,0,.62,0,1.25c0,.83,0,1.67,0,2.5s0,1.67-.06,2.5l-.12,2.5h0l-.31-.23a11.78,11.78,0,0,0,1.36-.61c.45-.24.89-.49,1.31-.75h0l-.1.16c.25-1.88.4-3.78.49-5.68s.14-3.8.11-5.7a82.71,82.71,0,0,0-.93-11.34,63.21,63.21,0,0,0-2.66-11,46.6,46.6,0,0,0-4.84-10.21,38.35,38.35,0,0,0-7.34-8.52,37.67,37.67,0,0,0-9.52-6l-.65-.28-.65-.26-.66-.26-.66-.24-1.34-.47-1.35-.4-.68-.2-.68-.18-1.37-.34-1.39-.29-.69-.14-.7-.11a65.62,65.62,0,0,0-11.29-.89l-2.85,0c-.95.06-1.89.09-2.83.16L460,518l-.7.06-.71.09-1.4.18c-.47.06-.93.15-1.4.23a52.36,52.36,0,0,0-5.52,1.24l-1.35.42-.33.1-.34.12-.66.24c-.9.29-1.76.67-2.63,1a44.77,44.77,0,0,0-5,2.61,39,39,0,0,0-4.54,3.34,34.79,34.79,0,0,0-4,4,40.25,40.25,0,0,0-3.35,4.54,46.13,46.13,0,0,0-4.77,10.24,62.25,62.25,0,0,0-2.54,11.06,79.92,79.92,0,0,0-.78,11.36c0,1.9.06,3.8.19,5.7s.29,3.79.58,5.66l-.11-.16h0c.43.27.87.52,1.31.75a10.88,10.88,0,0,0,1.37.59l-.31.24h0l-.14-2.49c0-.83-.06-1.66-.07-2.5s0-1.66,0-2.49l0-1.25v-.62l0-.63c0-.83.08-1.66.15-2.49,0-.42.06-.83.1-1.25l.13-1.24.06-.62.09-.62.16-1.24.21-1.24c.06-.41.13-.82.22-1.23l.24-1.23c.09-.41.19-.81.28-1.22l.15-.61.16-.6c.11-.41.21-.81.33-1.21.47-1.61,1-3.19,1.64-4.75a42.67,42.67,0,0,1,2.16-4.53,37.6,37.6,0,0,1,2.71-4.24,36.13,36.13,0,0,1,3.27-3.83,35,35,0,0,1,3.77-3.34,38.81,38.81,0,0,1,8.72-5,46.94,46.94,0,0,1,9.64-2.82q2.48-.45,5-.66c1.67-.14,3.34-.21,5-.2Zm-1.13,1q-2.47,0-4.92.18c-1.64.14-3.27.35-4.89.64a45.31,45.31,0,0,0-9.43,2.74,37.57,37.57,0,0,0-8.51,4.86,36.29,36.29,0,0,0-6.9,6.94,38.76,38.76,0,0,0-2.68,4.12,42.08,42.08,0,0,0-2.15,4.43,48.29,48.29,0,0,0-1.65,4.64c-.12.4-.23.79-.34,1.19l-.16.6-.15.6c-.09.4-.19.8-.29,1.2l-.25,1.21c-.09.4-.16.8-.23,1.21l-.22,1.22-.18,1.22-.09.61-.07.62-.15,1.23c0,.41-.07.82-.11,1.23-.09.82-.13,1.65-.18,2.47l0,.62,0,.62,0,1.24c0,.83,0,1.65,0,2.48l0,2.48.1,2.48h0v.35l-.32-.11a10.17,10.17,0,0,1-1.43-.63c-.46-.24-.9-.49-1.35-.76h0l-.09,0v-.11a77,77,0,0,1-1-11.44,83,83,0,0,1,.62-11.47,63.75,63.75,0,0,1,2.48-11.24,47.37,47.37,0,0,1,4.78-10.5,37.91,37.91,0,0,1,12.14-12.26,43.36,43.36,0,0,1,5.14-2.7c.89-.37,1.78-.76,2.69-1.06l.68-.25.35-.12.34-.11,1.38-.43a54.76,54.76,0,0,1,5.64-1.29c.48-.08,1-.17,1.43-.23l1.43-.19.72-.1.72-.06,1.43-.14c1-.07,1.93-.11,2.89-.17s1.9,0,2.87,0a66.17,66.17,0,0,1,11.5.93l.71.12.71.15,1.42.29,1.4.36.7.18.69.21,1.39.42,1.37.48.68.24.67.28.67.27.67.28,1.31.61c.44.21.87.44,1.3.66l.64.34.63.36.62.37.32.18.3.2,1.22.79,1.18.85.29.21.29.22.57.45c.19.16.38.3.56.46l.55.47a36.91,36.91,0,0,1,4.08,4.12,41.25,41.25,0,0,1,3.41,4.69,47.77,47.77,0,0,1,4.85,10.46,63.63,63.63,0,0,1,2.6,11.22,82.94,82.94,0,0,1,.77,11.46,78.42,78.42,0,0,1-.8,11.45l0,.11-.09,0h0c-.44.28-.88.53-1.34.77a11.52,11.52,0,0,1-1.43.64l-.32.11v-.35h0l.08-2.48c0-.83,0-1.66,0-2.49s0-1.65-.05-2.48l-.06-1.24,0-.62-.05-.62-.09-1.24c0-.41-.07-.82-.11-1.24s-.08-.82-.13-1.23l-.16-1.23-.08-.61-.1-.62-.19-1.22L510,563c-.08-.4-.15-.81-.25-1.21l-.27-1.21-.3-1.2-.16-.6-.17-.59-.35-1.19c-.5-1.57-1.07-3.12-1.72-4.63a40.27,40.27,0,0,0-2.22-4.4,36.49,36.49,0,0,0-2.73-4.1,37,37,0,0,0-7-6.91,39.15,39.15,0,0,0-8.52-4.89,47.35,47.35,0,0,0-4.64-1.65,49.23,49.23,0,0,0-4.8-1.14c-1.61-.3-3.25-.52-4.88-.66a42.64,42.64,0,0,0-4.92-.16h0Z" transform="translate(-357.23 -471.08)"/><path class="cls-10" d="M455.52,521.08a39.1,39.1,0,0,0-23.37,12.6c.54,1.42,1.31,3.55,1.31,3.55s10.88-11.36,22.23-11.83C455.69,523,455.52,521.08,455.52,521.08Z" transform="translate(-357.23 -471.08)"/><path class="cls-6" d="M516.48,582.17c-2.54-3.22-5.56-.39-7.12,1.55.28-36.62-14.86-43.81-25.47-45.46-4.62-.72-11.54,2.56-17.32,2.56-7,0-13.21-2.53-18.53-1.44-8.63,1.76-23.18,10.2-22.7,44.38-1.54-1.94-4.59-4.83-7.14-1.59-3.37,4.27-.39,10.09.65,14.37s.85,7,2.58,10.35C422.49,608.94,424,614,426,614c1.45,0,2.33-1.75,2.84-3.17,3.48,13.21,8.75,19.79,12.64,26.6,3.74,6.56,13.19,25.06,26.25,24.85,12.69.41,22.41-17.54,25.65-24.36,2.3-4.88,8.47-12.83,12.46-27.27.5,1.45,1.38,3.35,2.9,3.35,1.94,0,3.47-5.08,4.53-7.12,1.42-2.73,1.55-6.08,2.59-10.35S519.84,586.44,516.48,582.17Z" transform="translate(-357.23 -471.08)"/><path class="cls-7" d="M516.1,582.49c-.12-.13-.24-.29-.35-.39a3.47,3.47,0,0,0-.34-.32l-.19-.14-.19-.12-.21-.11-.2-.08-.21-.06-.22,0a2.26,2.26,0,0,0-.45,0,2.46,2.46,0,0,0-.45.07.9.9,0,0,0-.22.06l-.22.08a3.55,3.55,0,0,0-.44.21,3.78,3.78,0,0,0-.43.26,5.91,5.91,0,0,0-.8.62,11.47,11.47,0,0,0-1.43,1.52l-.9,1.11v-1.43c0-1.53,0-3.07,0-4.6s-.11-3.06-.23-4.59-.26-3-.44-4.57-.44-3-.73-4.53a51.33,51.33,0,0,0-2.48-8.8,33.26,33.26,0,0,0-4.33-8,24.2,24.2,0,0,0-6.58-6.1,25.48,25.48,0,0,0-8.35-3.25l-1.11-.21L484,539l-.27,0-.28,0a10.35,10.35,0,0,0-2.15,0,26.85,26.85,0,0,0-4.39,1c-1.46.43-2.93.91-4.45,1.31a26,26,0,0,1-4.73.88,36,36,0,0,1-9.47-1c-1.51-.31-3-.65-4.48-.89a18.77,18.77,0,0,0-4.41-.25,9.76,9.76,0,0,0-1.07.13l-.13,0-.13,0-.29.06-.53.12a20,20,0,0,0-2.13.63,22.46,22.46,0,0,0-4,1.9,24.38,24.38,0,0,0-6.64,6,33.7,33.7,0,0,0-4.47,7.86,50.74,50.74,0,0,0-2.62,8.73c-.31,1.5-.57,3-.78,4.52s-.37,3-.48,4.56-.2,3-.24,4.59-.05,3.06,0,4.59l0,1.43-.91-1.11h0a10.87,10.87,0,0,0-2-2,3.58,3.58,0,0,0-2.41-.85,2.36,2.36,0,0,0-1.13.46,4.38,4.38,0,0,0-.92,1c-.07.1-.16.21-.21.3l-.18.28c-.11.2-.23.4-.32.61a6.6,6.6,0,0,0-.44,1.32,9.09,9.09,0,0,0-.14,2.81,17.77,17.77,0,0,0,.51,2.85c.24.94.53,1.89.83,2.83s.59,1.91.83,2.9l.16.73.16.74c.1.5.19,1,.27,1.48.17,1,.31,2,.5,2.93a17,17,0,0,0,.78,2.78,11,11,0,0,0,.58,1.32l.33.69.3.69c.4.92.77,1.83,1.19,2.72a14,14,0,0,0,.66,1.28,6.31,6.31,0,0,0,.8,1.11,1.32,1.32,0,0,0,.91.51,1.56,1.56,0,0,0,1-.46,4.37,4.37,0,0,0,.77-1.08,10.87,10.87,0,0,0,.57-1.3h0l.49-1.46.46,1.5.61,2c.2.67.45,1.32.67,2s.47,1.31.71,2,.5,1.3.76,1.94a70.81,70.81,0,0,0,3.63,7.49c1.35,2.43,2.84,4.78,4.35,7.15.75,1.18,1.49,2.38,2.21,3.61l2.11,3.65c1.4,2.4,2.87,4.76,4.44,7a53.48,53.48,0,0,0,5.17,6.41,28.53,28.53,0,0,0,6.24,5.09,17.58,17.58,0,0,0,3.6,1.56,13,13,0,0,0,3.81.53h1l.47,0,.48-.05a12.34,12.34,0,0,0,1.89-.36,16.48,16.48,0,0,0,3.62-1.5,27.89,27.89,0,0,0,6.28-5,50,50,0,0,0,5.15-6.41,79.52,79.52,0,0,0,4.31-7.08c.33-.61.66-1.23,1-1.84l.94-1.89c.68-1.3,1.4-2.5,2.12-3.71,1.45-2.4,2.86-4.79,4.15-7.26s2.47-5,3.52-7.56,2-5.2,2.8-7.87l.47-1.53.48,1.5h0a8.61,8.61,0,0,0,1,2.07,2.47,2.47,0,0,0,.72.72,1.19,1.19,0,0,0,.42.18l.21,0h.19a1.46,1.46,0,0,0,.75-.47,5.69,5.69,0,0,0,.67-.9,17.46,17.46,0,0,0,1.09-2.11c.32-.73.63-1.49,1-2.24s.75-1.51,1-2.21a26.79,26.79,0,0,0,1.15-4.65c.3-1.6.59-3.22,1-4.82.21-.81.45-1.59.69-2.37s.48-1.55.7-2.33.4-1.55.53-2.33a12.37,12.37,0,0,0,.18-2.34,7.75,7.75,0,0,0-.37-2.26,6.84,6.84,0,0,0-1.07-2Zm.77-.63a7.94,7.94,0,0,1,1.24,2.29,9,9,0,0,1,.42,2.55,13.29,13.29,0,0,1-.2,2.53,23.84,23.84,0,0,1-.55,2.43c-.22.8-.46,1.58-.71,2.36s-.48,1.56-.68,2.32c-.39,1.56-.68,3.16-1,4.76a28.14,28.14,0,0,1-1.19,4.83c-.32.84-.72,1.5-1,2.25s-.63,1.49-1,2.25a19.64,19.64,0,0,1-1.15,2.23,6.55,6.55,0,0,1-.8,1.06,2.87,2.87,0,0,1-.56.46,2,2,0,0,1-.75.31h-.42l-.39-.06a2.43,2.43,0,0,1-.7-.3,3.77,3.77,0,0,1-1-1,9,9,0,0,1-1.12-2.32h0l1,0c-.35,1.37-.72,2.73-1.13,4.09s-.87,2.69-1.35,4a82.48,82.48,0,0,1-3.33,7.81c-1.24,2.54-2.61,5-4,7.46-.68,1.22-1.38,2.44-2,3.64l-.9,1.9c-.31.64-.63,1.27-1,1.9a73.39,73.39,0,0,1-4.32,7.36,53.41,53.41,0,0,1-5.31,6.75,29.39,29.39,0,0,1-6.79,5.47,18.32,18.32,0,0,1-4.13,1.73,15.3,15.3,0,0,1-2.24.44,10.85,10.85,0,0,1-1.15.09l-.57,0h-.5a15.38,15.38,0,0,1-4.49-.64A19,19,0,0,1,459,661a29.89,29.89,0,0,1-6.74-5.53,56,56,0,0,1-5.31-6.74c-1.6-2.36-3.05-4.8-4.43-7.26l-2-3.68c-.68-1.21-1.4-2.41-2.11-3.61-1.44-2.4-2.9-4.83-4.21-7.34a69.93,69.93,0,0,1-3.44-7.78c-.24-.67-.49-1.33-.7-2s-.46-1.35-.65-2-.4-1.35-.57-2l-.53-2,.95,0h0a10.48,10.48,0,0,1-.62,1.43,5.09,5.09,0,0,1-1,1.33,3,3,0,0,1-.73.52,2.16,2.16,0,0,1-.45.15l-.24,0H426a1.83,1.83,0,0,1-1-.26,3,3,0,0,1-.69-.56,7.64,7.64,0,0,1-.94-1.3c-.26-.44-.49-.9-.71-1.36-.43-.91-.81-1.84-1.19-2.75l-.3-.67c-.1-.22-.2-.42-.32-.65a14.7,14.7,0,0,1-.62-1.41,19.3,19.3,0,0,1-.82-2.95c-.19-1-.34-2-.5-3l-.27-1.45-.15-.72-.16-.72c-.23-.94-.52-1.88-.82-2.83S417,592,416.73,591a18.77,18.77,0,0,1-.54-3,9.89,9.89,0,0,1,.17-3.11,7.23,7.23,0,0,1,.5-1.51c.11-.25.24-.47.37-.71l.22-.35c.08-.12.15-.2.22-.31a5.31,5.31,0,0,1,1.15-1.17,3.37,3.37,0,0,1,1.6-.64,3.87,3.87,0,0,1,1.7.24,6.25,6.25,0,0,1,1.41.79,12,12,0,0,1,2.2,2.19h0l-.88.32c0-1.55,0-3.1,0-4.64s.12-3.09.23-4.64.27-3.08.47-4.62.45-3.07.75-4.59a50.34,50.34,0,0,1,2.58-9,35.6,35.6,0,0,1,4.51-8.22,26.42,26.42,0,0,1,6.89-6.44,24.3,24.3,0,0,1,4.27-2.13c.74-.28,1.51-.52,2.28-.73l.59-.14.28-.07.15,0,.15,0c.4-.08.81-.15,1.21-.2a21.93,21.93,0,0,1,2.42-.13c.81,0,1.6,0,2.39.11,1.57.12,3.12.31,4.64.5s3,.36,4.52.47c.74.06,1.48.11,2.21.14h1.64l.53,0a80.7,80.7,0,0,0,8.92-1.34,44.68,44.68,0,0,1,4.7-.62,12.71,12.71,0,0,1,2.46.06l.29,0,.31.05.58.1,1.15.24a26.68,26.68,0,0,1,8.7,3.6,25.58,25.58,0,0,1,6.79,6.49,35.73,35.73,0,0,1,4.37,8.26,55.67,55.67,0,0,1,2.47,9,83.88,83.88,0,0,1,1.2,9.2c.24,3.09.32,6.18.33,9.27l-.89-.32a13.32,13.32,0,0,1,1.55-1.64,9.21,9.21,0,0,1,.91-.71c.16-.1.33-.21.5-.3a5.45,5.45,0,0,1,.55-.25l.28-.11.3-.08a4.22,4.22,0,0,1,.62-.1,3.43,3.43,0,0,1,.64,0l.32.06.3.09.3.12.28.14.27.17.24.18a4.47,4.47,0,0,1,.45.42c.16.16.26.29.38.43Z" transform="translate(-357.23 -471.08)"/><path class="cls-11" d="M435.25,512.71c2.89-1.63,28-19,64.45-.18-.9,2.16-4.51,6-4.51,6S466.66,503,439.58,519A63.35,63.35,0,0,1,435.25,512.71Z" transform="translate(-357.23 -471.08)"/><polygon class="cls-8" points="86.32 35.31 90.83 45.96 93.18 45.05 91.19 32.96 86.32 35.31"/><polygon class="cls-8" points="93.54 33.14 96.25 43.97 99.5 43.25 96.25 31.88 93.54 33.14"/><polygon class="cls-8" points="127.84 33.86 125.5 44.87 126.94 45.05 130.01 34.95 127.84 33.86"/><polygon class="cls-8" points="132 35.31 128.93 44.87 130.37 45.42 134.16 35.49 132 35.31"/><polygon class="cls-8" points="133.62 47.04 137.95 37.65 141.75 38.74 135.06 47.76 133.62 47.04"/><path class="cls-12" d="M508.24,734c-1.78-5.6-6.59-20.54-11.77-34.45-30.64,27.07-58.89.9-58.89.9L428,734Z" transform="translate(-357.23 -471.08)"/><path class="cls-7" d="M428.65,734l9.25-32.47c.79.71,1.6,1.38,2.44,2,1.1.83,2.24,1.6,3.4,2.33a49.66,49.66,0,0,0,7.33,3.76c1.27.52,2.57,1,3.89,1.39s2.66.75,4,1,2.73.48,4.1.62a41.23,41.23,0,0,0,4.16.2,38.37,38.37,0,0,0,4.15-.26,35.43,35.43,0,0,0,4.1-.69c1.35-.32,2.69-.68,4-1.13l.49-.17.49-.18,1-.36c.63-.27,1.28-.52,1.9-.82,1.26-.56,2.48-1.21,3.68-1.88s2.36-1.41,3.48-2.2c.28-.2.57-.39.84-.6l.82-.61c.56-.4,1.08-.85,1.62-1.27s1.05-.88,1.57-1.32l.86-.78c.46,1.24.92,2.47,1.36,3.71.55,1.52,1.1,3,1.63,4.56l1.6,4.58,1.57,4.58q1.56,4.61,3.06,9.2c.73,2.26,1.46,4.51,2.17,6.77h1.26c-.75-2.38-1.52-4.76-2.29-7.14q-1.51-4.61-3.06-9.21l-1.58-4.59-1.6-4.58q-.81-2.29-1.63-4.58c-.55-1.52-1.12-3-1.67-4.56l-.3-.8-.66.57h0c-.53.41-1,.84-1.57,1.25s-1.06.82-1.6,1.21-1.07.78-1.63,1.15l-.83.55c-.28.19-.56.36-.84.54-1.12.72-2.28,1.37-3.44,2s-2.37,1.2-3.59,1.71c-.6.27-1.22.49-1.84.73l-.93.33-.47.17-.47.14a36.29,36.29,0,0,1-3.81,1c-1.29.28-2.59.48-3.89.63a34.51,34.51,0,0,1-3.93.22c-1.32,0-2.63,0-3.94-.17s-2.61-.32-3.91-.57a46.13,46.13,0,0,1-7.61-2.17c-1.24-.47-2.45-1-3.65-1.56s-2.38-1.18-3.54-1.84-2.29-1.35-3.39-2.09c-.56-.37-1.1-.75-1.64-1.15s-1.07-.79-1.56-1.2l-.73-.62L427.4,734Z" transform="translate(-357.23 -471.08)"/><path class="cls-1" d="M457.84,587.18c0,1.58-4.53,5.19-10.71,4.37s-9.57-5.28-10.56-6.43c2-1.74,6.27-5.53,11.3-5.12S457.92,584.13,457.84,587.18Z" transform="translate(-357.23 -471.08)"/><g class="cls-13"><circle class="cls-14" cx="89.69" cy="116.03" r="5.51"/><path d="M452.8,587.13l0,.39c0,.06,0,.13,0,.21l0,.28-.06.32-.09.34a6.19,6.19,0,0,1-.76,1.64,6.43,6.43,0,0,1-1.65,1.64,6.09,6.09,0,0,1-2.58.94l-.37,0h-.38a6.68,6.68,0,0,1-.74-.06,5.39,5.39,0,0,1-1.52-.43,5.74,5.74,0,0,1-1.39-.86,6.59,6.59,0,0,1-1.12-1.23,6.18,6.18,0,0,1-.74-1.53,4.86,4.86,0,0,1-.19-.84,3,3,0,0,1-.06-.43l0-.45a6.05,6.05,0,0,1,0-.83,6,6,0,0,1,.17-.86,6.44,6.44,0,0,1,.69-1.59,6.32,6.32,0,0,1,1.1-1.31,6.79,6.79,0,0,1,1.41-.94,6,6,0,0,1,1.58-.47,7,7,0,0,1,.79-.07h.4l.36,0a4.57,4.57,0,0,1,.77.14l.36.1.34.13a5.49,5.49,0,0,1,1.22.66,5.8,5.8,0,0,1,1.63,1.75,6.2,6.2,0,0,1,.71,1.69l.08.36c0,.11,0,.21.05.31s0,.36,0,.5v.43Zm-.73,0,0-.36a2.74,2.74,0,0,0-.06-.43,2.56,2.56,0,0,0-.05-.27l-.09-.3a4.68,4.68,0,0,0-.69-1.41,5.09,5.09,0,0,0-1.46-1.37,5.74,5.74,0,0,0-1-.49l-.28-.09-.29-.07c-.2-.06-.39-.07-.58-.11l-.34,0h-.32a3.45,3.45,0,0,0-.64,0,4.92,4.92,0,0,0-1.29.34,5.44,5.44,0,0,0-1.21.7,5.21,5.21,0,0,0-1,1,4.87,4.87,0,0,0-.85,2,4.67,4.67,0,0,0-.08.78v.36a2.45,2.45,0,0,0,0,.38,4.85,4.85,0,0,0,.15.74,5.65,5.65,0,0,0,.62,1.37,5,5,0,0,0,2.21,1.89,4.82,4.82,0,0,0,1.35.39,3.88,3.88,0,0,0,.7.06h.32l.33,0a5.37,5.37,0,0,0,2.3-.85,5.1,5.1,0,0,0,1.45-1.49,5.24,5.24,0,0,0,.64-1.46l.07-.31c0-.09,0-.18,0-.26l0-.23c0-.07,0-.15,0-.21v-.37Z" transform="translate(-357.23 -471.08)"/><polygon class="cls-15" points="92.68 119.97 90.99 118.08 91.72 119.77 90.41 117.61 91.37 120.7 90.31 118.4 90.54 120.25 89.92 118.09 89.9 121.01 89.49 117.6 89.17 120.41 89.19 118.47 88.41 120.87 88.82 118.38 87.69 120.64 88.71 117.72 87.25 119.91 88.39 117.8 86.4 119.87 88.3 117.4 86.2 119.04 87.61 117.52 85.4 118.75 87.87 116.97 85.54 117.87 87.41 116.82 84.77 117.39 87.48 116.42 84.61 116.65 87.42 116.13 85.13 115.93 87.62 115.85 84.64 115.15 87.45 115.47 85.34 114.52 87.28 115.03 85.1 113.73 87.78 114.89 85.78 113.27 87.66 114.38 86.21 112.72 88.22 114.42 86.53 112 88.22 113.88 87.39 112.09 88.81 114.23 87.84 111.27 89.05 114 88.56 111.06 89.29 113.99 89.37 111.94 89.67 113.99 90.06 110.97 90.08 113.73 90.8 111.09 90.3 114.12 91.52 111.32 90.73 113.73 92.19 111.66 90.71 114.32 92.55 112.66 91.14 114.42 93.35 112.61 91.31 114.69 93.41 113.51 91.09 115.19 94.17 113.87 91.96 115.1 93.77 114.78 91.25 115.64 94.08 115.39 92.12 115.83 94.64 116.06 91.72 116.17 94.57 116.81 91.52 116.53 94.13 117.44 91.93 116.94 94.11 118.24 91.2 117.02 93.51 118.73 91.55 117.58 92.78 119.02 90.56 117.06 92.68 119.97"/><circle cx="89.69" cy="116.03" r="2.96"/><path class="cls-1" d="M446.45,585.21a1.13,1.13,0,1,1-1.13-1.13A1.13,1.13,0,0,1,446.45,585.21Z" transform="translate(-357.23 -471.08)"/></g><path class="cls-7" d="M457.24,585.16l.13.13a2.19,2.19,0,0,1,.29.4,2.57,2.57,0,0,1,.15.29,2.86,2.86,0,0,1,.12.35,2.23,2.23,0,0,1,.09.39c0,.13,0,.28,0,.42a3,3,0,0,1-.06.42,2.35,2.35,0,0,1-.14.4c0,.06-.06.12-.1.17a.91.91,0,0,1-.11.16l-.11.13a1.42,1.42,0,0,1-.13.12,2.39,2.39,0,0,1-.22.16l-.2.1-.17.07a1.11,1.11,0,0,1,.09-.16,1.36,1.36,0,0,1,.12-.17c0-.07.07-.15.11-.22a1.23,1.23,0,0,0,.12-.26l.06-.14s0-.1,0-.15a3,3,0,0,0,.07-.32c0-.11,0-.22,0-.34s0-.23,0-.34,0-.23,0-.34,0-.22,0-.33,0-.2,0-.3Z" transform="translate(-357.23 -471.08)"/><path d="M447.92,580.47c4.42.07,8.42,3.72,11,7-1.73-4.05-5.53-7.72-10-8.26a16.69,16.69,0,0,0-14.22,5.28c7.36,11.27,19.78,6.78,21.33,5-1.8.74-6.31,1.9-8.91,1.66a14.19,14.19,0,0,1-10.57-6h0C439.3,582.78,443.31,580,447.92,580.47Z" transform="translate(-357.23 -471.08)"/><path d="M436.07,581.44s.29-.27.82-.71A28.55,28.55,0,0,1,439.2,579c.49-.32,1-.66,1.64-1a17.3,17.3,0,0,1,1.93-.93,12.68,12.68,0,0,1,2.21-.7,7.87,7.87,0,0,1,1.2-.15c.2,0,.41,0,.62,0l.59,0a12.32,12.32,0,0,1,2.36.46,10.74,10.74,0,0,1,2.14.9,12.52,12.52,0,0,1,1.8,1.2,18.82,18.82,0,0,1,1.44,1.27c.84.83,1.5,1.57,2,2.07l.55.58.19.2-.22-.18c-.14-.12-.35-.29-.6-.52-.52-.45-1.24-1.12-2.13-1.89-.44-.38-.93-.78-1.47-1.17a14.06,14.06,0,0,0-1.78-1.09,11.26,11.26,0,0,0-4.29-1.23l-.58,0h-.56a7,7,0,0,0-1.12.14,12.72,12.72,0,0,0-2.13.62,25.48,25.48,0,0,0-3.58,1.73c-1,.58-1.85,1.11-2.42,1.49S436.07,581.44,436.07,581.44Z" transform="translate(-357.23 -471.08)"/><path class="cls-1" d="M477,587.15c.05,1.58,4.55,5.18,10.73,4.34s9.55-5.31,10.53-6.46c-2-1.73-6.28-5.51-11.31-5.08S476.9,584.1,477,587.15Z" transform="translate(-357.23 -471.08)"/><g class="cls-16"><circle class="cls-17" cx="488.07" cy="587" r="5.51" transform="translate(-625.06 9.14) rotate(-42.22)"/><path d="M482.92,587l0,.39a1.55,1.55,0,0,0,0,.21l0,.23c0,.08,0,.17,0,.26l.08.31a5.09,5.09,0,0,0,2.09,2.94,5.21,5.21,0,0,0,2.3.84c.11,0,.22,0,.33,0h.33a5.19,5.19,0,0,0,.7-.07,4.76,4.76,0,0,0,1.34-.39,5.32,5.32,0,0,0,1.23-.78,5,5,0,0,0,1-1.12,5.65,5.65,0,0,0,.62-1.37,6.06,6.06,0,0,0,.15-.74c0-.13,0-.25,0-.38l0-.36a6,6,0,0,0-.09-.78,4.74,4.74,0,0,0-.18-.72,5,5,0,0,0-.68-1.31,5.43,5.43,0,0,0-1-1,5.08,5.08,0,0,0-1.21-.7,5.34,5.34,0,0,0-1.29-.34,4.6,4.6,0,0,0-.64,0h-.32l-.34,0c-.2,0-.38,0-.58.11l-.29.07-.28.09a5.77,5.77,0,0,0-1,.49,5.25,5.25,0,0,0-1.46,1.38,4.68,4.68,0,0,0-.69,1.41l-.08.3a1.41,1.41,0,0,0-.05.27,2.74,2.74,0,0,0-.06.43l0,.36Zm-.73,0v-.41c0-.14,0-.3,0-.5s0-.2.05-.31l.08-.35a5.78,5.78,0,0,1,.7-1.7,5.81,5.81,0,0,1,2.85-2.42l.34-.13.36-.1a5.53,5.53,0,0,1,.77-.15c.13,0,.24,0,.36,0h.39a7.41,7.41,0,0,1,.8.07,6,6,0,0,1,1.57.47,6,6,0,0,1,2.52,2.24,6.86,6.86,0,0,1,.7,1.59,7.27,7.27,0,0,1,.17.86c.05.31,0,.56.05.83l0,.45a3,3,0,0,1-.05.43,7.86,7.86,0,0,1-.19.84,6.18,6.18,0,0,1-.74,1.53,5.93,5.93,0,0,1-2.5,2.1,5.48,5.48,0,0,1-1.52.43,6.81,6.81,0,0,1-.74.07h-.38c-.13,0-.25,0-.37,0a5.89,5.89,0,0,1-2.58-.92,6.12,6.12,0,0,1-1.65-1.64,5.67,5.67,0,0,1-.77-1.64l-.09-.34c0-.11,0-.22-.06-.32l0-.27a1.77,1.77,0,0,1,0-.22l0-.39Z" transform="translate(-357.23 -471.08)"/><polygon class="cls-15" points="127.82 120 129.48 118.14 128.76 119.8 130.05 117.68 129.11 120.71 130.15 118.45 129.92 120.27 130.54 118.14 130.55 121.02 130.96 117.66 131.28 120.44 131.25 118.52 132.02 120.89 131.61 118.43 132.73 120.66 131.73 117.78 133.16 119.94 132.04 117.86 134 119.9 132.13 117.47 134.2 119.08 132.81 117.59 134.98 118.8 132.56 117.05 134.84 117.93 133.01 116.89 135.6 117.46 132.93 116.5 135.76 116.73 132.99 116.22 135.25 116.02 132.8 115.95 135.73 115.26 132.96 115.57 135.04 114.64 133.14 115.13 135.28 113.85 132.65 115 134.6 113.4 132.76 114.5 134.18 112.86 132.21 114.53 133.87 112.15 132.21 114 133.02 112.24 131.62 114.35 132.58 111.43 131.4 114.12 131.87 111.22 131.15 114.11 131.08 112.09 130.78 114.11 130.4 111.14 130.37 113.85 129.67 111.26 130.16 114.24 128.96 111.49 129.73 113.86 128.3 111.82 129.75 114.44 127.95 112.8 129.33 114.53 127.16 112.76 129.17 114.8 127.1 113.64 129.38 115.3 126.35 113.99 128.52 115.2 126.74 114.89 129.23 115.73 126.44 115.49 128.37 115.93 125.89 116.15 128.76 116.26 125.96 116.89 128.96 116.61 126.39 117.51 128.55 117.01 126.41 118.29 129.27 117.09 127 118.78 128.93 117.65 127.72 119.06 129.9 117.14 127.82 120"/><circle cx="130.83" cy="115.91" r="2.96"/><path class="cls-1" d="M488.54,585.1a1.13,1.13,0,1,0,1.13-1.14A1.14,1.14,0,0,0,488.54,585.1Z" transform="translate(-357.23 -471.08)"/></g><path class="cls-7" d="M477.59,585.13l-.1.64c0,.1,0,.2,0,.3s0,.22,0,.33,0,.23,0,.34v.35c0,.11,0,.22,0,.33a3,3,0,0,0,.06.32s0,.1.05.15,0,.09,0,.14a2.06,2.06,0,0,0,.12.26,2.39,2.39,0,0,1,.12.22,1.2,1.2,0,0,1,.11.17,1,1,0,0,1,.1.15.77.77,0,0,1-.17-.06l-.2-.09-.23-.17a1.31,1.31,0,0,1-.12-.11l-.12-.14-.11-.15-.09-.18a1.82,1.82,0,0,1-.14-.39,2.14,2.14,0,0,1-.07-.43,3,3,0,0,1,0-.42,1.69,1.69,0,0,1,.08-.39A1.8,1.8,0,0,1,477,586a2,2,0,0,1,.15-.29,1.8,1.8,0,0,1,.29-.4A.63.63,0,0,1,477.59,585.13Z" transform="translate(-357.23 -471.08)"/><path d="M486.89,580.41c-4.42.09-8.4,3.75-11,7,1.72-4,5.51-7.73,9.94-8.29a16.69,16.69,0,0,1,14.23,5.25c-7.32,11.28-19.76,6.83-21.31,5,1.8.73,6.32,1.88,8.91,1.63a14.17,14.17,0,0,0,10.55-6h0C495.52,582.7,491.5,579.91,486.89,580.41Z" transform="translate(-357.23 -471.08)"/><path d="M498.75,581.35s-.32-.23-.9-.61-1.4-.91-2.42-1.48a25.12,25.12,0,0,0-3.59-1.72,13.43,13.43,0,0,0-2.13-.62,8.35,8.35,0,0,0-1.12-.13H488l-.57.05a12,12,0,0,0-2.24.42,12.46,12.46,0,0,0-2.06.82,16.1,16.1,0,0,0-1.77,1.1c-.54.39-1,.79-1.47,1.17-.88.77-1.6,1.45-2.12,1.9-.25.23-.46.41-.6.52L477,583l.19-.2.55-.58c.47-.5,1.12-1.24,2-2.07a16.91,16.91,0,0,1,1.43-1.28,13,13,0,0,1,1.79-1.2,11.38,11.38,0,0,1,2.14-.91,12.33,12.33,0,0,1,2.36-.47l.59,0h.62a7.88,7.88,0,0,1,1.2.16,11.86,11.86,0,0,1,2.21.69A15.86,15.86,0,0,1,494,578c.6.32,1.15.66,1.64,1a27.13,27.13,0,0,1,2.31,1.68C498.46,581.08,498.75,581.35,498.75,581.35Z" transform="translate(-357.23 -471.08)"/><path d="M443.31,579.75a1.22,1.22,0,0,0-.28-.14l-.84-.33a5.68,5.68,0,0,1-.86-.42,5.84,5.84,0,0,1-1.16-1,8.54,8.54,0,0,1-.9-1.08,6,6,0,0,1-.34-.51s.07.23.22.58a8.61,8.61,0,0,0,.68,1.28,6.23,6.23,0,0,0,1.05,1.27l.28.23-.57-.25a6.39,6.39,0,0,1-1.07-.55,8.5,8.5,0,0,1-1.47-1.24,13.73,13.73,0,0,1-1.17-1.38c-.29-.39-.46-.66-.46-.66s.09.3.27.76a12.34,12.34,0,0,0,.8,1.7,8.26,8.26,0,0,0,1.28,1.73,3.51,3.51,0,0,0,.41.37h0l-.41,0-.28,0-.32-.06a5,5,0,0,1-1.45-.49,6,6,0,0,1-1.19-.77,4,4,0,0,1-.46-.44,3.61,3.61,0,0,0,.37.52,5.59,5.59,0,0,0,1.07,1,5.3,5.3,0,0,0,1.47.8l.07,0a8.9,8.9,0,0,1-1,0,6.36,6.36,0,0,1-2-.49,7.75,7.75,0,0,1-1.67-1,6.69,6.69,0,0,1-.65-.57,5.92,5.92,0,0,0,.51.72,7.32,7.32,0,0,0,1.49,1.41,6.44,6.44,0,0,0,1.41.77,10.77,10.77,0,0,1-1.63-.22,10.43,10.43,0,0,1-1.71-.51l-.3-.12a1.12,1.12,0,0,1-.22-.11l-.19-.1.16.14.2.15c.08.05.17.12.28.18a10.77,10.77,0,0,0,3.16,1.34,5.24,5.24,0,0,1-1.14.13,6.87,6.87,0,0,1-1.93-.28,10,10,0,0,1-1.72-.67,6.28,6.28,0,0,1-.71-.39,7,7,0,0,0,.6.56,10.39,10.39,0,0,0,1.58,1.1,7.23,7.23,0,0,0,2,.76l-.43.06a9.62,9.62,0,0,1-1.81.08,9.92,9.92,0,0,1-1.65-.2,5.32,5.32,0,0,1-.71-.19,6.45,6.45,0,0,0,.66.33,9.38,9.38,0,0,0,1.64.52,9.83,9.83,0,0,0,1.41.22,5.07,5.07,0,0,1-.5.14,14.41,14.41,0,0,1-2,.41,15.51,15.51,0,0,1-1.89.13c-.5,0-.83,0-.83,0s.32.09.82.18a14.25,14.25,0,0,0,1.92.23c.3,0,.62,0,.93,0l-.51.17-.65.2a17.44,17.44,0,0,1-2.37.48,9.46,9.46,0,0,1-1.06.08,9,9,0,0,0,1.06.12,16,16,0,0,0,2.48,0l.71-.08.71-.12a12.14,12.14,0,0,0,1.32-.32c.19-.05.37-.1.53-.16l0,0a3.86,3.86,0,0,0-.79,1.06A4.78,4.78,0,0,0,433,588c-.06.29-.08.48-.08.48a4.39,4.39,0,0,1,.21-.44,4.9,4.9,0,0,1,.61-.89,4,4,0,0,1,.87-.72l.21-.11.19-.08.27-.1.18-.07.17-.07.15-.07.15-.07c.17-.09.29-.21.29-.33s-.13-.21-.36-.27a1.08,1.08,0,0,0-.19,0h-.09A2.12,2.12,0,0,0,436,585l.39-.3a3.13,3.13,0,0,0,.6-.58c.3-.39.41-.69.29-.83a.23.23,0,0,0-.13-.07,2.78,2.78,0,0,0,.4-.31,1.32,1.32,0,0,0,.26-.39,2,2,0,0,0,.34,0l.36-.1a1.55,1.55,0,0,0,.32-.14l.26-.15a1.56,1.56,0,0,0,.26-.24,2.86,2.86,0,0,0,.58-.27c.34-.22.5-.45.44-.62a.31.31,0,0,0-.1-.13h0a2.26,2.26,0,0,0,1.3.06l.26-.1a.86.86,0,0,0,.18-.14.35.35,0,0,0,.12-.28.39.39,0,0,0-.1-.19,1.85,1.85,0,0,0,1,.07.71.71,0,0,0,.34-.13c.07-.06.11-.12.1-.18S443.38,579.8,443.31,579.75Z" transform="translate(-357.23 -471.08)"/><path d="M446.59,579.24c-.23-.14-.53-.28-.86-.44a5.34,5.34,0,0,1-.88-.5,5.81,5.81,0,0,1-1.14-1.09,8.25,8.25,0,0,1-.82-1.25,5.78,5.78,0,0,1-.28-.6s0,.26.12.66a8.12,8.12,0,0,0,.53,1.47,5.48,5.48,0,0,0,1,1.48l.26.25-.27-.09a4.08,4.08,0,0,1-.81-.4,4.91,4.91,0,0,1-1.07-1,8.49,8.49,0,0,1-.8-1.09c-.1-.16-.17-.29-.22-.38a1,1,0,0,1-.07-.15s0,.06,0,.17a3.77,3.77,0,0,0,.12.42A8.13,8.13,0,0,0,442,578a5.61,5.61,0,0,0,1,1.28,3.18,3.18,0,0,0,1,.64,1.88,1.88,0,0,0,1.13.07.74.74,0,0,0,.31-.16l.05,0a2.05,2.05,0,0,0,1,.16c.32,0,.51-.16.52-.31S446.82,579.39,446.59,579.24Z" transform="translate(-357.23 -471.08)"/><path d="M448.87,579.41a6.8,6.8,0,0,1-.68-.09,4.63,4.63,0,0,1-2-.82,3.38,3.38,0,0,1-1.19-1.79,4.48,4.48,0,0,1-.15-.67,2.25,2.25,0,0,1,0-.25s0,.09,0,.25a3,3,0,0,0,0,.7,3.2,3.2,0,0,0,.32,1,2.89,2.89,0,0,0,.83,1,3.62,3.62,0,0,0,1.17.57,4.72,4.72,0,0,0,1,.16c.29,0,.53,0,.69,0l.26,0Z" transform="translate(-357.23 -471.08)"/><path d="M435.72,586.72a1.68,1.68,0,0,1,.31,0h.71a.33.33,0,0,0,.28-.13c0-.07,0-.17-.16-.28a.89.89,0,0,0-.26-.12.93.93,0,0,0-.34-.06h-.12l-.15,0a1.59,1.59,0,0,0-.38.09,3.19,3.19,0,0,0-.82.42,4.21,4.21,0,0,0-.6.53,1.72,1.72,0,0,0-.22.26,3,3,0,0,1,.28-.19,3.9,3.9,0,0,1,.68-.34A3.12,3.12,0,0,1,435.72,586.72Z" transform="translate(-357.23 -471.08)"/><path d="M436.85,587.54c.38,0,.73,0,.78-.2s-.29-.39-.78-.4l-.26,0a2,2,0,0,0-.37.09,2.57,2.57,0,0,0-.81.44,2.89,2.89,0,0,0-.55.58,3.12,3.12,0,0,0-.18.3,1.56,1.56,0,0,1,.25-.23,2.63,2.63,0,0,1,.63-.4A2.71,2.71,0,0,1,436.85,587.54Z" transform="translate(-357.23 -471.08)"/><path d="M437.21,588.57l.33-.08a1,1,0,0,0,.22,0,2.36,2.36,0,0,0,.28,0l.23,0a.36.36,0,0,0,.29-.16c0-.09,0-.19-.2-.29a1.25,1.25,0,0,0-.31-.1,1.78,1.78,0,0,0-.4,0l-.28.08a2.13,2.13,0,0,0-.38.18,3.8,3.8,0,0,0-.8.6,5.55,5.55,0,0,0-.79,1,3.65,3.65,0,0,1,.29-.23,7,7,0,0,1,.7-.47A4.1,4.1,0,0,1,437.21,588.57Z" transform="translate(-357.23 -471.08)"/><path d="M438.29,589.3h.9a3.07,3.07,0,0,0,.34,0c.2,0,.34-.12.36-.24s-.08-.23-.28-.34a1,1,0,0,0-.35-.13,3,3,0,0,0-.46-.06,1.77,1.77,0,0,0-.36,0l-.24,0-.28.08a2.91,2.91,0,0,0-1.15.63,2.45,2.45,0,0,0-.64,1,2.27,2.27,0,0,0-.12.46,2.24,2.24,0,0,1,1-1.07,2.42,2.42,0,0,1,1-.28Z" transform="translate(-357.23 -471.08)"/><path d="M439.62,589.91l.17,0h.85c.14,0,.26,0,.29-.13s0-.18-.16-.28a.68.68,0,0,0-.27-.13l-.17-.05H440l-.15,0-.19,0-.2.07a2.73,2.73,0,0,0-.81.5,4.21,4.21,0,0,0-.56.61c-.13.18-.2.3-.2.3a3,3,0,0,1,.27-.23,3.28,3.28,0,0,1,.66-.42A2.31,2.31,0,0,1,439.62,589.91Z" transform="translate(-357.23 -471.08)"/><path d="M442.06,590a1.36,1.36,0,0,0-.75-.19,2.5,2.5,0,0,0-.77.17,4.23,4.23,0,0,0-1,.51,6.36,6.36,0,0,0-1.06.89l.36-.2c.23-.11.54-.25.87-.37a5.71,5.71,0,0,1,1-.24c.29,0,.52,0,.63,0a5.09,5.09,0,0,0,.6,0,.4.4,0,0,0,.34-.16C442.3,590.26,442.23,590.14,442.06,590Z" transform="translate(-357.23 -471.08)"/><path d="M506.31,586.17a15.87,15.87,0,0,1-2.37-.47l-.65-.19-.51-.17.93,0a14.08,14.08,0,0,0,1.92-.24c.5-.09.81-.18.81-.18s-.32,0-.83,0a15.49,15.49,0,0,1-1.88-.13,12.67,12.67,0,0,1-2-.4c-.19,0-.35-.09-.51-.14a9.83,9.83,0,0,0,1.41-.22,9.32,9.32,0,0,0,1.64-.53,6.45,6.45,0,0,0,.66-.33,6.22,6.22,0,0,1-.71.2,9.92,9.92,0,0,1-1.65.2,10.63,10.63,0,0,1-1.81-.07l-.43-.07a6.92,6.92,0,0,0,2-.76,9.77,9.77,0,0,0,1.57-1.1c.39-.33.61-.56.61-.56s-.27.17-.72.39a10.71,10.71,0,0,1-1.71.67,6.91,6.91,0,0,1-1.93.29,5.24,5.24,0,0,1-1.14-.13,11.37,11.37,0,0,0,1.53-.5,11.49,11.49,0,0,0,1.63-.85l.27-.18.2-.15.17-.14-.19.1-.23.11-.29.12a11.44,11.44,0,0,1-3.35.74,6.51,6.51,0,0,0,1.42-.77,7.52,7.52,0,0,0,1.48-1.42,5.09,5.09,0,0,0,.5-.72,5.77,5.77,0,0,1-.64.57,7.15,7.15,0,0,1-1.67,1,6.36,6.36,0,0,1-2,.49,6,6,0,0,1-1,0l.07,0a5.61,5.61,0,0,0,1.47-.81,5.91,5.91,0,0,0,1.07-1,3.61,3.61,0,0,0,.37-.52,4.66,4.66,0,0,1-.46.43,5.57,5.57,0,0,1-1.19.78,5.38,5.38,0,0,1-1.44.5,1.92,1.92,0,0,1-.32,0l-.29,0-.4,0h0a2.89,2.89,0,0,0,.41-.38,8.28,8.28,0,0,0,1.28-1.72,12.21,12.21,0,0,0,.79-1.71c.18-.46.27-.76.27-.76s-.17.27-.46.66a14.93,14.93,0,0,1-1.17,1.39,9,9,0,0,1-1.46,1.24,5.69,5.69,0,0,1-1.07.55l-.57.25a2.83,2.83,0,0,0,.28-.23A6,6,0,0,0,495,578.1a8.45,8.45,0,0,0,.67-1.28c.15-.35.22-.58.22-.58a6,6,0,0,1-.34.51,9.31,9.31,0,0,1-.89,1.08,6.13,6.13,0,0,1-1.16.95,5.09,5.09,0,0,1-.86.43l-.84.33a1.82,1.82,0,0,0-.28.14.24.24,0,0,0-.12.17c0,.06,0,.11.11.17a.63.63,0,0,0,.33.13,1.85,1.85,0,0,0,1-.07.38.38,0,0,0-.09.18.32.32,0,0,0,.11.29,1,1,0,0,0,.19.14l.25.1a2.26,2.26,0,0,0,1.3-.06h0a.33.33,0,0,0-.11.13c-.06.17.1.4.45.62a2.76,2.76,0,0,0,.57.27,3.33,3.33,0,0,0,.26.24l.27.15a1.55,1.55,0,0,0,.32.14l.36.1c.11,0,.22,0,.34,0a1.12,1.12,0,0,0,.26.38,2.22,2.22,0,0,0,.4.31.24.24,0,0,0-.13.08c-.12.14,0,.44.3.82a2.15,2.15,0,0,0,.25.29c.11.1.22.2.34.29l.39.3c.12.08.24.14.37.21h-.1l-.18,0c-.23.06-.36.16-.37.28s.13.23.3.32l.14.06.16.08a1.15,1.15,0,0,0,.17.06l.18.08a2.51,2.51,0,0,1,.27.1l.19.08.21.11a3.33,3.33,0,0,1,.87.72,4.63,4.63,0,0,1,.62.88,4.39,4.39,0,0,1,.21.44,4.1,4.1,0,0,0-.09-.48,5,5,0,0,0-.39-1.08,3.84,3.84,0,0,0-.8-1.06l0,0a5.52,5.52,0,0,0,.53.17,12.17,12.17,0,0,0,1.32.31l.71.11c.23,0,.47.06.71.08a16,16,0,0,0,2.48,0,9,9,0,0,0,1.06-.12S507,586.25,506.31,586.17Z" transform="translate(-357.23 -471.08)"/><path d="M492.81,578a8.13,8.13,0,0,0,.56-1.29,3.25,3.25,0,0,0,.12-.42,1.45,1.45,0,0,0,0-.16l-.07.15c0,.09-.12.22-.22.37a7.51,7.51,0,0,1-.79,1.1,5.15,5.15,0,0,1-1.07.95,3.58,3.58,0,0,1-.81.4l-.27.1.26-.25a6,6,0,0,0,1-1.49,8,8,0,0,0,.52-1.47c.09-.4.12-.66.12-.66a5.78,5.78,0,0,1-.28.6,8.94,8.94,0,0,1-.81,1.25,5.79,5.79,0,0,1-1.14,1.09,4.67,4.67,0,0,1-.88.5c-.33.17-.63.31-.86.45s-.39.28-.38.43.2.28.52.31a2,2,0,0,0,1-.16l.05,0a.81.81,0,0,0,.31.16,1.89,1.89,0,0,0,1.13-.08,3.18,3.18,0,0,0,1-.64A5.16,5.16,0,0,0,492.81,578Z" transform="translate(-357.23 -471.08)"/><path d="M489.65,577.68a3,3,0,0,0,.32-1,3.09,3.09,0,0,0,0-.7c0-.16,0-.25,0-.25a2.25,2.25,0,0,1,0,.25,6.28,6.28,0,0,1-.14.67,3.48,3.48,0,0,1-1.19,1.79,4.63,4.63,0,0,1-2,.82l-.68.1-.26,0,.26,0a3.72,3.72,0,0,0,.69,0,4.72,4.72,0,0,0,1-.16,3.57,3.57,0,0,0,1.16-.57A3.08,3.08,0,0,0,489.65,577.68Z" transform="translate(-357.23 -471.08)"/><path d="M500,586.56a3.19,3.19,0,0,0-.82-.42,1.59,1.59,0,0,0-.38-.09l-.15,0h-.12a.93.93,0,0,0-.34.06.9.9,0,0,0-.26.13c-.13.1-.19.2-.16.27a.33.33,0,0,0,.28.13h.71a1.68,1.68,0,0,1,.31,0,3.12,3.12,0,0,1,.79.19,4.44,4.44,0,0,1,.69.34,2.44,2.44,0,0,1,.28.19,3.16,3.16,0,0,0-.23-.27A3.67,3.67,0,0,0,500,586.56Z" transform="translate(-357.23 -471.08)"/><path d="M499.42,587.41a2.47,2.47,0,0,0-.81-.44,2,2,0,0,0-.37-.09,1.38,1.38,0,0,0-.26,0c-.48,0-.82.24-.77.39s.39.2.77.2a2.7,2.7,0,0,1,1.29.21,2.93,2.93,0,0,1,.64.39,1.72,1.72,0,0,1,.24.23A1.69,1.69,0,0,0,500,588,2.71,2.71,0,0,0,499.42,587.41Z" transform="translate(-357.23 -471.08)"/><path d="M498.64,588.58a4,4,0,0,0-.79-.6l-.39-.18-.28-.07a1.27,1.27,0,0,0-.39,0,.87.87,0,0,0-.31.1c-.16.1-.24.2-.21.28a.34.34,0,0,0,.29.17l.24.05a2.09,2.09,0,0,0,.28,0l.22,0a1.93,1.93,0,0,1,.33.08,4.29,4.29,0,0,1,.82.35,7,7,0,0,1,.7.47,3.65,3.65,0,0,1,.29.23A5.93,5.93,0,0,0,498.64,588.58Z" transform="translate(-357.23 -471.08)"/><path d="M498.07,589.17a3,3,0,0,0-1.15-.63l-.28-.07-.25,0-.36,0a2.89,2.89,0,0,0-.45.06,1.5,1.5,0,0,0-.36.14c-.19.11-.29.23-.27.34s.16.2.36.24a3.07,3.07,0,0,0,.34.05h1.13a2.61,2.61,0,0,1,1.05.28,2.24,2.24,0,0,1,1,1.07,1.65,1.65,0,0,0-.12-.46A2.45,2.45,0,0,0,498.07,589.17Z" transform="translate(-357.23 -471.08)"/><path d="M496.17,589.83a2.73,2.73,0,0,0-.81-.5l-.2-.07-.19,0-.15,0h-.31l-.17,0a.68.68,0,0,0-.27.13c-.14.11-.19.21-.16.29s.15.11.29.12l.23,0h.62l.17,0a2.52,2.52,0,0,1,.78.25,3.28,3.28,0,0,1,.66.43l.27.22a3.13,3.13,0,0,0-.2-.29A3.75,3.75,0,0,0,496.17,589.83Z" transform="translate(-357.23 -471.08)"/><path d="M495.29,590.42a4.65,4.65,0,0,0-1-.51,2.85,2.85,0,0,0-.77-.17,1.45,1.45,0,0,0-.75.2c-.17.13-.24.25-.2.34s.18.14.34.16a5.21,5.21,0,0,0,.6,0,5.91,5.91,0,0,1,.63,0,5.58,5.58,0,0,1,1,.24,8.47,8.47,0,0,1,.86.37,3.72,3.72,0,0,1,.37.2A6.71,6.71,0,0,0,495.29,590.42Z" transform="translate(-357.23 -471.08)"/><path class="cls-7" d="M457.74,573.44c-.79-.47-1.88-1.11-2.63-1.47a11.43,11.43,0,0,1-2.63-.85l.12,0c.07,0,1.49.3,1.86.42-7.52-4-11.2-4.56-15.15-4.58a7.33,7.33,0,0,0-3.55,1.7,10.7,10.7,0,0,1,1.6-.14,12,12,0,0,0-1.94.44,45.34,45.34,0,0,0-4.34,4c.33-.14,2.14-1.2,3.95-2.19a.56.56,0,0,1,0-.12,1.86,1.86,0,0,1,.27-.44,1.77,1.77,0,0,1,.31-.34l.12-.09,0,0a3.48,3.48,0,0,0-.44.83,19.14,19.14,0,0,1,3.51-1.66,12.23,12.23,0,0,1,4.68.8c-.07-.12-.16-.25-.25-.39s-.2-.26-.31-.38-.22-.24-.33-.35l-.31-.26-.23-.18-.09-.06.1,0,.27.1.38.19a3.28,3.28,0,0,1,.43.26,4.46,4.46,0,0,1,.43.33,4.12,4.12,0,0,1,.37.35,3.25,3.25,0,0,1,.44.57l.05.09.51.19c0-.15-.11-.3-.17-.45s-.14-.3-.21-.43a2.87,2.87,0,0,0-.21-.36l-.15-.24-.06-.09.08.07.21.19a4.23,4.23,0,0,1,.3.3c.11.12.22.24.33.38a5.31,5.31,0,0,1,.56.87h0c2.05.77,4.19,1.72,6,2.59-.06-.26-.13-.55-.22-.82a9.37,9.37,0,0,0-.37-1c-.05-.13-.1-.23-.13-.3l-.06-.12.08.1c.06.06.13.15.22.26a7.62,7.62,0,0,1,.62.88,6.78,6.78,0,0,1,.56,1.06l.13.31,1.65.81c-.08-.19-.16-.37-.25-.56a12.32,12.32,0,0,0-.69-1.24s.13.11.32.3a8.92,8.92,0,0,1,.69.74,10.63,10.63,0,0,1,.68.9c.08.12.14.23.2.33l1.57.79C459.16,576.63,460.65,575.14,457.74,573.44Z" transform="translate(-357.23 -471.08)"/><path class="cls-7" d="M477.05,573.41c.79-.47,1.88-1.11,2.63-1.47a11.17,11.17,0,0,0,2.63-.87l-.12,0c-.07,0-1.49.31-1.87.42,7.52-4.06,11.2-4.59,15.15-4.63a7.42,7.42,0,0,1,3.55,1.7,10.7,10.7,0,0,0-1.6-.14,12,12,0,0,1,1.94.44,45.25,45.25,0,0,1,4.35,4c-.33-.15-2.14-1.2-3.95-2.19l-.05-.11a1.87,1.87,0,0,0-.26-.45,2.55,2.55,0,0,0-.32-.33l-.11-.09,0,0a3.54,3.54,0,0,1,.44.82,18.61,18.61,0,0,0-3.51-1.64,12.48,12.48,0,0,0-4.68.81c.08-.12.16-.25.26-.38a2.88,2.88,0,0,1,.3-.39c.11-.13.22-.24.33-.35l.31-.27.23-.17.09-.06-.1,0-.27.1-.38.19a3.28,3.28,0,0,0-.43.26,4.46,4.46,0,0,0-.43.33,4,4,0,0,0-.36.35,3.12,3.12,0,0,0-.44.57l-.05.1-.52.18a4.22,4.22,0,0,1,.18-.45,4.28,4.28,0,0,1,.2-.43c.08-.13.14-.25.21-.36l.15-.24.06-.09-.08.07c-.05,0-.13.11-.21.2l-.3.3a4.29,4.29,0,0,0-.33.38,6.4,6.4,0,0,0-.56.87h0c-2.05.78-4.18,1.73-6,2.6.06-.26.14-.54.22-.81a10.18,10.18,0,0,1,.36-1l.14-.31.05-.11-.08.09c-.05.06-.13.15-.21.26a7.62,7.62,0,0,0-.62.88,8.48,8.48,0,0,0-.56,1.07l-.13.31-1.65.81c.08-.18.16-.37.25-.55a12.69,12.69,0,0,1,.69-1.26l-.32.31a10.56,10.56,0,0,0-1.36,1.65c-.08.11-.15.22-.21.32l-1.56.8C475.64,576.61,474.15,575.12,477.05,573.41Z" transform="translate(-357.23 -471.08)"/><path class="cls-18" d="M461.2,616.81c2.83-.91,10.46-.86,14,.81,12.93,6.17,8.9,10.84,3.7,19.85-1.72,3-17.33,3.74-18,4.5-3.52-3.28-9.39-14.66-9.39-14.66L451,625S457.54,618,461.2,616.81Z" transform="translate(-357.23 -471.08)"/><path class="cls-19" d="M456,630.87c3.43,15.14,16.94,18.25,22.68.22C473.53,627.81,461.85,627.92,456,630.87Z" transform="translate(-357.23 -471.08)"/><path class="cls-20" d="M467.36,622.41c7.71-.08,11-2.55,11-2.55l-4.72-3.81-6.35.58-6.36-.51L456.28,620S459.64,622.41,467.36,622.41Z" transform="translate(-357.23 -471.08)"/><path class="cls-21" d="M472.29,613c-1.6,0-4.22.9-5,.91s-3.41-.83-5-.83-10.82,9.57-11.34,12.19c1.35-.83,9.25-6.85,11.15-6.88,2.3,0,4.23,1,5.19,1h.1c1,0,3.36-1,5.17-1.1,2.55-.07,9.91,6,11.26,6.79C483.27,622.45,473.89,612.94,472.29,613Z" transform="translate(-357.23 -471.08)"/><path d="M472.31,613.51l-.41,0-.18,0-.2,0-.81.11c-.54.07-1.09.17-1.65.27l-.84.17a6.93,6.93,0,0,1-.9.13h-.25l-.24,0-.44-.07-.84-.15c-.55-.09-1.11-.18-1.65-.25s-1.09-.13-1.59-.14h0l-.09,0-.05,0a3.18,3.18,0,0,0-.32.16l-.32.21-.33.24c-.43.32-.86.67-1.28,1-.83.73-1.65,1.5-2.43,2.29-.4.39-.79.79-1.18,1.19s-.77.81-1.15,1.23c-.75.82-1.48,1.67-2.18,2.54-.34.43-.67.88-1,1.34a5.27,5.27,0,0,0-.72,1.39h0l-.45-.31c.61-.43,1.23-.9,1.85-1.36l1.88-1.37c.63-.46,1.26-.9,1.9-1.34s1.3-.87,2-1.29,1.33-.81,2.05-1.17a6.11,6.11,0,0,1,1.16-.47,2.7,2.7,0,0,1,.35-.07h.64l.31,0a11.08,11.08,0,0,1,2.34.53l1.1.38c.18.06.36.12.53.16l.26,0,.25,0h.13l.13,0,.12,0,.13,0,.55-.15,1.1-.36a14.32,14.32,0,0,1,2.3-.57,3.71,3.71,0,0,1,1.29,0,6.64,6.64,0,0,1,1.19.39,16.83,16.83,0,0,1,2.1,1.12c.67.4,1.33.83,2,1.27s1.27.9,1.9,1.36l1.85,1.4.92.71c.31.22.62.47.92.66h0l-.45.31a3.59,3.59,0,0,0-.41-.87,7.88,7.88,0,0,0-.57-.85c-.2-.29-.41-.56-.63-.83s-.44-.54-.67-.81c-.9-1.07-1.86-2.1-2.84-3.1l-.75-.74c-.25-.25-.49-.5-.75-.74-.5-.48-1-1-1.53-1.43l-.79-.68-.81-.65c-.27-.21-.55-.41-.82-.59s-.28-.17-.41-.23l-.1,0-.08,0c-.07,0-.06,0-.07,0Zm0-1.1a1.26,1.26,0,0,1,.44.09l.17.06.14.07c.19.1.35.2.51.3.32.21.61.43.9.66s.56.45.83.69l.8.71q1.57,1.46,3,3c1,1,1.9,2.12,2.78,3.25.22.28.44.56.65.85s.41.59.61.89a9.71,9.71,0,0,1,.56.94,4.68,4.68,0,0,1,.42,1.07h0a.31.31,0,0,1-.24.36.31.31,0,0,1-.21,0h0c-.36-.21-.67-.43-1-.66l-.95-.67-1.89-1.34c-.63-.45-1.26-.88-1.91-1.31s-1.28-.84-1.94-1.23a18.1,18.1,0,0,0-2-1,5.4,5.4,0,0,0-1-.33,3.18,3.18,0,0,0-1,0,18.2,18.2,0,0,0-2.22.45l-1.13.27-.59.13-.15,0-.16,0h-.65l-.32,0-.59-.13-1.12-.29a12.37,12.37,0,0,0-2.2-.38H462a.56.56,0,0,0-.21,0,5.43,5.43,0,0,0-1,.39c-.67.33-1.33.72-2,1.12s-1.3.82-2,1.24L455,622.89l-1.92,1.31c-.64.43-1.26.87-1.95,1.29h0a.31.31,0,0,1-.41-.1.29.29,0,0,1,0-.22h0a4.33,4.33,0,0,1,.3-.88,8,8,0,0,1,.42-.77,15.57,15.57,0,0,1,.95-1.44c.66-.93,1.38-1.81,2.11-2.68.37-.43.75-.86,1.13-1.28s.76-.84,1.16-1.25c.79-.81,1.6-1.61,2.45-2.38.43-.38.87-.75,1.33-1.11.12-.09.23-.18.36-.26l.38-.26a3.45,3.45,0,0,1,.43-.23,2,2,0,0,1,.34-.12.23.23,0,0,1,.11,0h.18a8.31,8.31,0,0,1,1.77.24c.57.13,1.11.29,1.66.44l.81.21.4.08.17,0h.18a4.84,4.84,0,0,0,.76-.13c.27-.07.54-.14.81-.23.54-.15,1.08-.32,1.65-.45a7.7,7.7,0,0,1,.86-.18c.14,0,.29,0,.45-.06l.44,0Z" transform="translate(-357.23 -471.08)"/><path class="cls-21" d="M483.86,625.08a3.16,3.16,0,0,0-.69.9,89.65,89.65,0,0,1-5.74,9.84,11.38,11.38,0,0,1-10.08,4.76h-.06a11.4,11.4,0,0,1-10.06-4.8,96.56,96.56,0,0,1-5.69-9.72,3.12,3.12,0,0,0-.65-.79c-.13,1,0,22.49,16.36,22.74h.1C483,648,484,626.11,483.86,625.08Z" transform="translate(-357.23 -471.08)"/><path d="M483.57,625.91l-.15.23-.09.15-.08.16-.7,1.34c-.47.89-1,1.78-1.46,2.66-1,1.76-2,3.49-3.17,5.17l-.21.32-.22.32c-.14.2-.31.41-.47.62a11.05,11.05,0,0,1-2.27,2.12,10.2,10.2,0,0,1-1.35.8,11.36,11.36,0,0,1-3,1,13.41,13.41,0,0,1-1.55.2c-.51,0-1,0-1.54,0a.47.47,0,0,1-.47-.47h0l.47.47h-.07l.47-.47h0a.46.46,0,0,1-.46.47c-.5,0-1,0-1.53,0a13.26,13.26,0,0,1-1.54-.21,11.59,11.59,0,0,1-2.92-1A10.36,10.36,0,0,1,460,639a12.53,12.53,0,0,1-1.21-1,11.13,11.13,0,0,1-1.05-1.12,13.48,13.48,0,0,1-.9-1.24c-.28-.41-.55-.83-.82-1.25s-.53-.85-.8-1.28-.52-.85-.77-1.29l-.75-1.3c-.49-.87-1-1.75-1.42-2.64l-.69-1.33a3.5,3.5,0,0,0-.82-1.14l.37-.14c0,.13,0,.31,0,.46v.48c0,.33,0,.65,0,1,0,.65.1,1.3.17,1.94A35.19,35.19,0,0,0,452,633a26.31,26.31,0,0,0,2.76,7.22c.33.55.69,1.09,1.07,1.6a13.36,13.36,0,0,0,1.26,1.45,13,13,0,0,0,3,2.26,13.7,13.7,0,0,0,1.71.76c.29.11.59.2.88.29s.6.17.91.23a14,14,0,0,0,1.83.3l.46,0,.47,0c.31,0,.62,0,.93,0h0a.8.8,0,0,1,.77.8h0l-.81-.8h.13l-.82.8h0a.79.79,0,0,1,.78-.8h0c.62,0,1.24,0,1.86-.1a15.71,15.71,0,0,0,1.82-.31,12.89,12.89,0,0,0,3.47-1.35,12.7,12.7,0,0,0,1.57-1.06,13.13,13.13,0,0,0,1.41-1.28,13.41,13.41,0,0,0,1.23-1.48,15.54,15.54,0,0,0,1.06-1.62,23.88,23.88,0,0,0,1.67-3.5,32.66,32.66,0,0,0,1.16-3.72c.15-.63.29-1.27.41-1.91s.23-1.28.31-1.92.15-1.3.19-1.94c0-.33.05-.65.06-1Zm.58-.86a4.67,4.67,0,0,1,0,.53c0,.17,0,.33,0,.5,0,.33-.05.66-.09,1-.07.66-.15,1.31-.26,2s-.21,1.3-.34,1.94-.28,1.29-.43,1.92a35,35,0,0,1-1.16,3.77,25.36,25.36,0,0,1-1.62,3.61c-.31.58-.66,1.15-1,1.7s-.77,1.09-1.19,1.61a17.28,17.28,0,0,1-1.36,1.48,13.94,13.94,0,0,1-1.55,1.31,13.65,13.65,0,0,1-1.75,1.07,14.56,14.56,0,0,1-1.92.78,15.36,15.36,0,0,1-2,.45,17.84,17.84,0,0,1-2.06.15l.8-.8h0v0a.79.79,0,0,1-.79.78h-.09a.8.8,0,0,1-.82-.78v0h0l.79.8a15.57,15.57,0,0,1-2-.16,14.83,14.83,0,0,1-2-.44,13.13,13.13,0,0,1-1.92-.74,13,13,0,0,1-1.78-1,14.91,14.91,0,0,1-1.59-1.26,15.83,15.83,0,0,1-1.4-1.44,18.62,18.62,0,0,1-1.22-1.59c-.38-.54-.72-1.11-1.05-1.68a26.66,26.66,0,0,1-2.71-7.4,36.12,36.12,0,0,1-.66-3.88c-.07-.65-.13-1.3-.17-2,0-.33,0-.66,0-1,0-.16,0-.32,0-.49a4.79,4.79,0,0,1,0-.52.22.22,0,0,1,.24-.2l.12.05v0a3.75,3.75,0,0,1,.93,1.25l.7,1.33c.47.87,1,1.74,1.46,2.6l.75,1.29c.26.43.52.85.79,1.27s.53.84.8,1.26l.83,1.24a11.17,11.17,0,0,0,.88,1.17,9.92,9.92,0,0,0,1,1,9.39,9.39,0,0,0,2.43,1.55,11,11,0,0,0,2.76.82,13.59,13.59,0,0,0,1.43.16c.49,0,1,0,1.46,0l-.46.47h0a.47.47,0,0,1,.46-.47h.08a.47.47,0,0,1,.46.47h0l-.47-.47c.51,0,1,0,1.48,0a11.71,11.71,0,0,0,1.45-.17,10.93,10.93,0,0,0,2.79-.83,9.42,9.42,0,0,0,2.44-1.57,10.11,10.11,0,0,0,1-1c.15-.19.31-.37.46-.58l.22-.3.21-.31c.28-.41.56-.83.83-1.25s.55-.85.81-1.27c.54-.85,1.05-1.72,1.54-2.59s1-1.76,1.44-2.65l.69-1.35.09-.18.1-.17.2-.33a3.29,3.29,0,0,1,.23-.33,1.87,1.87,0,0,1,.31-.32h0a.3.3,0,0,1,.41,0A.27.27,0,0,1,484.15,625.05Z" transform="translate(-357.23 -471.08)"/><path class="cls-1" d="M467.75,642.61a17.91,17.91,0,0,1-6.49-1c-1.67-.76-2.28-.14-1.19.76a9.8,9.8,0,0,0,7.2,1.81C469.58,643.81,470.8,642.18,467.75,642.61Z" transform="translate(-357.23 -471.08)"/><path class="cls-1" d="M462.55,614.51a8.36,8.36,0,0,0-3.15,2.2c-.63.73,0,.9,1.15.23a7.22,7.22,0,0,1,4.63-1.14c2.33.24,1.09-.86.33-1A6.63,6.63,0,0,0,462.55,614.51Z" transform="translate(-357.23 -471.08)"/><g id="nose"><path d="M460,608.78a3.28,3.28,0,0,1-.27-.19l-.3-.24a2.74,2.74,0,0,1-.39-.33,7.41,7.41,0,0,1-.87-1c-.07-.11-.15-.21-.22-.33l-.19-.37a5.09,5.09,0,0,1-.31-.83,4.11,4.11,0,0,1-.15-.87,3.78,3.78,0,0,1,0-.83,3.91,3.91,0,0,1,.16-.73,3.64,3.64,0,0,1,.78-1.34,1.59,1.59,0,0,1,.24-.22s0,.1-.13.29a4.91,4.91,0,0,0-.23.83c0,.17-.06.36-.09.56s0,.42,0,.65,0,.46.06.7.06.24.08.37a2.83,2.83,0,0,0,.09.37,11.46,11.46,0,0,0,1.1,2.51,4.67,4.67,0,0,0,.25.42l.2.33Z" transform="translate(-357.23 -471.08)"/><path d="M470.53,607s0,.12-.07.33a3.52,3.52,0,0,1-.37.87,3,3,0,0,1-2.76,1.49,3.33,3.33,0,0,1-1.72-.54,3.2,3.2,0,0,1-1-1.06,3.32,3.32,0,0,1-.35-.87,1.72,1.72,0,0,1,0-.34,1.64,1.64,0,0,0,.18.28,4.46,4.46,0,0,0,.56.67,3.83,3.83,0,0,0,1,.69,3.78,3.78,0,0,0,1.39.31,3.44,3.44,0,0,0,1.39-.23,3.78,3.78,0,0,0,1-.67,5.66,5.66,0,0,0,.58-.66Z" transform="translate(-357.23 -471.08)"/><path d="M463.09,605.71c-.52-.74-2.33-.92-2.33.55a1.12,1.12,0,0,0,1,1,.89.89,0,0,0,.89-.89.87.87,0,0,0-.09-.4c.46.27.75,1.29.75,1.29A3,3,0,0,0,463.09,605.71Z" transform="translate(-357.23 -471.08)"/><path d="M474.48,609l.14-.29.18-.34a4.19,4.19,0,0,0,.23-.43,11.21,11.21,0,0,0,1-2.58,2.41,2.41,0,0,0,.07-.37c0-.13,0-.25.05-.37a5.67,5.67,0,0,0,0-.71,4.48,4.48,0,0,0-.05-.64c0-.2-.06-.39-.11-.56a5.45,5.45,0,0,0-.29-.81,2.52,2.52,0,0,0-.14-.29,1.48,1.48,0,0,1,.25.21,3.51,3.51,0,0,1,.57.72,4.31,4.31,0,0,1,.29.57,3.79,3.79,0,0,1,.2.72,3.71,3.71,0,0,1,.08.83,2.08,2.08,0,0,1,0,.43,1.76,1.76,0,0,1-.07.45,4.56,4.56,0,0,1-.26.84l-.17.38a2.33,2.33,0,0,1-.2.34,6.88,6.88,0,0,1-.8,1.08,3.07,3.07,0,0,1-.37.36l-.29.25Z" transform="translate(-357.23 -471.08)"/><path d="M471.66,605.63c.51-.75,2.32-1,2.34.51a1.11,1.11,0,0,1-1,1,.89.89,0,0,1-.91-.87.9.9,0,0,1,.09-.4c-.46.28-.73,1.3-.73,1.3A3,3,0,0,1,471.66,605.63Z" transform="translate(-357.23 -471.08)"/><path class="cls-1" d="M470.68,600.23c0,.74-1.51,1.35-3.37,1.35S464,601,464,600.23s1.51-1.35,3.36-1.35S470.68,599.49,470.68,600.23Z" transform="translate(-357.23 -471.08)"/></g></g><g id="arms"><path class="cls-6" d="M438.25,661.82c1.84,10.29-23,59.58-28.45,72.17h42.12c1.15-10.63,6-54.93,7.51-60.31,1.72-6.1,2.84-12.69,1-17.87-2.27-6.23-12.9-20-17.84-25.4a33.55,33.55,0,0,1-5.84-9.49c-3.84-9.09-4.87-19.41-7.42-25-1.22-2.67-2.8-4.24-5.22-4-.93-3.49-1-9.54-4.45-9.16-.76-1.89-.2-4.92-4-5.15-.48,2.56,1.08,44.37,4.9,52.68C423.94,637.75,437.21,656,438.25,661.82Z" transform="translate(-357.23 -471.08)"/><path d="M410.81,734c.32-.74.64-1.48,1-2.22q1.07-2.41,2.18-4.83l4.42-9.64q2.21-4.81,4.4-9.66t4.31-9.7c2.83-6.49,5.59-13,8-19.68q.91-2.5,1.73-5c.54-1.7,1-3.41,1.45-5.16.2-.87.38-1.75.51-2.65a14.82,14.82,0,0,0,.19-2.77l0-.36c0-.12,0-.26,0-.37l0-.16c0-.09,0-.13,0-.19s-.06-.24-.08-.36a13.78,13.78,0,0,0-.43-1.33c-.33-.86-.7-1.68-1.09-2.49-.78-1.61-1.62-3.18-2.49-4.73s-1.76-3.09-2.65-4.62c-1.79-3.06-3.61-6.09-5.43-9.12-.9-1.51-1.81-3-2.68-4.54-.44-.76-.88-1.52-1.29-2.28-.21-.38-.41-.76-.61-1.14s-.38-.76-.56-1.14a16.31,16.31,0,0,1-.79-2.33c-.23-.82-.42-1.66-.59-2.51-.35-1.7-.63-3.43-.88-5.16-.51-3.47-.92-7-1.27-10.48s-.67-7-.93-10.54-.53-7-.75-10.57c-.11-1.76-.21-3.52-.3-5.29l-.11-2.64c0-.44,0-.88,0-1.32v-.65c0-.11,0-.23,0-.33H416l.42.07.4.11.38.16a2.5,2.5,0,0,1,.35.21,1.81,1.81,0,0,1,.3.25,1.86,1.86,0,0,1,.26.31c.08.11.15.23.22.35s.12.25.17.38.09.27.13.41.15.56.21.85a11.45,11.45,0,0,0,.46,1.81l.09.22.24,0a2.08,2.08,0,0,1,1.16.2,2.44,2.44,0,0,1,.87.85,5.8,5.8,0,0,1,.58,1.17q.23.63.39,1.29c.22.88.39,1.78.55,2.69s.33,1.82.57,2.73l.06.23h.27a5,5,0,0,1,1.11.18,3.7,3.7,0,0,1,1,.44,5.32,5.32,0,0,1,1.5,1.56,8.71,8.71,0,0,1,.58,1c.09.17.18.35.26.52l.13.27.12.27c.32.71.59,1.46.85,2.22.5,1.52.93,3.09,1.34,4.66l1.23,4.74c.83,3.16,1.72,6.33,2.83,9.42a49.66,49.66,0,0,0,4.15,8.94,28.66,28.66,0,0,0,2.91,4c1.08,1.23,2.11,2.48,3.13,3.75q3,3.82,5.86,7.82c1.87,2.66,3.69,5.35,5.38,8.11.43.69.84,1.38,1.23,2.08s.77,1.4,1.12,2.11l.26.54.22.52c.08.17.15.37.23.56l.05.14,0,.12.1.27a15.37,15.37,0,0,1,.54,2.25,21,21,0,0,1,.22,4.7,34.88,34.88,0,0,1-.59,4.74c-.29,1.58-.67,3.15-1.09,4.7l-.16.59-.08.32-.08.32c-.09.42-.16.82-.24,1.23-.14.82-.27,1.63-.39,2.44-.49,3.25-.91,6.49-1.32,9.73s-.78,6.49-1.15,9.74-.73,6.49-1.08,9.74l-1,9.75-1,9.75-.47,4.87-.25,2.63h.7l2.11-17.13,2.42-19.44,1.26-9.71c.44-3.23.88-6.46,1.39-9.67.13-.81.26-1.61.41-2.4.08-.39.15-.79.24-1.17l.07-.28.07-.27.16-.59c.44-1.59.83-3.2,1.14-4.83a39.26,39.26,0,0,0,.64-5,23.32,23.32,0,0,0-.22-5.07,16.67,16.67,0,0,0-.6-2.51l-.11-.31,0-.08,0-.09-.05-.14c-.08-.2-.14-.38-.24-.58l-.26-.6-.28-.57a43.6,43.6,0,0,0-2.48-4.32c-1.78-2.78-3.72-5.43-5.72-8s-4.09-5.13-6.22-7.61q-1.59-1.87-3.26-3.68a27.43,27.43,0,0,1-2.93-3.84,39.48,39.48,0,0,1-4-8.82c-1-3.09-1.76-6.26-2.47-9.44-.35-1.59-.69-3.19-1.06-4.79s-.78-3.19-1.29-4.77c-.26-.79-.54-1.58-.88-2.36,0-.1-.09-.19-.13-.29l-.14-.28c-.1-.2-.19-.39-.3-.58a9.23,9.23,0,0,0-.71-1.09,5.54,5.54,0,0,0-2.05-1.75,4,4,0,0,0-2.39-.34c-.2-.79-.34-1.6-.49-2.4s-.33-1.83-.56-2.73c-.12-.46-.25-.91-.41-1.36a6.32,6.32,0,0,0-.65-1.3,3.08,3.08,0,0,0-1.1-1,2.16,2.16,0,0,0-.74-.25,3.12,3.12,0,0,0-.52,0,10.82,10.82,0,0,1-.36-1.49c-.07-.3-.13-.6-.22-.9s-.1-.31-.16-.46a3.49,3.49,0,0,0-.2-.44,2.73,2.73,0,0,0-.26-.43,2.8,2.8,0,0,0-.32-.38,3.09,3.09,0,0,0-.39-.33,3.69,3.69,0,0,0-.89-.44,2.52,2.52,0,0,0-.47-.13,3.55,3.55,0,0,0-.47-.08c-.16,0-.31,0-.47,0h0l-.28,0-.05.29a6.26,6.26,0,0,0-.08.7c0,.22,0,.45,0,.67,0,.45,0,.89-.06,1.33,0,.89,0,1.78,0,2.66,0,1.78,0,3.55,0,5.32,0,3.54.16,7.08.31,10.62s.36,7.08.64,10.61.6,7.08,1.06,10.61c.24,1.77.5,3.53.84,5.3.17.88.36,1.77.59,2.66a17.81,17.81,0,0,0,.9,2.7,50.19,50.19,0,0,0,2.57,4.76c.93,1.53,1.86,3,2.83,4.53,1.92,3,3.89,5.91,5.81,8.87a105.34,105.34,0,0,1,5.4,9.05c.39.77.76,1.56,1.07,2.35a6.88,6.88,0,0,1,.56,2.37,13.52,13.52,0,0,1-.17,2.52c-.12.85-.3,1.7-.49,2.55-.4,1.7-.89,3.38-1.42,5.06s-1.1,3.34-1.7,5c-1.2,3.32-2.51,6.59-3.86,9.85s-2.74,6.51-4.18,9.73-2.9,6.45-4.38,9.66-3,6.4-4.5,9.59l-4.58,9.57q-1.14,2.4-2.27,4.81c-.38.8-.75,1.6-1.12,2.42l-.23.54Z" transform="translate(-357.23 -471.08)"/><path class="cls-7" d="M424.41,592l.17,1.31c.11.83.27,2,.47,3.45s.43,3.1.71,4.88c.14.89.29,1.81.44,2.74s.32,1.88.48,2.83.34,1.89.51,2.82.35,1.84.52,2.72.35,1.74.52,2.55.33,1.57.48,2.27l.44,1.92c.13.57.25,1.06.35,1.47l.32,1.28h0a.31.31,0,0,1-.23.38.33.33,0,0,1-.38-.21l-.11-.33c-.07-.21-.18-.53-.3-.93s-.28-.9-.45-1.46-.34-1.21-.53-1.91-.39-1.46-.58-2.27-.39-1.66-.58-2.55-.38-1.8-.56-2.74c-.09-.46-.17-.94-.25-1.41l-.25-1.43c-.16-1-.32-1.9-.46-2.84s-.27-1.87-.39-2.77c-.23-1.8-.42-3.47-.57-4.91-.07-.72-.13-1.39-.18-2s-.09-1.1-.13-1.52c-.06-.84-.08-1.33-.08-1.33a.31.31,0,0,1,.3-.33A.31.31,0,0,1,424.41,592Z" transform="translate(-357.23 -471.08)"/><path class="cls-7" d="M419.83,582.3s.2,2.59.51,6.46c.08,1,.17,2,.26,3.13s.2,2.28.3,3.49.23,2.45.35,3.72.24,2.56.38,3.85.26,2.58.41,3.84.28,2.51.43,3.72c.3,2.4.6,4.65.9,6.56l.22,1.37c.07.44.14.85.21,1.24.14.78.26,1.45.37,2s.19,1,.26,1.28l.09.46h0a.3.3,0,0,1-.24.37.31.31,0,0,1-.37-.23l-.12-.45c-.08-.29-.2-.73-.32-1.28s-.29-1.23-.46-2-.35-1.65-.52-2.61-.35-2-.53-3.1-.36-2.27-.52-3.48-.33-2.45-.48-3.73-.29-2.56-.43-3.85-.25-2.58-.36-3.86-.21-2.52-.3-3.74-.17-2.39-.24-3.5-.12-2.17-.18-3.14c-.11-1.94-.16-3.57-.2-4.7s-.05-1.79-.05-1.79a.32.32,0,0,1,.63,0Z" transform="translate(-357.23 -471.08)"/><path class="cls-22" d="M424.28,588.76s2.28-.28,2.83,4.83c.11,1.63.57,5.25-2,5.25C424.28,595.35,424.28,588.76,424.28,588.76Z" transform="translate(-357.23 -471.08)"/><path class="cls-22" d="M419.87,579.09s1.64-.79,2.3,4.67c.11,1.63.57,4.24-2,4.24C419.33,584.51,419.87,579.09,419.87,579.09Z" transform="translate(-357.23 -471.08)"/><path class="cls-22" d="M415.62,573.69s1.94-.48,2.2,5c0,1.64.59,4.34-1.95,4.15A51.14,51.14,0,0,1,415.62,573.69Z" transform="translate(-357.23 -471.08)"/><path class="cls-6" d="M483.11,734h42.26c-5.09-11.77-29.58-59.7-29-72.34.26-5.88,14.17-24.15,17.55-31.6,3.78-8.34,5.09-50.15,4.59-52.71-3.81.25-3.23,3.28-4,5.17-3.46-.35-3.49,5.69-4.4,9.19-2.42-.21-4,1.36-5.2,4-2.52,5.56-3.49,15.89-7.28,25a33.3,33.3,0,0,1-5.78,9.52c-4.91,5.47-15.46,19.27-17.68,25.51-1.86,5.19-.7,11.06,1.06,17.16C476.79,678.31,481.92,723.45,483.11,734Z" transform="translate(-357.23 -471.08)"/><path d="M473.21,668.46c.36,1.62.79,3.23,1.24,4.79.1.35.18.75.26,1.14s.16.78.23,1.18c.15.8.28,1.6.41,2.4.51,3.21,1,6.44,1.41,9.68l1.31,9.7,2.5,19.43L482.76,734h.7l-.26-2.72-.5-4.87-1-9.75-1.07-9.74c-.36-3.25-.74-6.49-1.12-9.74s-.77-6.49-1.19-9.73-.85-6.48-1.34-9.72c-.12-.82-.25-1.63-.39-2.44-.07-.41-.14-.81-.22-1.22s-.17-.82-.29-1.26c-.44-1.58-.86-3.12-1.19-4.7a34.5,34.5,0,0,1-.72-4.72,19.76,19.76,0,0,1,.17-4.68,14.19,14.19,0,0,1,.54-2.25l.09-.27,0-.12.05-.15c.08-.18.15-.39.22-.56l.23-.52.25-.54c.35-.71.72-1.42,1.11-2.11s.79-1.4,1.21-2.1c1.68-2.76,3.48-5.47,5.34-8.13s3.8-5.3,5.81-7.86c1-1.28,2-2.53,3.11-3.76a28.2,28.2,0,0,0,2.88-4,49,49,0,0,0,4.1-9c1.09-3.1,2-6.27,2.78-9.43l1.2-4.75c.41-1.58.82-3.14,1.32-4.67.25-.76.52-1.51.83-2.23l.12-.26.13-.28c.08-.17.16-.34.25-.51a9.53,9.53,0,0,1,.58-1,5.33,5.33,0,0,1,1.49-1.57,4.09,4.09,0,0,1,1-.45,5,5,0,0,1,1.11-.18l.33-.23c.24-.92.39-1.83.55-2.74s.32-1.81.53-2.69q.17-.66.39-1.29a5.85,5.85,0,0,1,.57-1.18,2.52,2.52,0,0,1,.87-.85,1.87,1.87,0,0,1,1.15-.2l.24,0,.09-.22a11.67,11.67,0,0,0,.45-1.81c.06-.29.12-.58.2-.86s.09-.27.14-.4a2.3,2.3,0,0,1,.17-.39,2.5,2.5,0,0,1,.21-.35,1.81,1.81,0,0,1,.25-.3,1.86,1.86,0,0,1,.31-.26,2.39,2.39,0,0,1,.34-.21,3.08,3.08,0,0,1,.38-.16,2.75,2.75,0,0,1,.41-.11,2.61,2.61,0,0,1,.42-.08h.12c0,.1,0,.22,0,.33v.65l0,1.32-.1,2.64c-.08,1.77-.17,3.53-.26,5.29-.21,3.53-.42,7.05-.69,10.57s-.55,7-.88,10.55-.71,7-1.2,10.49c-.24,1.73-.51,3.46-.85,5.16-.17.85-.35,1.7-.57,2.52a16.32,16.32,0,0,1-.78,2.33c-.18.39-.36.75-.56,1.13s-.4.76-.61,1.14c-.41.76-.85,1.51-1.3,2.27-.88,1.51-1.81,3-2.72,4.51-1.85,3-3.7,6-5.5,9.08-.9,1.53-1.8,3.07-2.65,4.63s-1.7,3.14-2.44,4.78a24.47,24.47,0,0,0-1,2.55,11.59,11.59,0,0,0-.33,1.38,6.32,6.32,0,0,0-.06.74c0,.21,0,.48,0,.7a28,28,0,0,0,.84,5.37,99.33,99.33,0,0,0,3.2,10.18c2.43,6.67,5.2,13.19,8,19.68q2.13,4.86,4.34,9.69t4.43,9.64l4.45,9.63c.73,1.61,1.47,3.21,2.19,4.82.36.8.72,1.61,1.06,2.41l0,.12h2.15c-.14-.3-.27-.61-.41-.91-.37-.81-.75-1.61-1.13-2.41-.75-1.61-1.52-3.2-2.29-4.8L518,716.33q-2.29-4.79-4.55-9.58c-1.49-3.2-3-6.41-4.41-9.63s-2.85-6.46-4.21-9.72-2.67-6.53-3.88-9.84a97.44,97.44,0,0,1-3.16-10,26.53,26.53,0,0,1-.8-5.09c0-.22,0-.4,0-.63a3.79,3.79,0,0,1,.05-.58,7.68,7.68,0,0,1,.3-1.19,19.1,19.1,0,0,1,1-2.38,82.82,82.82,0,0,1,5.32-9.06c1.93-3,3.93-5.86,5.88-8.82,1-1.48,1.93-3,2.87-4.5a48.36,48.36,0,0,0,2.6-4.78,18.84,18.84,0,0,0,.88-2.7c.22-.89.4-1.77.57-2.66.33-1.77.58-3.54.81-5.31.44-3.53.74-7.07,1-10.61s.43-7.07.58-10.61.22-7.08.25-10.63c0-1.77,0-3.54,0-5.31,0-.89,0-1.77-.06-2.66,0-.45,0-.89-.06-1.33,0-.23,0-.45,0-.68a6.72,6.72,0,0,0-.09-.7l0-.29-.28,0h0a3.75,3.75,0,0,0-.47.05l-.47.08a3.64,3.64,0,0,0-.47.14,2.62,2.62,0,0,0-.46.19,3.7,3.7,0,0,0-.43.25,3.9,3.9,0,0,0-.38.33,3.09,3.09,0,0,0-.33.39,3.7,3.7,0,0,0-.25.43,3.49,3.49,0,0,0-.2.44,4.11,4.11,0,0,0-.15.46c-.09.3-.15.61-.21.9a13.16,13.16,0,0,1-.36,1.5,2.3,2.3,0,0,0-.52,0,2.42,2.42,0,0,0-.74.26,3.11,3.11,0,0,0-1.1,1.06,6.23,6.23,0,0,0-.63,1.3c-.16.45-.29.9-.41,1.36-.22.91-.38,1.82-.54,2.73s-.28,1.62-.47,2.41a4.07,4.07,0,0,0-2.39.35,5.55,5.55,0,0,0-2,1.76,8.58,8.58,0,0,0-.71,1.1c-.1.19-.2.38-.29.58l-.14.28c-.05.1-.08.2-.13.29-.33.78-.61,1.57-.87,2.36-.5,1.59-.89,3.19-1.25,4.79s-.7,3.2-1,4.79c-.69,3.19-1.42,6.36-2.41,9.45a40,40,0,0,1-4,8.85,28.27,28.27,0,0,1-2.91,3.86c-1.1,1.2-2.19,2.44-3.24,3.69q-3.18,3.75-6.17,7.65c-2,2.61-3.92,5.27-5.68,8.06a47.16,47.16,0,0,0-2.46,4.34l-.27.57-.26.6c-.09.21-.15.39-.23.58l-.05.14,0,.1,0,.07-.11.31a18.28,18.28,0,0,0-.59,2.51,21.73,21.73,0,0,0-.16,5.09A36.94,36.94,0,0,0,473.21,668.46Z" transform="translate(-357.23 -471.08)"/><path class="cls-7" d="M510.4,591.78s0,.48-.08,1.32c0,.43-.07.94-.12,1.52s-.09,1.25-.17,2c-.14,1.45-.32,3.13-.54,4.92-.11.9-.24,1.83-.37,2.77s-.29,1.9-.44,2.85l-.24,1.43c-.08.47-.16,1-.25,1.41-.18.94-.35,1.86-.54,2.74s-.37,1.75-.56,2.56-.39,1.57-.57,2.27-.35,1.35-.52,1.91-.31,1.06-.44,1.46-.23.72-.3.94l-.11.33a.32.32,0,0,1-.61-.17h0l.3-1.28c.1-.41.22-.91.34-1.48l.43-1.91c.15-.71.31-1.47.47-2.28s.34-1.66.51-2.55.34-1.79.51-2.72.33-1.88.49-2.83.31-1.9.46-2.83.28-1.85.42-2.75c.27-1.78.5-3.44.69-4.88s.34-2.62.44-3.45l.16-1.31a.32.32,0,0,1,.63,0Z" transform="translate(-357.23 -471.08)"/><path class="cls-7" d="M514.93,582.05s0,.65,0,1.79-.08,2.76-.17,4.7c-.05,1-.11,2-.17,3.14s-.12,2.29-.21,3.5-.18,2.47-.28,3.75-.22,2.56-.34,3.86-.26,2.58-.41,3.85-.29,2.52-.45,3.73-.33,2.38-.5,3.48S512,616,511.84,617s-.34,1.84-.5,2.62-.31,1.45-.44,2-.25,1-.32,1.29l-.12.45a.31.31,0,0,1-.38.23.32.32,0,0,1-.23-.37h0l.09-.45c.06-.3.15-.73.25-1.29s.23-1.23.36-2c.06-.39.13-.8.2-1.24s.14-.9.21-1.38c.3-1.91.58-4.16.86-6.57.15-1.2.28-2.45.42-3.71s.26-2.56.38-3.85.25-2.57.36-3.84.22-2.52.32-3.73.2-2.38.29-3.49l.24-3.13c.28-3.88.47-6.46.47-6.46a.3.3,0,0,1,.34-.29A.32.32,0,0,1,514.93,582.05Z" transform="translate(-357.23 -471.08)"/><path class="cls-22" d="M509.89,588.51s-2.29-.27-2.81,4.84c-.09,1.64-.54,5.26,2,5.25C509.93,595.1,509.89,588.51,509.89,588.51Z" transform="translate(-357.23 -471.08)"/><path class="cls-22" d="M514.24,578.81s-1.65-.78-2.28,4.69c-.09,1.63-.53,4.24,2,4.23C514.81,584.23,514.24,578.81,514.24,578.81Z" transform="translate(-357.23 -471.08)"/><path class="cls-22" d="M518.45,573.39s-1.94-.47-2.17,5c0,1.64-.56,4.34,2,4.14A50.8,50.8,0,0,0,518.45,573.39Z" transform="translate(-357.23 -471.08)"/></g><g id="inscription"><g id="_1" data-name="1"><polygon class="cls-1" points="61.04 76.02 47.42 93.32 45.14 77.36 22.43 94.33 27.16 72.97 2.49 79.05 18.15 57.59 0 44.77 31.25 35.81 20.82 12.56 50.35 21.51 56.24 5.09 68.82 15.34 93.9 0 92.45 16.33 117.16 8.28 100.06 34.6 127.98 46.5 100.99 53.18 110.88 65.87 85.65 66.53 86.96 83.51 61.04 76.02"/><polygon class="cls-8" points="81.59 77.06 60.6 72.24 50.01 84.5 47.88 72.24 29.06 83 33 67.93 12.67 72.01 23.47 57.38 9.38 45.89 35.31 37.57 30.25 19.7 51.54 25.43 57.63 11.9 68.2 20.53 88.85 7.9 87.57 22.2 106.49 14.87 95.58 35.9 114.46 45.76 95.62 51.64 102.34 61.65 81.57 62.81 81.59 77.06"/><path class="cls-7" d="M440.29,550,417.7,543.9l.59-.19L407.7,556l-.83,1-.22-1.25-2.13-12.25.89.41L386.81,555l-2.28,1.37.74-2.54,4.38-15,.7.74-20.14,5L366,545.69l2.68-3.53,11-14.47.23,1.79-13.65-12-.81-.71,1-.33,25.93-8.31-.39.73-6.12-17.58-1.08-3.11,3.15,1,21,6.79-.7.33,5.7-13.7.53-1.29,1.05.91,10.3,9-.69,0,20.49-12.88,1.45-.91-.09,1.75-.74,14.35L444.29,492l19.22-6.55,1.44-.49-.69,1.32-10.92,21-.25-.81,19.41,8.86,4.4,2-4.69,1.18L453,523.3l.32-.91,7.33,9.59,1.55,2-2.58,0-20.81.43.57-.6Zm-2.75-3.45.67-12.61,0-.55.53-.05,20.73-1.89-1,2.07-6.11-10.41-.37-.64.69-.27,18.51-7-.29,3.19-18.36-10.87-.51-.3.26-.5,10.92-21,.74.84-18.62,8.1-2.25,1,.31-2.44,1.81-14.25,1.36.84-20.8,12.38-.36.21-.33-.26-10.85-8.28,1.59-.38-6.48,13.35-.21.44-.49-.11L387,492.42l2.07-2.1,4,18.17.13.57-.52.17-25.93,8.31.19-1,14.54,11,1,.73-.75,1L371.16,544l-1.56-2.47,20.51-3.12.9-.14-.2.88-3.5,15.18-1.54-1.18,19-10.36.75-.41.14.82,2.13,12.26-1-.29,10.59-12.26.23-.26.36.07Z" transform="translate(-357.23 -471.08)"/><path class="cls-9" d="M377.56,518.17a135.56,135.56,0,0,1,17.05,17.28c-.09-3.79,0-7.62.28-11.45q3.63,4.32,6.8,8.86a106.89,106.89,0,0,1,6-24.74c-1.84.1-3.67.26-5.51.47a104.5,104.5,0,0,0-3.85,14.2q-3.11-2.89-6.54-5.59-.54,3.48-.86,6.94-4.11-4.5-8.72-8.7C380.66,516.31,379.09,517.22,377.56,518.17Z" transform="translate(-357.23 -471.08)"/><path d="M378.5,518.14A132.65,132.65,0,0,1,395.18,535l-1.29.49A108.24,108.24,0,0,1,394.5,524c0-.31.07-.62.1-.93l.62.7q3.73,4.25,7,8.74l-1.14.29A107.13,107.13,0,0,1,407,508l.76.69c-1.83,0-3.66.1-5.49.22l.42-.28a109,109,0,0,0-3.49,14.21c-.1.53-.19,1.07-.27,1.61l-1.15-1.17q-3-3-6.24-5.82l.74-.27c-.29,2.31-.5,4.62-.65,6.92l-.09,1.61-1.06-1.21q-4-4.54-8.55-8.81l.54,0C381.11,516.5,379.79,517.31,378.5,518.14Zm-1.92,0c1.8-1.06,3.62-2.07,5.49-3l.33-.17.21.18q4.69,4.14,8.88,8.6l-1.16.4q.42-3.48,1.08-7c0-.23.09-.47.13-.7l.61.43c2.39,1.7,4.67,3.49,6.84,5.34l-1.42.45a100.26,100.26,0,0,1,4.21-14.19l.09-.24.34-.05q2.75-.44,5.52-.71l1.06-.1-.3.79a107.66,107.66,0,0,0-6.19,24.69c-.07.57-.13,1.13-.2,1.7q-.45-.71-.93-1.41-3.07-4.59-6.6-9l.72-.23q-.24,5.75,0,11.43c0,.75.07,1.49.12,2.23l-1.4-1.74A137.87,137.87,0,0,0,376.58,518.17Z" transform="translate(-357.23 -471.08)"/><path class="cls-9" d="M412.63,503.91c-6.5,1.85-10.31,8-6.44,16.59,3,6.69,7.27,10.94,12.26,8.88,4.15-1.67,6.48-7.81,6.5-15C425,505.59,421.19,501.58,412.63,503.91Zm4.15,19.73c-4.84,1.31-8.61-12.5-2.4-14.21C420.77,508,420.71,522.82,416.78,523.64Z" transform="translate(-357.23 -471.08)"/><path d="M412.87,504.6l-.28.08-.35.11-.4.15a11,11,0,0,0-2.52,1.35,8.89,8.89,0,0,0-2.67,3,9.9,9.9,0,0,0-1.16,4.43,15.81,15.81,0,0,0,.79,5.06,24.79,24.79,0,0,0,2.31,5.2,17.79,17.79,0,0,0,1.74,2.44,11.49,11.49,0,0,0,2.23,2.06,6.24,6.24,0,0,0,2.81,1.07,6.15,6.15,0,0,0,3-.48,6.65,6.65,0,0,0,2.49-1.77,11.08,11.08,0,0,0,1.69-2.62,20.73,20.73,0,0,0,1.71-5.86,25.7,25.7,0,0,0,.19-5.64,17,17,0,0,0-1-4.92,6.85,6.85,0,0,0-2.62-3.45,5.57,5.57,0,0,0-2-.8,8.18,8.18,0,0,0-2-.13,15.65,15.65,0,0,0-3,.46c-.35.07-.61.15-.79.2l-.27.08Zm-.46-1.39.32-.08c.21-.06.51-.14.93-.23a13.52,13.52,0,0,1,3.58-.27,9.08,9.08,0,0,1,4.61,1.49,7.37,7.37,0,0,1,2.74,3.86,19.52,19.52,0,0,1,.8,5.1,26.79,26.79,0,0,1-.33,5.78,22.33,22.33,0,0,1-1.87,6.07,12.25,12.25,0,0,1-1.85,2.8,8.09,8.09,0,0,1-1.27,1.14,6.76,6.76,0,0,1-.72.46l-.39.2-.36.16a9.64,9.64,0,0,1-1.63.45,6,6,0,0,1-1.69.06,7.22,7.22,0,0,1-3.15-1.14,12.33,12.33,0,0,1-2.49-2.09,19.39,19.39,0,0,1-1.94-2.46,27.64,27.64,0,0,1-2.73-5.2,16.1,16.1,0,0,1-1.17-5.25,10.06,10.06,0,0,1,1-5,10.76,10.76,0,0,1,3.16-3.71,13.18,13.18,0,0,1,3.17-1.75l.56-.21.36-.12.29-.09Z" transform="translate(-357.23 -471.08)"/><path d="M416.88,524.37l-.11,0-.13,0-.29,0a3.51,3.51,0,0,1-1.54-.26,4.65,4.65,0,0,1-1.66-1.2,8.28,8.28,0,0,1-1.31-2,12.77,12.77,0,0,1-1.28-5.53,8.92,8.92,0,0,1,.59-3.35,5.86,5.86,0,0,1,1-1.72,4.25,4.25,0,0,1,2.12-1.31h.17l.14,0L415,509a3.65,3.65,0,0,1,.66,0,3.14,3.14,0,0,1,1.15.28,3.82,3.82,0,0,1,1.48,1.18,7.69,7.69,0,0,1,1.31,2.92,15.84,15.84,0,0,1,.39,2.91,19.16,19.16,0,0,1-.09,2.66,12.55,12.55,0,0,1-.45,2.29,10,10,0,0,1-.74,1.83,2.72,2.72,0,0,1-1.14,1.09,3.42,3.42,0,0,1-.44.18l-.16,0Zm-.24-1.45.23-.07a2.28,2.28,0,0,0,.68-.44,3.36,3.36,0,0,0,.85-1.37,12.25,12.25,0,0,0,.47-2.11,15,15,0,0,0,.13-2.56,14.55,14.55,0,0,0-.37-2.79,7.14,7.14,0,0,0-1.23-2.71,3.3,3.3,0,0,0-1.22-1,2.62,2.62,0,0,0-1.74-.12,3.15,3.15,0,0,0-1.55.95,4.38,4.38,0,0,0-.85,1.49,8.17,8.17,0,0,0-.35,3.1,11.43,11.43,0,0,0,.54,2.77,12,12,0,0,0,1,2.29,8.28,8.28,0,0,0,1.2,1.65,3.49,3.49,0,0,0,1.17.83,1.66,1.66,0,0,0,.78.12h.09l.13,0,.11,0Z" transform="translate(-357.23 -471.08)"/><path class="cls-9" d="M417.16,504.22a225.39,225.39,0,0,1,13.91,19.17,90.17,90.17,0,0,1,1.19-12.5,97.63,97.63,0,0,1,8.53,9.3,113,113,0,0,1,4.37-24.86c-1.67.25-3.34.54-5,.88a115.44,115.44,0,0,0-2.46,14.13,85.47,85.47,0,0,0-7.21-5.13c-.67,2.47-1.22,5-1.66,7.42q-3-5.5-6.29-10.92Q419.82,502.88,417.16,504.22Z" transform="translate(-357.23 -471.08)"/><path d="M418.26,504.3a228.25,228.25,0,0,1,13.28,18.79l-1,.31a87.86,87.86,0,0,1,1.34-12.52c.05-.25.1-.5.14-.75l.57.51a95.89,95.89,0,0,1,8.69,9.18l-1.06.35a114.25,114.25,0,0,1,4.05-24.92l1,.73c-1.68.14-3.36.33-5,.56l.39-.31a118.37,118.37,0,0,0-2.19,14.11c0,.48-.09,1-.12,1.44l-1.12-1a87.52,87.52,0,0,0-7-5.32l.71-.27c-.64,2.47-1.17,4.95-1.59,7.42-.08.48-.16,1-.23,1.46l-.69-1.25q-3-5.52-6.26-10.93l.55.09Q420.44,503.1,418.26,504.3Zm-2.25-.2c2.11-1,4.24-1.88,6.41-2.7l.4-.15.15.26q3.27,5.4,6.31,10.9l-.92.21q.69-3.72,1.72-7.43c.05-.2.11-.39.16-.59l.55.32a82.2,82.2,0,0,1,7.45,4.94l-1.26.48a109.61,109.61,0,0,1,2.73-14.15l.06-.22.33-.09c1.63-.44,3.29-.85,4.95-1.2l1.33-.28c-.11.34-.22.68-.32,1a111.59,111.59,0,0,0-4.68,24.79c0,.53-.07,1-.1,1.58-.31-.42-.63-.83-.95-1.24a102.25,102.25,0,0,0-8.38-9.41l.7-.24a93,93,0,0,0-1,12.5c0,.61,0,1.23,0,1.84l-1-1.54A221.66,221.66,0,0,0,416,504.1Z" transform="translate(-357.23 -471.08)"/><path class="cls-9" d="M442.23,487.1a56.58,56.58,0,0,1,12.08-3.38,67.88,67.88,0,0,0-2.25,26.77c-.91.38-1.79.8-2.66,1.26A164.44,164.44,0,0,1,442.23,487.1Z" transform="translate(-357.23 -471.08)"/><path d="M441.58,487a57.1,57.1,0,0,1,12.61-3.83l1.39-.24c-.08.26-.17.52-.25.78a65.87,65.87,0,0,0-2.93,26.72c0,.08,0,.16,0,.24l-.24.12c-.86.46-1.7.95-2.51,1.49l-.57.38c-.09-.23-.17-.46-.26-.68A149.16,149.16,0,0,1,441.58,487Zm1.31.2A183.82,183.82,0,0,0,450,511.53l-.84-.32c.92-.39,1.86-.73,2.8-1l-.21.37a70.2,70.2,0,0,1,1.57-26.8l1.14.52A57.33,57.33,0,0,0,442.89,487.21Z" transform="translate(-357.23 -471.08)"/><path class="cls-9" d="M453.25,515a2.36,2.36,0,0,1-1.53,2.45,2.16,2.16,0,0,1-2.39-1.55,2.09,2.09,0,0,1,1.56-2.73A1.91,1.91,0,0,1,453.25,515Z" transform="translate(-357.23 -471.08)"/><path d="M453.83,515s0,0,0,.14,0,.26-.07.45a3.8,3.8,0,0,1-.25.67,3.25,3.25,0,0,1-.52.79,2.33,2.33,0,0,1-.93.67,1.89,1.89,0,0,1-.31.1l-.12,0-.17,0a1.81,1.81,0,0,1-.66-.06,3,3,0,0,1-1.18-.61,2.62,2.62,0,0,1-.46-.48,2.79,2.79,0,0,1-.35-.59,1.49,1.49,0,0,1-.11-.28c0-.12-.06-.24-.08-.35a2.11,2.11,0,0,1,0-.71,2.44,2.44,0,0,1,.78-1.45,2.88,2.88,0,0,1,.86-.55,3.41,3.41,0,0,1,1-.25h.29l.24,0a3,3,0,0,1,.43.07,2.45,2.45,0,0,1,.67.3,2.07,2.07,0,0,1,.72.78,2.36,2.36,0,0,1,.23.68,1.62,1.62,0,0,1,0,.45V515Zm-1.16.09,0-.11a1.43,1.43,0,0,0-.1-.29,1.53,1.53,0,0,0-.75-.77,1.24,1.24,0,0,0-.31-.1,1,1,0,0,0-.17,0h-.13a1.29,1.29,0,0,0-.38.07,1.56,1.56,0,0,0-.35.2,1.64,1.64,0,0,0-.53.74,1.79,1.79,0,0,0-.1.47v.22c0,.07,0,.19,0,.27a1.89,1.89,0,0,0,.41.84,1.7,1.7,0,0,0,.74.52,1.55,1.55,0,0,0,.4.06h.09l.14,0,.17-.06a1.07,1.07,0,0,0,.32-.2,1.49,1.49,0,0,0,.23-.27,1.86,1.86,0,0,0,.27-.6,2.59,2.59,0,0,0,.07-.5,2.69,2.69,0,0,0,0-.31l0-.14Z" transform="translate(-357.23 -471.08)"/></g></g></g></svg>