<?xml version="1.0"?>
<svg xmlns="http://www.w3.org/2000/svg" viewBox="0 -1 512.0002 512" width="512px" height="512px"><path d="m512 337.503906v-337.503906h-357.152344v301.898438c-13.441406-.054688-25.90625 5.261718-35.09375 14.101562l-41.429687-26.300781c2.363281-1.589844 4.617187-3.378907 6.722656-5.386719 20.09375-19.140625 20.867187-51.0625 1.722656-71.15625-19.140625-20.09375-51.0625-20.867188-71.15625-1.722656-9.730469 9.273437-15.273437 21.78125-15.597656 35.21875-.328125 13.441406 4.601563 26.203125 13.875 35.9375 3.285156 3.445312 6.984375 6.359375 10.976563 8.707031l80.4375 51.066406c-.304688 1.535157-.550782 3.097657-.714844 4.6875-.683594 6.628907-.066406 13.195313 1.765625 19.402344l-81.019531 51.433594.007812.011719c-3.5625 2.207031-6.90625 4.894531-9.929688 8.070312-19.144531 20.09375-18.367187 52.011719 1.726563 71.15625 9.726563 9.269531 22.222656 13.867188 34.703125 13.867188 13.296875 0 26.578125-5.226563 36.453125-15.589844 19.140625-20.09375 18.367187-52.015625-1.726563-71.160156-2.128906-2.027344-4.398437-3.816407-6.761718-5.398438l43.238281-27.453125c7.507813 6.082031 16.609375 9.875 26.441406 10.890625 1.761719.183594 3.515625.269531 5.261719.269531 3.046875 0 6.0625-.28125 9.019531-.820312 51.386719 34.328125 118.667969 55.246093 121.613281 56.152343l92.644532 28.492188-174.796875-120.988281c.699219-2.601563 1.207031-5.273438 1.488281-8.003907.652344-6.308593.089844-12.464843-1.476562-18.25l2.355468-1.628906zm-447.644531-74.910156c-3.933594 3.746094-9.085938 5.738281-14.515625 5.601562-3.378906-.082031-6.609375-.976562-9.46875-2.589843l-1.773438-1.125c-1.066406-.757813-2.066406-1.617188-2.988281-2.585938-3.746094-3.929687-5.734375-9.085937-5.601563-14.515625.128907-5.429687 2.367188-10.480468 6.300782-14.226562 3.929687-3.742188 8.976562-5.601563 14.019531-5.601563 5.371094 0 10.734375 2.109375 14.722656 6.296875 7.730469 8.117188 7.421875 21.011719-.695312 28.746094zm2.21875 212.113281c-7.730469 8.117188-20.628907 8.429688-28.742188.695313-8.117187-7.730469-8.429687-20.625-.699219-28.742188 3.992188-4.1875 9.351563-6.296875 14.726563-6.296875 5.039063 0 10.089844 1.859375 14.019531 5.601563 8.117188 7.730468 8.425782 20.628906.695313 28.742187zm383.511719-444.707031h31.914062v20.976562h-31.914062zm0 50.976562h31.914062v20.976563h-31.914062zm0 50.976563h31.914062v20.976563h-31.914062zm0 50.980469h31.914062v20.976562h-31.914062zm0 50.976562h31.914062v20.976563h-31.914062zm0 50.976563h31.914062v22.617187h-31.914062zm-203.324219-254.886719h173.324219v122.929688h-173.324219zm173.324219 152.933594v124.570312h-171.148438l129.089844-89.351562-92.644532 28.496094c-1.386718.425781-17.0625 5.296874-38.621093 13.917968v-77.632812zm-235.238282-152.933594h31.914063v20.976562h-31.914063zm0 50.976562h31.914063v20.976563h-31.914063zm0 50.976563h31.914063v20.976563h-31.914063zm0 50.980469h31.914063v20.976562h-31.914063zm0 50.976562h31.914063v20.976563h-31.914063zm-9.96875 120.390625c-.558594 5.402344-3.1875 10.265625-7.398437 13.691407-4.214844 3.425781-9.511719 5-14.914063 4.445312-5.398437-.554688-10.261718-3.183594-13.6875-7.394531-3.425781-4.214844-5.003906-9.511719-4.449218-14.914063 1.078124-10.445312 9.929687-18.242187 20.210937-18.242187.695313 0 1.394531.035156 2.101563.105469 11.148437 1.152343 19.285156 11.160156 18.136718 22.308593zm0 0" fill="#FFFFFF"/></svg>
