<?xml version="1.0"?>
<svg xmlns="http://www.w3.org/2000/svg" viewBox="0 -36 512.00029 512" width="512px" height="512px"><path d="m321.726562 36.839844v128.304687l-34.859374 10.667969c-2.960938.90625-70.523438 21.800781-122.164063 56.101562-1.332031-.246093-2.679687-.457031-4.050781-.597656-15.394532-1.578125-29.910156 3.929688-40.277344 13.851563l-41.640625-26.300781c1.792969-1.199219 3.527344-2.511719 5.179687-3.953126 10.167969-8.851562 16.261719-21.117187 17.160157-34.53125.898437-13.414062-3.507813-26.371093-12.40625-36.488281-18.371094-20.882812-50.398438-23.007812-71.390625-4.730469-10.171875 8.855469-16.265625 21.117188-17.164063 34.53125-.894531 13.414063 3.511719 26.371094 12.410157 36.488282 3.644531 4.144531 7.871093 7.59375 12.507812 10.300781l80.824219 51.042969c-.308594 1.539062-.554688 3.101562-.71875 4.691406-.699219 6.71875-.015625 13.269531 1.800781 19.378906l-81.464844 51.453125v.003907c-3.613281 2.234374-6.964844 4.933593-9.976562 8.078124-19.242188 20.09375-18.464844 52.015626 1.730468 71.160157 9.78125 9.265625 22.339844 13.863281 34.886719 13.863281 13.367188 0 26.714844-5.226562 36.640625-15.589844 9.324219-9.734375 14.273438-22.496094 13.949219-35.9375-.328125-13.4375-5.898437-25.945312-15.683594-35.21875-2.125-2.015625-4.402343-3.8125-6.792969-5.40625l43.488282-27.464844c7.359375 5.921876 16.453125 9.871094 26.550781 10.90625 1.757813.183594 3.5.269532 5.230469.269532 3.097656 0 6.140625-.289063 9.105468-.832032 51.65625 34.335938 119.300782 55.261719 122.261719 56.167969l93.132813 28.496094-175.714844-120.996094c.703125-2.585937 1.21875-5.253906 1.503906-8.003906.652344-6.308594.089844-12.464844-1.484375-18.25l117.425781-80.855469v45.574219h-24.699218c-22.3125 0-40.464844 18.058594-40.464844 40.257813 0 22.195312 18.152344 40.253906 40.464844 40.253906h16.742187c21.015625 0 38.113281-17.007813 38.113281-37.917969v-108.933594l28.113282-19.359375-28.113282 8.605469v-38.28125l129.960938-25.164063v103.15625h-24.699219c-22.3125 0-40.464843 18.058594-40.464843 40.253907 0 22.199219 18.152343 40.257812 40.464843 40.257812h16.742188c21.015625 0 38.113281-17.007812 38.113281-37.917969v-238.226562zm-291.523437 138.847656c.363281-5.417969 2.824219-10.371094 6.933594-13.949219 3.871093-3.367187 8.667969-5.019531 13.445312-5.019531 5.691407 0 11.355469 2.34375 15.390625 6.933594 3.59375 4.085937 5.375 9.320312 5.011719 14.738281s-2.824219 10.371094-6.933594 13.949219c-4.105469 3.578125-9.367187 5.347656-14.816406 4.984375-3.21875-.210938-6.265625-1.171875-8.972656-2.753907l-1.074219-.679687c-1.449219-.972656-2.789062-2.121094-3.972656-3.460937-3.59375-4.089844-5.375-9.324219-5.011719-14.742188zm36.71875 228.1875c-7.773437 8.117188-20.734375 8.429688-28.890625.695312-8.160156-7.730468-8.472656-20.625-.699219-28.742187 4.007813-4.1875 9.398438-6.300781 14.800781-6.300781 5.066407 0 10.140626 1.859375 14.089844 5.601562 3.953125 3.746094 6.203125 8.800782 6.332032 14.230469.132812 5.429687-1.867188 10.582031-5.632813 14.515625zm86.441406-102.269531c-11.207031-1.148438-19.386719-11.160157-18.230469-22.308594 1.082032-10.445313 9.976563-18.246094 20.3125-18.246094.695313 0 1.402344.035157 2.113282.105469 11.207031 1.152344 19.386718 11.160156 18.230468 22.3125-1.15625 11.148438-11.210937 19.289062-22.425781 18.136719zm168.363281-25.996094c0 4.367187-3.566406 7.917969-7.957031 7.917969h-16.742187c-5.683594 0-10.308594-4.601563-10.308594-10.253906 0-5.65625 4.625-10.257813 10.308594-10.257813h24.699218zm160.117188-37.382813c0 4.367188-3.570312 7.917969-7.957031 7.917969h-16.742188c-5.683593 0-10.308593-4.601562-10.308593-10.257812s4.625-10.253907 10.308593-10.253907h24.699219zm-129.960938-151.148437v-25.511719l129.960938-25.164062v25.511718zm0 0" fill="#FFFFFF"/></svg>
