<?xml version="1.0"?>
<svg xmlns="http://www.w3.org/2000/svg" xmlns:xlink="http://www.w3.org/1999/xlink" xmlns:svgjs="http://svgjs.com/svgjs" version="1.1" width="512" height="512" x="0" y="0" viewBox="0 0 64 64" style="enable-background:new 0 0 512 512" xml:space="preserve" class=""><g><g xmlns="http://www.w3.org/2000/svg"><path d="m19.973 12.329c.088-.527-.035-1.057-.346-1.492s-.771-.722-1.299-.81l-11.999-2c-.112-.018-.223-.027-.332-.027-.981 0-1.811.703-1.97 1.671-.088.527.035 1.057.346 1.492s.771.722 1.299.81l.22.037c-.934.049-1.711.729-1.865 1.662-.088.527.035 1.057.346 1.492s.771.722 1.299.81l.22.037c-.934.049-1.711.729-1.865 1.662-.088.527.035 1.057.346 1.492s.771.722 1.299.81l.22.037c-.934.049-1.711.729-1.865 1.662-.088.527.035 1.057.346 1.492s.771.722 1.299.81l.22.037c-.934.049-1.711.729-1.865 1.662-.088.527.035 1.057.346 1.492s.771.722 1.299.81l.22.037c-.934.049-1.711.729-1.865 1.662-.088.527.035 1.057.346 1.492s.771.722 1.299.81l.22.037c-.934.049-1.711.729-1.865 1.662-.088.527.035 1.057.346 1.492s.771.722 1.299.81l.22.037c-.934.049-1.711.729-1.865 1.662-.088.527.035 1.057.346 1.492s.771.722 1.299.81l12 2c.11.019.22.027.329.027.981 0 1.812-.703 1.972-1.671.088-.527-.035-1.057-.346-1.492s-.771-.722-1.299-.81l-.221-.037c.934-.049 1.711-.729 1.865-1.661.088-.527-.035-1.057-.346-1.492s-.771-.722-1.299-.81l-.221-.037c.934-.049 1.711-.729 1.865-1.661.088-.527-.035-1.057-.346-1.492s-.771-.722-1.299-.81l-.221-.037c.934-.049 1.711-.729 1.865-1.661.088-.527-.035-1.057-.346-1.492s-.771-.722-1.299-.81l-.221-.037c.934-.049 1.711-.729 1.865-1.661.088-.527-.035-1.057-.346-1.492s-.771-.722-1.299-.81l-.221-.037c.934-.049 1.711-.729 1.865-1.661.088-.527-.035-1.057-.346-1.492s-.771-.722-1.299-.81l-.221-.037c.934-.049 1.711-.729 1.865-1.661.088-.527-.035-1.057-.346-1.492s-.771-.722-1.299-.81l-.221-.037c.94-.056 1.717-.736 1.872-1.668z" fill="#ffffff" data-original="#000000" style="" class=""/><path d="m2 55c0 2 2 3 2 3l6-1.8v-2.4l-6-1.8s-2 1-2 3z" fill="#ffffff" data-original="#000000" style="" class=""/><path d="m3.101 43c.464 2.279 2.484 4 4.899 4h28c2.415 0 4.435-1.721 4.899-4h-12.899z" fill="#ffffff" data-original="#000000" style="" class=""/><path d="m27 40c0 .552.448 1 1 1h15 17c.552 0 1-.448 1-1v-23h-34zm12-1h-6v-2h6zm3-11 1.482-.538c.037-.094.073-.188.113-.28l-.666-1.425 2.828-2.828 1.425.666c.092-.041.186-.077.28-.113l.538-1.482h4l.538 1.482c.094.037.188.073.28.113l1.425-.666 2.828 2.828-.666 1.425c.041.092.077.186.113.28l1.482.538v4l-1.482.538c-.037.094-.073.188-.113.28l.666 1.425-2.828 2.828-1.425-.666c-.092.041-.186.077-.28.113l-.538 1.482h-4l-.538-1.482c-.094-.037-.188-.073-.28-.113l-1.425.666-2.828-2.828.666-1.425c-.041-.092-.077-.186-.113-.28l-1.482-.538zm-12-8h8v6h-8zm-1 9h10v2h-10zm0 4h10v2h-10zm0 4h2v2h-2z" fill="#ffffff" data-original="#000000" style="" class=""/><path d="m12 49h4v12h-4z" fill="#ffffff" data-original="#000000" style="" class=""/><path d="m60 9h-17-15c-.552 0-1 .449-1 1v5h34v-5c0-.551-.448-1-1-1zm-29 4h-2v-2h2zm4 0h-2v-2h2zm4 0h-2v-2h2z" fill="#ffffff" data-original="#000000" style="" class=""/><path d="m40.899 7c-.464-2.279-2.484-4-4.899-4h-28c-2.415 0-4.435 1.721-4.899 4h24.899z" fill="#ffffff" data-original="#000000" style="" class=""/><path d="m24 52-6 1.8v2.4l6 1.8s2-1 2-3-2-3-2-3z" fill="#ffffff" data-original="#000000" style="" class=""/></g></g></svg>
