<?xml version="1.0" encoding="UTF-8"?>
<svg version="1.1" xmlns="http://www.w3.org/2000/svg" width="400" height="400">
<path d="M0 0 C2.2861881 0.94635727 2.2861881 0.94635727 4.4375 0.15625 C5.12457031 -0.21113281 5.81164062 -0.57851562 6.51953125 -0.95703125 C20.27926623 -8.19207354 38.10682719 -8.86971427 52.89453125 -4.33203125 C60.68392514 -1.51131421 67.84458417 2.570921 74.33203125 7.73046875 C74.33203125 8.39046875 74.33203125 9.05046875 74.33203125 9.73046875 C75.21761719 10.11912109 75.21761719 10.11912109 76.12109375 10.515625 C83.63016116 14.64163201 87.68016849 23.35973658 91.33203125 30.73046875 C91.88890625 31.82359375 92.44578125 32.91671875 93.01953125 34.04296875 C94.33203125 37.73046875 94.33203125 37.73046875 94.6484375 41.0234375 C95.11319335 44.99689065 95.65779924 48.08503299 97.33203125 51.73046875 C101.4661593 54.61367982 105.77339461 56.24591805 110.47412109 57.99023438 C122.29049081 62.69814935 129.94362474 74.07107129 135.5 85.03515625 C140.8024392 98.40299148 140.53912145 115.53808032 134.87890625 128.71875 C130.50699777 137.23072332 126.01608647 143.9297604 118.33203125 149.73046875 C117.67460937 150.23707031 117.0171875 150.74367187 116.33984375 151.265625 C111.68788083 154.73046875 111.68788083 154.73046875 109.33203125 154.73046875 C109.18507813 155.48070312 109.038125 156.2309375 108.88671875 157.00390625 C106.11530125 169.65048954 99.71602505 180.49595132 88.95703125 187.98046875 C87.42809563 188.91821593 85.8866874 189.83600905 84.33203125 190.73046875 C83.3884375 191.31828125 83.3884375 191.31828125 82.42578125 191.91796875 C77.8441916 194.39057269 73.74301249 194.90935863 68.63256836 195.20532227 C58.69850327 195.80481692 53.22068622 197.98661625 45.57421875 204.26171875 C41.66581341 207.42826183 37.31788482 208.96093886 32.5625 210.5 C30.16921429 211.51221091 30.16921429 211.51221091 29.5234375 213.765625 C29.25221476 217.96680991 29.10754558 222.14560447 29.08203125 226.35546875 C29.06140625 227.21398437 29.04078125 228.0725 29.01953125 228.95703125 C29.014375 229.78203125 29.00921875 230.60703125 29.00390625 231.45703125 C28.99456055 232.20549316 28.98521484 232.95395508 28.97558594 233.72509766 C29.43613676 236.31616922 30.25964212 237.14653951 32.33203125 238.73046875 C38.17945939 240.5262363 44.0961415 241.34418615 50.14453125 242.16796875 C71.29694988 245.23168893 89.90273124 253.36348231 103.58203125 270.54296875 C109.17093375 278.506759 113.00875456 287.31427449 115.33203125 296.73046875 C115.53699219 297.436875 115.74195313 298.14328125 115.953125 298.87109375 C118.32677433 308.2347311 117.33203125 316.6848203 117.33203125 326.73046875 C40.77203125 326.73046875 -35.78796875 326.73046875 -114.66796875 326.73046875 C-114.66796875 300.17789612 -111.24383448 280.75940437 -92.66796875 261.73046875 C-78.27349466 249.29188503 -62.75462361 244.24889012 -44.29296875 241.60546875 C-42.01419066 241.27042955 -39.73553954 240.93452535 -37.45703125 240.59765625 C-36.46396973 240.45440918 -35.4709082 240.31116211 -34.44775391 240.16357422 C-31.84229531 239.75762977 -29.2536552 239.24760604 -26.66796875 238.73046875 C-26.66796875 229.82046875 -26.66796875 220.91046875 -26.66796875 211.73046875 C-29.30796875 210.74046875 -31.94796875 209.75046875 -34.66796875 208.73046875 C-37.38525071 207.47666118 -40.00899093 206.10743941 -42.66796875 204.73046875 C-42.66796875 204.07046875 -42.66796875 203.41046875 -42.66796875 202.73046875 C-43.28671875 202.58609375 -43.90546875 202.44171875 -44.54296875 202.29296875 C-46.66796875 201.73046875 -46.66796875 201.73046875 -48.66796875 200.73046875 C-48.66796875 200.07046875 -48.66796875 199.41046875 -48.66796875 198.73046875 C-51.47235784 197.16477993 -53.62856281 196.46173307 -56.828125 196.2734375 C-58.01051758 196.18715088 -58.01051758 196.18715088 -59.21679688 196.09912109 C-60.04630859 196.03934082 -60.87582031 195.97956055 -61.73046875 195.91796875 C-69.55551004 195.2048565 -75.88436149 193.91814441 -82.66796875 189.73046875 C-83.59996094 189.16328125 -84.53195313 188.59609375 -85.4921875 188.01171875 C-97.21195428 180.20920007 -102.92333638 169.96270332 -106.66796875 156.73046875 C-106.66796875 156.07046875 -106.66796875 155.41046875 -106.66796875 154.73046875 C-107.20421875 154.48296875 -107.74046875 154.23546875 -108.29296875 153.98046875 C-120.36696071 147.62573614 -129.13331968 137.16344133 -133.8515625 124.390625 C-136.62356851 115.3583949 -136.98446845 107.04723587 -135.66796875 97.73046875 C-135.55453125 96.86421875 -135.44109375 95.99796875 -135.32421875 95.10546875 C-133.17709759 81.89241546 -124.80903208 70.2358767 -114.66796875 61.73046875 C-110.67271833 58.92299548 -106.72764887 56.23282976 -101.9453125 55.06640625 C-98.91617161 54.32585045 -97.08181708 53.73306884 -94.66796875 51.73046875 C-93.47619382 48.35125882 -92.76489564 45.16309117 -92.13867188 41.6496582 C-90.14084541 30.78014728 -84.60270491 20.47628262 -76.66796875 12.73046875 C-76.00796875 12.73046875 -75.34796875 12.73046875 -74.66796875 12.73046875 C-74.17296875 11.24546875 -74.17296875 11.24546875 -73.66796875 9.73046875 C-71.759265 8.1502396 -69.89634651 6.74390613 -67.85546875 5.35546875 C-67.27522949 4.9577124 -66.69499023 4.55995605 -66.09716797 4.15014648 C-60.61790269 0.50696264 -54.89868682 -2.14425892 -48.66796875 -4.26953125 C-47.62253906 -4.63304688 -46.57710938 -4.9965625 -45.5 -5.37109375 C-30.2297168 -8.95128247 -14.04217018 -6.68185257 0 0 Z " fill="#C8C8C8" transform="translate(198.66796875,73.26953125)"/>
<path d="M0 0 C0.825 0.65613281 1.65 1.31226562 2.5 1.98828125 C2.5 2.64828125 2.5 3.30828125 2.5 3.98828125 C3.38558594 4.37693359 3.38558594 4.37693359 4.2890625 4.7734375 C11.79812991 8.89944451 15.84813724 17.61754908 19.5 24.98828125 C20.056875 26.08140625 20.61375 27.17453125 21.1875 28.30078125 C22.5 31.98828125 22.5 31.98828125 22.81640625 35.28125 C23.2811621 39.25470315 23.82576799 42.34284549 25.5 45.98828125 C29.63412805 48.87149232 33.94136336 50.50373055 38.64208984 52.24804688 C50.45845956 56.95596185 58.11159349 68.32888379 63.66796875 79.29296875 C68.97040795 92.66080398 68.7070902 109.79589282 63.046875 122.9765625 C58.67496652 131.48853582 54.18405522 138.1875729 46.5 143.98828125 C45.84257812 144.49488281 45.18515625 145.00148437 44.5078125 145.5234375 C39.85584958 148.98828125 39.85584958 148.98828125 37.5 148.98828125 C37.35304688 149.73851562 37.20609375 150.48875 37.0546875 151.26171875 C34.28327 163.90830204 27.8839938 174.75376382 17.125 182.23828125 C8.45871446 187.65655517 0.91971798 190.15582939 -9.375 190.05078125 C-10.52742188 190.04175781 -11.67984375 190.03273438 -12.8671875 190.0234375 C-13.73601562 190.01183594 -14.60484375 190.00023437 -15.5 189.98828125 C-13.99797205 186.4914966 -11.94823728 184.21021304 -9.3125 181.48828125 C-4.39159239 176.10924741 -0.86487175 170.43272391 2.5 163.98828125 C2.98597656 163.08078125 3.47195313 162.17328125 3.97265625 161.23828125 C7.00978107 155.14632243 8.24645515 149.61386225 8.84765625 142.8359375 C9.63747368 139.38817158 10.70483245 138.11119331 13.5 135.98828125 C17.44240326 135.63628096 20.71090261 135.96622208 24.5 136.98828125 C29.87841386 131.3409467 30.01222105 126.85769448 29.87109375 119.1953125 C29.51598576 116.12643187 29.28150507 114.4694711 27.5 111.98828125 C25.10972332 110.07588012 25.10972332 110.07588012 22.375 108.36328125 C20.71691513 107.28763979 19.081839 106.17320124 17.5 104.98828125 C17.5 104.32828125 17.5 103.66828125 17.5 102.98828125 C15.85 102.98828125 14.2 102.98828125 12.5 102.98828125 C10.5 97.23828125 10.5 97.23828125 10.5 94.98828125 C9.44425781 95.04048828 9.44425781 95.04048828 8.3671875 95.09375 C0.04756399 95.32183367 -7.44227703 93.99079229 -15.5 91.98828125 C-13.44034631 95.19218699 -11.41821974 98.08402399 -8.9375 100.98828125 C-4.31141791 106.68192074 -2.96209722 111.21096691 -3.0625 118.36328125 C-3.07079834 119.11988037 -3.07909668 119.87647949 -3.08764648 120.65600586 C-3.25814544 126.26790933 -3.97330902 130.47619132 -7.5 134.98828125 C-8.02078125 135.68308594 -8.5415625 136.37789062 -9.078125 137.09375 C-13.53604509 142.60590795 -18.36362211 146.62415946 -25.5 147.98828125 C-35.33825062 148.74411663 -43.69014052 148.36584898 -51.75 142.29296875 C-58.71896455 135.96453403 -61.69565485 128.23825053 -62.5 118.98828125 C-65.60063523 117.95473617 -67.81444068 117.85463129 -71.0625 117.86328125 C-72.03316406 117.86070312 -73.00382812 117.858125 -74.00390625 117.85546875 C-76.49952953 117.82177172 -76.49952953 117.82177172 -78.5 118.98828125 C-78.96821645 121.27037144 -78.96821645 121.27037144 -79.25 123.98828125 C-80.64692229 132.3373284 -85.03623777 138.5846383 -91.67578125 143.76953125 C-99.02364217 148.67859465 -106.83675462 148.76214424 -115.5 147.98828125 C-124.46197939 145.65037358 -130.70133202 139.69523286 -135.5 131.98828125 C-135.86351562 131.42753906 -136.22703125 130.86679688 -136.6015625 130.2890625 C-139.12607983 123.82410292 -138.44423095 114.57727558 -136.6953125 107.9296875 C-132.96121025 99.6760339 -125.82368184 93.40181087 -117.5 89.98828125 C-107.03058383 88.81349528 -96.75230382 89.70548113 -88.20703125 96.26953125 C-84.10968165 100.39500911 -79.70753003 105.90497798 -79.30859375 111.83203125 C-79.40333984 112.899375 -79.40333984 112.899375 -79.5 113.98828125 C-78.84 113.82328125 -78.18 113.65828125 -77.5 113.48828125 C-72.08063618 112.58505395 -66.84851158 112.65115335 -61.5 113.98828125 C-61.4071875 112.75078125 -61.4071875 112.75078125 -61.3125 111.48828125 C-59.59421879 104.08645451 -54.55944405 97.51281887 -48.5 92.98828125 C-41.00157228 88.9725356 -33.87324969 88.46221321 -25.5 88.98828125 C-25.5 88.32828125 -25.5 87.66828125 -25.5 86.98828125 C-26.36367187 86.89289063 -27.22734375 86.7975 -28.1171875 86.69921875 C-41.06326195 83.97845022 -55.0909273 70.53358075 -62.5 59.98828125 C-70.6312105 47.02916452 -70.6312105 47.02916452 -70.61352539 40.1496582 C-70.61341209 38.67847282 -70.61341209 38.67847282 -70.61329651 37.17756653 C-70.60813522 36.1212352 -70.60297394 35.06490387 -70.59765625 33.9765625 C-70.5962413 32.89320114 -70.59482635 31.80983978 -70.59336853 30.69364929 C-70.58776559 27.229332 -70.57521258 23.76507905 -70.5625 20.30078125 C-70.55748538 17.95377697 -70.55292241 15.60677169 -70.54882812 13.25976562 C-70.53779521 7.50258217 -70.5210542 1.74543631 -70.5 -4.01171875 C-47.55345367 -17.24804034 -21.56177036 -14.72611583 0 0 Z " fill="#A9A8A7" transform="translate(270.5,79.01171875)"/>
<path d="M0 0 C-0.33 0.33 -0.66 0.66 -1 1 C4.68987399 5.37682614 10.62250059 9.04523941 17 12.3125 C17.639375 12.64958984 18.27875 12.98667969 18.9375 13.33398438 C32.6747916 20.1887821 51.89761402 20.28773055 66.5625 16.5 C76.71451636 13.0125714 86.54795682 7.59671663 95 1 C94.67 0.34 94.34 -0.32 94 -1 C115.53814669 0.09006327 133.22079711 8.9115692 147.75390625 24.93359375 C154.28532897 33.13624213 158.50245433 42.87749704 161 53 C161.20496094 53.70640625 161.40992188 54.4128125 161.62109375 55.140625 C163.99474308 64.50426235 163 72.95435155 163 83 C86.44 83 9.88 83 -69 83 C-69 56.44742737 -65.57586573 37.02893562 -47 18 C-36.02675837 8.51777899 -15.42404749 -5.14134916 0 0 Z " fill="#73452F" transform="translate(153,317)"/>
<path d="M0 0 C8.67298515 0.94614383 17.33600437 1.97544024 26 3 C26.99 6.465 26.99 6.465 28 10 C29.65 10.33 31.3 10.66 33 11 C33 11.66 33 12.32 33 13 C33.515625 13.226875 34.03125 13.45375 34.5625 13.6875 C36.68107554 14.82827144 38.6363614 16.02571494 40.625 17.375 C41.51058594 17.97441406 41.51058594 17.97441406 42.4140625 18.5859375 C45.2876264 21.14808068 45.92004491 23.37573526 46.40625 27.171875 C46.59930519 34.54014819 46.3576384 39.15983528 41.3125 44.7421875 C40.879375 45.15726563 40.44625 45.57234375 40 46 C39.41347656 45.84015625 38.82695312 45.6803125 38.22265625 45.515625 C35.05614503 44.78103892 32.23660068 44.76461086 29 45 C27.21592981 46.10076588 27.21592981 46.10076588 26 48 C25.49455644 50.65261921 25.49455644 50.65261921 25.3125 53.6875 C24.14238725 62.4340928 20.30284654 69.42747062 16 77 C15.40574219 78.04929687 14.81148438 79.09859375 14.19921875 80.1796875 C10.91349994 85.63322538 7.31006106 90.05338066 2.6015625 94.34375 C0.75505821 96.01459478 0.75505821 96.01459478 0 99 C-2.07034648 100.74251701 -4.10898015 102.31904516 -6.3125 103.875 C-6.93535889 104.32190186 -7.55821777 104.76880371 -8.19995117 105.22924805 C-13.11140482 108.64079296 -18.0632668 110.92272175 -23.76953125 112.76953125 C-26.16281696 113.78174216 -26.16281696 113.78174216 -26.80859375 116.03515625 C-27.07981649 120.23634116 -27.22448567 124.41513572 -27.25 128.625 C-27.270625 129.48351562 -27.29125 130.34203125 -27.3125 131.2265625 C-27.31765625 132.0515625 -27.3228125 132.8765625 -27.328125 133.7265625 C-27.3374707 134.47502441 -27.34681641 135.22348633 -27.35644531 135.99462891 C-26.89535258 138.58874923 -26.07764064 139.41655543 -24 141 C-18.69745168 142.61772661 -13.50315934 143.41037579 -8 144 C-8 144.66 -8 145.32 -8 146 C-7.34 146.33 -6.68 146.66 -6 147 C-11.67071237 151.36208644 -17.57356409 155.01039869 -23.9375 158.25 C-24.56849609 158.57871094 -25.19949219 158.90742188 -25.84960938 159.24609375 C-35.35072278 163.96295856 -44.52010307 165.48112439 -55.0625 165.3125 C-56.07376953 165.31572266 -57.08503906 165.31894531 -58.12695312 165.32226562 C-67.84952276 165.25340003 -76.29078691 163.90882421 -84.9375 159.375 C-85.61554688 159.02888672 -86.29359375 158.68277344 -86.9921875 158.32617188 C-93.10519143 155.11944486 -98.59768946 151.30353552 -104 147 C-101.73484798 144.35888914 -100.19397602 143.56080494 -96.76953125 143.05078125 C-96.04612549 142.93645752 -95.32271973 142.82213379 -94.57739258 142.7043457 C-93.66497803 142.57503662 -92.75256348 142.44572754 -91.8125 142.3125 C-88.904375 141.879375 -85.99625 141.44625 -83 141 C-82.67 132.09 -82.34 123.18 -82 114 C-79.24207187 112.62103593 -78.15444092 113.43836077 -75.25 114.375 C-68.51550817 116.33363707 -61.99000508 116.65396014 -55 117 C-55 107.76 -55 98.52 -55 89 C-57.31 88.67 -59.62 88.34 -62 88 C-65.63333811 86.82252932 -68.81823651 85.12117566 -72 83 C-72 82.01 -72 81.02 -72 80 C-69.51472384 80.41421269 -67.4065363 80.77570411 -65.1875 82 C-62.17570734 83.50893827 -62.17570734 83.50893827 -55 84 C-55 78.06 -55 72.12 -55 66 C-56.32 65.67 -57.64 65.34 -59 65 C-63.77777778 62.44444444 -63.77777778 62.44444444 -65 60 C-64.98807535 57.58227787 -64.90593304 55.22183497 -64.75 52.8125 C-64.68329102 51.75567017 -64.68329102 51.75567017 -64.61523438 50.67749023 C-63.17355414 31.17355414 -63.17355414 31.17355414 -60 28 C-60.66 27.67 -61.32 27.34 -62 27 C-62.33 29.97 -62.66 32.94 -63 36 C-63.66 36 -64.32 36 -65 36 C-64.91291331 34.54054712 -64.80473093 33.08234132 -64.6875 31.625 C-64.60048828 30.40683594 -64.60048828 30.40683594 -64.51171875 29.1640625 C-64 27 -64 27 -61 25 C-58.44140625 24.734375 -58.44140625 24.734375 -55.5625 24.75 C-54.61503906 24.74484375 -53.66757813 24.7396875 -52.69140625 24.734375 C-49.86814694 25.01301307 -48.25871754 25.27759895 -46 27 C-45.34765625 29.3203125 -45.34765625 29.3203125 -45.0625 32.125 C-43.83967286 40.18933419 -40.26855753 45.7200895 -33.859375 50.74609375 C-26.032034 56.02461573 -16.7081535 56.29210019 -7.56640625 54.53125 C0.50880951 51.8867349 5.26925554 46.32343623 9.0546875 38.953125 C9.52261719 37.98632812 9.52261719 37.98632812 10 37 C10.495 36.01 10.495 36.01 11 35 C11.95211298 22.4729135 11.02482227 14.78607538 2.6875 5.0625 C2.17574219 4.51722656 1.66398437 3.97195312 1.13671875 3.41015625 C0 2 0 2 0 0 Z " fill="#F5C5A6" transform="translate(255,171)"/>
<path d="M0 0 C-0.33 0.33 -0.66 0.66 -1 1 C16.94223815 14.80172165 32.84033284 18.20650973 55 19 C55 19.33 55 19.66 55 20 C52.36 20 49.72 20 47 20 C47 40.79 47 61.58 47 83 C8.72 83 -29.56 83 -69 83 C-69 56.44742737 -65.57586573 37.02893562 -47 18 C-36.02675837 8.51777899 -15.42404749 -5.14134916 0 0 Z " fill="#9C6750" transform="translate(153,317)"/>
<path d="M0 0 C-0.37178121 4.21352033 -1.94937955 6.22747622 -4.65625 9.375 C-10.23473415 16.12107385 -10.97956491 23.22776628 -10.5703125 31.79296875 C-9.74216797 40.22378262 -4.68007901 45.88660939 1.625 51.125 C8.45751709 56.28022047 16.78931502 55.49394586 25 55 C31.60346531 53.83342347 36.59574289 49.93013855 41 45 C42.90389795 42.10035881 44.52096884 39.1358305 46 36 C46.66 36 47.32 36 48 36 C47.979375 34.88625 47.95875 33.7725 47.9375 32.625 C48 29 48 29 49 27 C50.485 27.495 50.485 27.495 52 28 C51.68756348 28.56750977 51.37512695 29.13501953 51.05322266 29.71972656 C49.9791452 32.04515156 49.52813077 33.95981303 49.1484375 36.484375 C49.01953125 37.33773437 48.890625 38.19109375 48.7578125 39.0703125 C48.63148438 39.95460937 48.50515625 40.83890625 48.375 41.75 C48.2409375 42.61882812 48.106875 43.48765625 47.96875 44.3828125 C46.19572111 54.08066675 46.19572111 54.08066675 49 63 C52.465 64.485 52.465 64.485 56 66 C56 71.94 56 77.88 56 84 C47.32 84 47.32 84 43 81 C40.80869466 80.30420546 40.80869466 80.30420546 39 80 C39.71499886 83.05041536 39.71499886 83.05041536 41.875 84.5 C46.32987441 86.63833972 51.23262148 87.69980586 56 89 C56 98.24 56 107.48 56 117 C40.48726852 117 40.48726852 117 32.7421875 114.78125 C30.26690491 114.07604129 27.84253706 113.58023158 25.3125 113.125 C20.35491323 112.07173981 16.2747728 109.64773162 12 107 C12 106.34 12 105.68 12 105 C11.38125 104.855625 10.7625 104.71125 10.125 104.5625 C8 104 8 104 6 103 C6 102.34 6 101.68 6 101 C5.40960938 100.74605469 4.81921875 100.49210937 4.2109375 100.23046875 C1.75730445 98.86493092 0.42155094 97.45908316 -1.375 95.3125 C-3.88161266 92.30993011 -3.88161266 92.30993011 -6.50390625 89.41015625 C-14.1781571 81.19222551 -19.17743783 70.45265588 -23 60 C-23.33 59.34 -23.66 58.68 -24 58 C-24.27420918 55.17956274 -24.4461907 52.35946953 -24.62109375 49.53125 C-24.76815328 46.8354242 -24.76815328 46.8354242 -27 45 C-31.53942698 44.77674949 -35.57117061 44.89279265 -40 46 C-40.61875 45.21625 -41.2375 44.4325 -41.875 43.625 C-43.89858661 41.03162353 -43.89858661 41.03162353 -46 39 C-46.670965 32.91450349 -46.95831926 27.02311843 -44.3125 21.4375 C-43.549375 20.633125 -42.78625 19.82875 -42 19 C-41.195625 18.113125 -40.39125 17.22625 -39.5625 16.3125 C-35.96346438 13.06458981 -33.61920996 11.09165339 -28.6875 10.8125 C-27.3571875 10.9053125 -27.3571875 10.9053125 -26 11 C-25.67 8.36 -25.34 5.72 -25 3 C-24.40461426 2.94465088 -23.80922852 2.88930176 -23.19580078 2.83227539 C-20.50512785 2.57981135 -17.81507714 2.32123184 -15.125 2.0625 C-14.18785156 1.97548828 -13.25070313 1.88847656 -12.28515625 1.79882812 C-11.38925781 1.71181641 -10.49335938 1.62480469 -9.5703125 1.53515625 C-8.32918701 1.41732788 -8.32918701 1.41732788 -7.06298828 1.29711914 C-4.32610103 0.9029426 -2.88754139 0 0 0 Z " fill="#F7D9C2" transform="translate(144,171)"/>
<path d="M0 0 C3.45339155 3.14367033 5.7440001 6.6584572 8.125 10.625 C16.04190865 23.31220538 29.404518 36.4697784 44.2578125 40.6328125 C45.12019531 40.81457031 45.12019531 40.81457031 46 41 C46 41.66 46 42.32 46 43 C44.9378125 43.09796875 43.875625 43.1959375 42.78125 43.296875 C32.22080507 44.3695275 24.21523589 45.81295802 16.609375 53.78515625 C13.46693201 58.10982901 11.84896172 63.01340628 10 68 C4.06 68 -1.88 68 -8 68 C-8.66 65.69 -9.32 63.38 -10 61 C-11.21185747 58.87569448 -11.21185747 58.87569448 -12.625 57.1875 C-15 54 -15 54 -15 52 C-15.57234375 51.71382812 -16.1446875 51.42765625 -16.734375 51.1328125 C-20.15625 49.421875 -23.578125 47.7109375 -27 46 C-27 45.34 -27 44.68 -27 44 C-32.69505736 43.3583034 -38.26733196 42.87537678 -44 43 C-41.75910905 40.30929518 -39.18495138 39.00595904 -36.06274414 37.50244141 C-19.9605213 29.69173737 -7.24711223 16.37568628 0 0 Z " fill="#F5C6A8" transform="translate(199,125)"/>
<path d="M0 0 C6.48075288 4.01806679 12.51159124 8.65725314 14.8125 16.1875 C15.87837448 25.5671954 15.10849528 33.53953122 9.125 41.1875 C3.95236744 46.64386346 -2.92821433 50.1198027 -10.5 50.4375 C-18.77878889 49.87572504 -25.21265346 47.01165356 -30.875 40.9375 C-36.73699094 33.22435402 -36.72087788 25.3296613 -35.875 15.9375 C-33.88142788 9.59025246 -29.53965333 4.41379631 -23.875 0.9375 C-16.77764002 -1.96506178 -7.3124456 -2.73583415 0 0 Z " fill="#F8E1CE" transform="translate(172.875,174.0625)"/>
<path d="M0 0 C2.3125 1.96875 2.3125 1.96875 4.375 4.0625 C5.014375 4.6915625 5.65375 5.320625 6.3125 5.96875 C11.0518237 11.67349149 11.33154177 18.05609509 10.88671875 25.17578125 C9.9178956 32.53439984 7.38437199 37.76579622 1.625 42.5 C-4.56225139 46.61318218 -11.15963409 48.86236063 -18.625 48.0625 C-25.87681015 46.50854068 -31.49021857 43.41200923 -35.875 37.328125 C-40.03890326 30.40869753 -41.72681275 23.78190984 -40.1953125 15.83203125 C-38.18855277 8.63494851 -33.9580928 3.46542737 -27.9375 -0.875 C-19.70112555 -4.65928015 -7.67796685 -5.06792629 0 0 Z " fill="#F7D7C2" transform="translate(252.625,175.9375)"/>
<path d="M0 0 C7.65163185 3.82581592 12.21644421 9.13471415 15.9140625 16.95703125 C16.10546875 19.80078125 16.10546875 19.80078125 15.9140625 21.95703125 C16.5740625 21.79203125 17.2340625 21.62703125 17.9140625 21.45703125 C23.33342632 20.55380395 28.56555092 20.61990335 33.9140625 21.95703125 C34.006875 20.71953125 34.006875 20.71953125 34.1015625 19.45703125 C36.12452686 10.74272323 42.544171 3.72165648 49.9765625 -0.98046875 C57.68551777 -3.78214324 67.50753201 -2.95158351 75.02734375 0.05078125 C82.97568754 3.86861926 88.5723765 9.80563533 91.9140625 17.95703125 C92.34782223 20.76081476 92.39133655 23.49867826 92.3515625 26.33203125 C92.34326416 27.08863037 92.33496582 27.84522949 92.32641602 28.62475586 C92.15591706 34.23665933 91.44075348 38.44494132 87.9140625 42.95703125 C87.39328125 43.65183594 86.8725 44.34664062 86.3359375 45.0625 C81.87801741 50.57465795 77.05044039 54.59290946 69.9140625 55.95703125 C60.07581188 56.71286663 51.72392198 56.33459898 43.6640625 50.26171875 C36.69509795 43.93328403 33.71840765 36.20700053 32.9140625 26.95703125 C29.81342727 25.92348617 27.59962182 25.82338129 24.3515625 25.83203125 C22.89556641 25.82816406 22.89556641 25.82816406 21.41015625 25.82421875 C18.91453297 25.79052172 18.91453297 25.79052172 16.9140625 26.95703125 C16.44584605 29.23912144 16.44584605 29.23912144 16.1640625 31.95703125 C14.76714021 40.3060784 10.37782473 46.5533883 3.73828125 51.73828125 C-3.60957967 56.64734465 -11.42269212 56.73089424 -20.0859375 55.95703125 C-29.04791689 53.61912358 -35.28726952 47.66398286 -40.0859375 39.95703125 C-40.44945312 39.39628906 -40.81296875 38.83554688 -41.1875 38.2578125 C-43.71201733 31.79285292 -43.03016845 22.54602558 -41.28125 15.8984375 C-33.96288398 -0.27767497 -16.32586925 -6.69544076 0 0 Z M-34.0859375 10.95703125 C-39.46271053 17.59892734 -38.82141072 25.83050612 -38.0859375 33.95703125 C-36.80341353 40.13646492 -32.35051589 45.57165499 -27.31640625 49.25 C-23.98247878 51.26197802 -20.95306526 52.58873337 -17.0859375 52.95703125 C-16.46332031 53.04339844 -15.84070313 53.12976563 -15.19921875 53.21875 C-7.22487145 53.86299709 -0.16966155 50.32009812 5.90625 45.31640625 C10.913166 39.98565986 13.01985663 33.50423675 13.2265625 26.26953125 C12.96963828 19.83525521 10.92456068 14.9958623 6.9140625 9.95703125 C-1.07940177 2.80265992 -5.99609653 1.63557844 -16.671875 1.74609375 C-23.97429247 2.19727286 -29.17025441 5.65198712 -34.0859375 10.95703125 Z M41.9140625 10.95703125 C37.95500046 17.16474484 36.01234472 23.55278523 36.9140625 30.95703125 C39.15497449 39.13956133 43.13801834 45.86509132 50.4765625 50.33203125 C57.02874535 53.42942678 63.3533471 53.87970185 70.3515625 51.83203125 C77.07830439 49.34531406 82.19082366 45.80486021 85.9140625 39.58203125 C89.20110981 32.16654226 89.6772587 22.84183939 86.91015625 15.17578125 C85.45386672 12.75278101 83.92802642 10.93851188 81.9140625 8.95703125 C81.2334375 8.26609375 80.5528125 7.57515625 79.8515625 6.86328125 C73.57192861 1.51710645 67.64705215 1.24738869 59.74609375 1.41796875 C52.5140757 2.43531685 46.81166181 5.52470646 41.9140625 10.95703125 Z " fill="#16100D" transform="translate(175.0859375,171.04296875)"/>
<path d="M0 0 C0.66 0.33 1.32 0.66 2 1 C1.67 22.45 1.34 43.9 1 66 C-1.97 66 -4.94 66 -8 66 C-13 56 -13 56 -13.9140625 53.796875 C-15.30260074 51.49929374 -16.5416463 51.0138466 -19 50 C-21.66666667 48.66666667 -24.33333333 47.33333333 -27 46 C-27 45.34 -27 44.68 -27 44 C-32.69505736 43.3583034 -38.26733196 42.87537678 -44 43 C-41.75910905 40.30929518 -39.18495138 39.00595904 -36.06274414 37.50244141 C-19.9605213 29.69173737 -7.24711223 16.37568628 0 0 Z " fill="#F8D9C2" transform="translate(199,125)"/>
<path d="M0 0 C4.33767046 5.62290615 4.5920704 12.15209139 4 19 C2.69672651 26.04245948 -0.50391782 31.40327672 -6 36 C-13.41477157 40.61463125 -19.93328525 42.26550897 -28.453125 40.48828125 C-32.45107033 39.37272554 -34.4859663 38.66980148 -37.0625 35.3125 C-37.371875 34.549375 -37.68125 33.78625 -38 33 C-36.71034824 31.62437146 -35.37310707 30.29233607 -34 29 C-33.34 29 -32.68 29 -32 29 C-31.34 27.68 -30.68 26.36 -30 25 C-29.34 25 -28.68 25 -28 25 C-27.731875 24.360625 -27.46375 23.72125 -27.1875 23.0625 C-26 21 -26 21 -23 20 C-21.7625 20.061875 -21.7625 20.061875 -20.5 20.125 C-18.02069992 20.18430468 -18.02069992 20.18430468 -16.1875 19 C-14.64761365 16.84705131 -14.64761365 16.84705131 -15.3125 13.25 C-15.45460992 10.2875547 -15.2609524 9.31485807 -13.3359375 6.9921875 C-5.29053347 0 -5.29053347 0 0 0 Z " fill="#F8E3D3" transform="translate(184,183)"/>
<path d="M0 0 C3 1 3 1 4 3 C4.76979976 12.41355137 5.11391611 21.20920884 -1 29 C-6.66817828 34.77907743 -13.53812438 37.5219419 -21.5 38.375 C-25.94201107 37.89907024 -29.84087875 36.58442714 -34 35 C-34 34.34 -34 33.68 -34 33 C-33.34 33 -32.68 33 -32 33 C-32 32.34 -32 31.68 -32 31 C-30.64453125 29.66796875 -30.64453125 29.66796875 -28.8125 28.1875 C-24.71878354 24.78988108 -20.96785387 21.45178081 -18 17 C-17.01 17 -16.02 17 -15 17 C-14.773125 16.443125 -14.54625 15.88625 -14.3125 15.3125 C-12.61427198 12.32038397 -10.49235804 10.38399465 -8 8 C-6.55983055 6.56517441 -5.12245801 5.12753751 -3.6875 3.6875 C-2.45833333 2.45833333 -1.22916667 1.22916667 0 0 Z " fill="#F8D6C0" transform="translate(259,186)"/>
<path d="M0 0 C1.79232337 0.30871122 3.58384321 0.62209064 5.375 0.9375 C6.87160156 1.19853516 6.87160156 1.19853516 8.3984375 1.46484375 C11 2 11 2 13 3 C15.99058799 3.12669486 18.94652938 3.19006344 21.9375 3.1875 C22.79835205 3.18741943 23.6592041 3.18733887 24.54614258 3.18725586 C30.90130918 3.13044389 36.79638736 2.37275888 43 1 C45.66321073 0.6116151 48.32533735 0.302792 51 0 C51 2.97 51 5.94 51 9 C50.34 9 49.68 9 49 9 C49 9.66 49 10.32 49 11 C41.43504024 13.41271271 34.07880501 13.33185092 26.1875 13.3125 C24.88490234 13.32861328 23.58230469 13.34472656 22.24023438 13.36132812 C14.26073634 13.36533994 7.59309326 12.47019944 0 10 C0 6.7 0 3.4 0 0 Z " fill="#F1B494" transform="translate(175,285)"/>
<path d="M0 0 C2.97 0.495 2.97 0.495 6 1 C6 1.66 6 2.32 6 3 C6.515625 3.226875 7.03125 3.45375 7.5625 3.6875 C9.68107554 4.82827144 11.6363614 6.02571494 13.625 7.375 C14.51058594 7.97441406 14.51058594 7.97441406 15.4140625 8.5859375 C18.2876264 11.14808068 18.92004491 13.37573526 19.40625 17.171875 C19.59930519 24.54014819 19.3576384 29.15983528 14.3125 34.7421875 C13.879375 35.15726563 13.44625 35.57234375 13 36 C12.2575 35.7525 12.2575 35.7525 11.5 35.5 C7.96555911 34.79311182 4.60309299 34.93994845 1 35 C1.00523682 34.1529248 1.01047363 33.30584961 1.01586914 32.43310547 C1.03298535 29.26855727 1.04548626 26.1040328 1.05493164 22.93945312 C1.05993786 21.5738853 1.06674482 20.20832276 1.07543945 18.84277344 C1.08766831 16.87176882 1.09272866 14.9007239 1.09765625 12.9296875 C1.10289307 11.74616699 1.10812988 10.56264648 1.11352539 9.34326172 C1.00470177 6.13846468 0.60517483 3.14523388 0 0 Z " fill="#E8B194" transform="translate(282,181)"/>
<path d="M0 0 C2.475 2.475 2.475 2.475 5 5 C3.86227386 7.27545227 2.70440699 8.20223858 0.75 9.8125 C-3.26114178 13.1920305 -6.95227301 16.61330252 -10.125 20.8125 C-10.74375 21.534375 -11.3625 22.25625 -12 23 C-12.99 23 -13.98 23 -15 23 C-15.2475 23.61875 -15.495 24.2375 -15.75 24.875 C-17.23740369 27.40358627 -18.43678009 27.71839004 -21 29 C-21.68268138 30.32520503 -22.3507041 31.65812182 -23 33 C-24.485 33.495 -24.485 33.495 -26 34 C-26.33 34.99 -26.66 35.98 -27 37 C-27.66 37 -28.32 37 -29 37 C-29 37.66 -29 38.32 -29 39 C-30.485 39.495 -30.485 39.495 -32 40 C-33.32 38.68 -34.64 37.36 -36 36 C-35.13375 35.46375 -34.2675 34.9275 -33.375 34.375 C-29.73086197 31.91368481 -26.83380591 29.38674365 -24 26 C-24.05837137 23.37328813 -24.11106326 21.88893674 -26 20 C-26.44165849 16.73172721 -26.25921127 15.37884724 -24.375 12.625 C-22 11 -22 11 -19 11.25 C-18.01 11.4975 -17.02 11.745 -16 12 C-11.94776186 12.43822692 -11.94776186 12.43822692 -9.4921875 9.8125 C-8.62851563 8.884375 -7.76484375 7.95625 -6.875 7 C-5.28421518 5.30064529 -3.66615877 3.62552075 -2 2 C-1.34 2 -0.68 2 0 2 C0 1.34 0 0.68 0 0 Z " fill="#F1C5A9" transform="translate(256,180)"/>
<path d="M0 0 C0.94746094 -0.00515625 1.89492187 -0.0103125 2.87109375 -0.015625 C5.70777186 0.26433743 7.31582539 0.48364892 9.5625 2.25 C10.171875 4.8515625 10.171875 4.8515625 10.3125 7.875 C10.36921875 8.87789062 10.4259375 9.88078125 10.484375 10.9140625 C10.51015625 11.68492187 10.5359375 12.45578125 10.5625 13.25 C9.9025 12.92 9.2425 12.59 8.5625 12.25 C8.37345622 18.74050322 8.36121163 24.08639255 10.5625 30.25 C10.4171851 33.88287255 9.97334133 35.69242962 7.8125 38.625 C5.5625 40.25 5.5625 40.25 0.5625 40.25 C0.5625 27.71 0.5625 15.17 0.5625 2.25 C-1.7475 2.25 -4.0575 2.25 -6.4375 2.25 C-6.7675 5.22 -7.0975 8.19 -7.4375 11.25 C-8.0975 11.25 -8.7575 11.25 -9.4375 11.25 C-9.35041331 9.79054712 -9.24223093 8.33234132 -9.125 6.875 C-9.06699219 6.06289062 -9.00898438 5.25078125 -8.94921875 4.4140625 C-7.84735192 -0.24574075 -4.02745669 -0.02185865 0 0 Z " fill="#E7AB8F" transform="translate(199.4375,195.75)"/>
<path d="M0 0 C0.72832031 -0.01224609 1.45664063 -0.02449219 2.20703125 -0.03710938 C4.09782978 -0.04235188 5.98815581 0.06516615 7.875 0.1875 C8.535 0.8475 9.195 1.5075 9.875 2.1875 C9.17375 2.10628906 8.4725 2.02507812 7.75 1.94140625 C2.39308947 1.58476411 -1.20628719 1.56859774 -5.375 5.1875 C-8.60666931 8.43903613 -11.60055374 11.92550207 -14.484375 15.48828125 C-16.24136914 17.30802518 -17.86360644 18.10658232 -20.125 19.1875 C-21.21666275 21.12080603 -21.21666275 21.12080603 -22.125 23.1875 C-23.1043879 24.20769573 -24.10395449 25.20899805 -25.125 26.1875 C-25.785 27.1775 -26.445 28.1675 -27.125 29.1875 C-27.58101838 20.82716309 -26.23553494 14.33777686 -20.75 7.8125 C-14.40793065 1.09658235 -8.99732336 0.0080477 0 0 Z " fill="#ECC1A5" transform="translate(239.125,172.8125)"/>
<path d="M0 0 C7.5897365 3.79486825 12.36014597 9.11269576 15.9140625 16.95703125 C15.6015625 19.296875 15.6015625 19.296875 14.9140625 20.95703125 C14.9140625 20.29703125 14.9140625 19.63703125 14.9140625 18.95703125 C14.2540625 18.95703125 13.5940625 18.95703125 12.9140625 18.95703125 C12.4190625 20.44203125 12.4190625 20.44203125 11.9140625 21.95703125 C11.6665625 21.09078125 11.4190625 20.22453125 11.1640625 19.33203125 C8.53928032 12.24511936 4.32147252 7.79897437 -2.0859375 3.95703125 C-4.84290092 3.11080612 -7.21613713 2.86082129 -10.08984375 2.96484375 C-11.20069336 2.98998047 -11.20069336 2.98998047 -12.33398438 3.015625 C-13.88109927 3.06001479 -15.42801093 3.11214072 -16.97460938 3.171875 C-22.65068533 3.28074481 -22.65068533 3.28074481 -25.11328125 1.44921875 C-25.43425781 0.95679688 -25.75523437 0.464375 -26.0859375 -0.04296875 C-19.2348884 -4.37448846 -7.24050436 -2.96942033 0 0 Z " fill="#231D1A" transform="translate(175.0859375,171.04296875)"/>
<path d="M0 0 C-0.25531871 7.02126446 -2.21122362 11.78811888 -7 17 C-14.17287264 22.47704971 -20.02972169 24.17588781 -29 24 C-29 23.67 -29 23.34 -29 23 C-28.113125 22.95875 -27.22625 22.9175 -26.3125 22.875 C-22.60204944 21.89488098 -21.52773049 20.63018934 -19.28125 17.61328125 C-17.21215008 15.00798166 -14.57317948 13.09070833 -12 11 C-10.31237149 9.3545622 -8.6459651 7.68711423 -7 6 C-1.14218009 0 -1.14218009 0 0 0 Z " fill="#ECC1A5" transform="translate(263,200)"/>
<path d="M0 0 C0.66 0 1.32 0 2 0 C2 5.61 2 11.22 2 17 C1.34 17.33 0.68 17.66 0 18 C-0.16435547 17.04287109 -0.16435547 17.04287109 -0.33203125 16.06640625 C-0.56986328 14.82697266 -0.56986328 14.82697266 -0.8125 13.5625 C-0.96332031 12.73878906 -1.11414063 11.91507813 -1.26953125 11.06640625 C-1.51058594 10.38449219 -1.75164062 9.70257813 -2 9 C-5.10063523 7.96645492 -7.31444068 7.86635004 -10.5625 7.875 C-12.01849609 7.87113281 -12.01849609 7.87113281 -13.50390625 7.8671875 C-15.99952953 7.83349047 -15.99952953 7.83349047 -18 9 C-18.40729228 11.32156597 -18.74438677 13.6568787 -19 16 C-19.99 16 -20.98 16 -22 16 C-22 11.05 -22 6.1 -22 1 C-21.34 1 -20.68 1 -20 1 C-19.67 1.66 -19.34 2.32 -19 3 C-18.11957031 2.98839844 -17.23914063 2.97679687 -16.33203125 2.96484375 C-15.17058594 2.95582031 -14.00914062 2.94679687 -12.8125 2.9375 C-11.66394531 2.92589844 -10.51539063 2.91429687 -9.33203125 2.90234375 C-6.40699414 2.98807168 -3.83683709 3.32150977 -1 4 C-0.67 2.68 -0.34 1.36 0 0 Z " fill="#090503" transform="translate(210,189)"/>
<path d="M0 0 C1.1398041 2.27960819 2.25368605 4.55569324 3.3125 6.875 C6.76396491 13.26660168 10.56962022 16.89963832 17 20 C20.97204883 21.04207073 24.71741578 21.10386449 28.8125 21.0625 C30.55466797 21.04896484 30.55466797 21.04896484 32.33203125 21.03515625 C33.21246094 21.02355469 34.09289062 21.01195312 35 21 C34.34 22.32 33.68 23.64 33 25 C23.11764807 25.51262921 14.69652478 25.57669512 6.71484375 19.1640625 C2.96134753 15.60811871 -0.49958162 12.03711885 -2 7 C-1.1875 3.125 -1.1875 3.125 0 0 Z " fill="#211713" transform="translate(212,202)"/>
<path d="M0 0 C1.2915851 2.58317021 0.8350736 3.40152132 0 6.125 C-2.74739197 13.84504712 -7.82168053 18.92876784 -15.10546875 22.50390625 C-17.39975623 23.10467844 -18.77728686 22.74418999 -21 22 C-19.87563746 18.62691239 -18.92657267 17.84876903 -16.25 15.625 C-13.01115563 12.87688963 -9.96564503 10.0457976 -7 7 C-4.66666667 4.66666667 -2.33333333 2.33333333 0 0 Z " fill="#F2D5BF" transform="translate(187,200)"/>
<path d="M0 0 C2.55360682 2.55360682 2.30913426 4.3238476 2.38061523 7.81469727 C2.34750414 21.43775205 2.34750414 21.43775205 -2 27 C-2.52078125 27.69480469 -3.0415625 28.38960937 -3.578125 29.10546875 C-7.22945066 33.62028358 -10.72589271 36.56579664 -16 39 C-16.99 39 -17.98 39 -19 39 C-19 37.68 -19 36.36 -19 35 C-16.98828125 33.578125 -16.98828125 33.578125 -14.3125 32.25 C-8.10147698 28.79258917 -5.22162955 24.66488865 -3 18 C-2.77439324 15.60745424 -2.59151405 13.21071877 -2.4375 10.8125 C-2.35371094 9.54019531 -2.26992188 8.26789063 -2.18359375 6.95703125 C-2.09271484 5.49330078 -2.09271484 5.49330078 -2 4 C-1.67 4 -1.34 4 -1 4 C-1 8.29 -1 12.58 -1 17 C-0.34 17 0.32 17 1 17 C0.67 11.39 0.34 5.78 0 0 Z " fill="#392C25" transform="translate(265,187)"/>
<path d="M0 0 C2.54685809 0.0785782 3.81954973 0.17584047 6.0625 1.4375 C7.54151666 4.21065624 7.44851984 6.22434125 7.0625 9.3125 C6.0625 11.1875 6.0625 11.1875 4.0625 12.3125 C1.21011266 12.73248341 -1.00316149 12.59196081 -3.9375 12.3125 C-6.38647847 8.63903229 -6.25287716 6.64893601 -5.9375 2.3125 C-3.9375 0.3125 -3.9375 0.3125 0 0 Z " fill="#161211" transform="translate(112.9375,214.6875)"/>
<path d="M0 0 C2 1.625 2 1.625 3 4 C2.77962372 7.67293796 2.63033454 9.36966546 0 12 C-6.00458716 12.54587156 -6.00458716 12.54587156 -8.9375 10.9375 C-10.60921702 7.88907484 -10.37033222 5.39471203 -10 2 C-6.29584707 -0.46943529 -4.37855495 -0.46913089 0 0 Z " fill="#0F0B0A" transform="translate(291,215)"/>
<path d="M0 0 C0.7321875 0.23332031 1.464375 0.46664062 2.21875 0.70703125 C0.00605261 3.00483238 -2.1524098 4.98342684 -4.71875 6.89453125 C-9.83175694 11.21593051 -12.41140465 15.97942179 -13.3125 22.625 C-13.60649085 26.31578288 -13.72759582 30.00489287 -13.78125 33.70703125 C-14.44125 33.70703125 -15.10125 33.70703125 -15.78125 33.70703125 C-18.06286411 26.86218891 -17.8189292 18.97877662 -14.84375 12.39453125 C-11.85779905 7.20527176 -6.57646329 -0.69274543 0 0 Z " fill="#231B17" transform="translate(149.78125,172.29296875)"/>
<path d="M0 0 C3.10236799 0.47005576 5.39566964 1.19022579 8.25 2.5625 C13.29108553 4.76661099 18.24895417 5.0200507 23.43359375 3.09765625 C24.95904145 2.39379614 26.46930935 1.65544428 27.95703125 0.875 C30 0 30 0 34 0 C33.8125 1.8125 33.8125 1.8125 33 4 C26.07454548 9.05371006 18.26877037 8.54622857 10 8 C6.17125792 7.02701934 3.2864921 5.19099473 0 3 C0 2.01 0 1.02 0 0 Z " fill="#190E0C" transform="translate(183,251)"/>
<path d="M0 0 C4.28549235 1.36771033 4.28549235 1.36771033 5.9375 3.9375 C6.52739164 7.22403916 6.21787501 8.51132999 4.375 11.3125 C1.9375 12.9375 1.9375 12.9375 -1.6875 12.875 C-5.0625 11.9375 -5.0625 11.9375 -7.0625 8.9375 C-7.5728118 5.62047328 -7.34949603 4.35695574 -5.4375 1.5625 C-3.0625 -0.0625 -3.0625 -0.0625 0 0 Z " fill="#65605B" transform="translate(237.0625,191.0625)"/>
<path d="M0 0 C-0.99 0.495 -0.99 0.495 -2 1 C2.29 1.33 6.58 1.66 11 2 C11 2.33 11 2.66 11 3 C10.14277344 3.03738281 9.28554687 3.07476562 8.40234375 3.11328125 C-1.37275364 3.6753218 -7.82670197 4.82670197 -15 12 C-16.56607148 14.57759962 -17.79299987 17.2403588 -19 20 C-19.6601502 21.33657171 -20.32505745 22.67083681 -21 24 C-21 22.35 -21 20.7 -21 19 C-21.66 19 -22.32 19 -23 19 C-21.63880407 12.9502403 -18.16488278 9.35040094 -14 5 C-13.25363281 4.19369141 -13.25363281 4.19369141 -12.4921875 3.37109375 C-9.04304104 0.20185185 -4.49354844 -1.97716131 0 0 Z " fill="#2B1D18" transform="translate(233,170)"/>
<path d="M0 0 C2.62003113 1.00770428 3.86287756 1.61700377 5.4375 3.9375 C5.875 6.375 5.875 6.375 5.4375 8.9375 C3.44841327 11.66328551 2.24499138 12.75581444 -1.0625 13.5 C-3.5625 12.9375 -3.5625 12.9375 -5.9375 10.6875 C-7.5625 7.9375 -7.5625 7.9375 -7.5625 5.875 C-5.74414105 2.35192954 -4.18471432 -0.1020662 0 0 Z " fill="#0B0909" transform="translate(164.5625,191.0625)"/>
<path d="M0 0 C0.33 0 0.66 0 1 0 C1.03738281 0.92941406 1.07476562 1.85882813 1.11328125 2.81640625 C1.65592624 13.02026012 2.62541831 19.45781418 10 27 C13.71138835 29.6728806 17.41994875 31.44484227 22 32 C20.515 32.495 20.515 32.495 19 33 C19 33.66 19 34.32 19 35 C15.8063035 35.32507268 14.28837122 35.17347331 11.5 33.49609375 C6.46745768 29.35210969 2.42374901 25.56359213 -1 20 C-1.680625 18.9171875 -1.680625 18.9171875 -2.375 17.8125 C-3.1619953 15.53021364 -2.80015587 14.24043644 -2 12 C-2 12.99 -2 13.98 -2 15 C-1.34 15 -0.68 15 0 15 C0 10.05 0 5.1 0 0 Z " fill="#18120E" transform="translate(136,191)"/>
<path d="M0 0 C1.32 1.65 2.64 3.3 4 5 C1.22887112 9.73401184 -1.92203738 12.85431684 -6.1953125 16.2890625 C-8.07903304 18.07492743 -8.99458926 19.62640144 -10 22 C-11.65 20.02 -13.3 18.04 -15 16 C-14.319375 15.484375 -13.63875 14.96875 -12.9375 14.4375 C-7.84451375 10.21140503 -3.06707764 5.95373894 0 0 Z " fill="#F1D3BE" transform="translate(156,197)"/>
<path d="M0 0 C3.26460973 1.80412643 4.88929795 2.83394693 7 6 C1 9 1 9 -1.25 9.9375 C-3.45659048 11.27721565 -4.05581482 12.63953705 -5 15 C-5.66 15 -6.32 15 -7 15 C-7.33 15.66 -7.66 16.32 -8 17 C-9.32 15.68 -10.64 14.36 -12 13 C-11.30132812 12.39671875 -10.60265625 11.7934375 -9.8828125 11.171875 C-8.97273437 10.37265625 -8.06265625 9.5734375 -7.125 8.75 C-5.76761719 7.56664062 -5.76761719 7.56664062 -4.3828125 6.359375 C-2.25560007 4.25308597 -1.09487694 2.74348474 0 0 Z " fill="#F4D7C0" transform="translate(176,177)"/>
<path d="M0 0 C0.33 1.32 0.66 2.64 1 4 C-3.625 8 -3.625 8 -7 8 C-7.0928125 8.804375 -7.0928125 8.804375 -7.1875 9.625 C-8.40035264 13.17026157 -10.44610926 15.2592392 -13 18 C-13.66 18 -14.32 18 -15 18 C-15 18.66 -15 19.32 -15 20 C-15.5775 20.53625 -16.155 21.0725 -16.75 21.625 C-19.68603386 24.72414685 -21.24095641 28.14507468 -23 32 C-24.20068204 28.39795389 -23.80834089 27.86381137 -22.1875 24.5625 C-16.90440893 14.5524327 -9.29958694 6.37942679 0 0 Z " fill="#8B6A5E" transform="translate(115,328)"/>
<path d="M0 0 C0.66 0.33 1.32 0.66 2 1 C1.43410156 1.54269531 0.86820313 2.08539063 0.28515625 2.64453125 C-0.44832031 3.35996094 -1.18179688 4.07539063 -1.9375 4.8125 C-2.66839844 5.52019531 -3.39929688 6.22789062 -4.15234375 6.95703125 C-7.53355452 10.69566388 -7.26237187 14.57191043 -7.234375 19.359375 C-6.88545773 23.29050954 -5.5270559 26.37324223 -4 30 C-4 30.99 -4 31.98 -4 33 C-4.61875 32.21625 -5.2375 31.4325 -5.875 30.625 C-7.89858661 28.03162353 -7.89858661 28.03162353 -10 26 C-10.670965 19.91450349 -10.95831926 14.02311843 -8.3125 8.4375 C-3.5 3.36486486 -3.5 3.36486486 -1 1 C-0.67 0.67 -0.34 0.34 0 0 Z " fill="#E6D5C7" transform="translate(108,184)"/>
<path d="M0 0 C4.14540921 0.46457172 7.86848593 1.7422615 11.71875 3.3046875 C11.71875 4.2946875 11.71875 5.2846875 11.71875 6.3046875 C8.95598823 5.78200284 6.3926624 5.19599163 3.71875 4.3046875 C1.32620424 4.07908074 -1.07053123 3.89620155 -3.46875 3.7421875 C-4.74105469 3.65839844 -6.01335937 3.57460937 -7.32421875 3.48828125 C-8.30003906 3.42769531 -9.27585938 3.36710938 -10.28125 3.3046875 C-7.19823971 -0.45459602 -4.6148796 -0.12215858 0 0 Z " fill="#120A08" transform="translate(240.28125,168.6953125)"/>
<path d="M0 0 C1.27875 0.144375 2.5575 0.28875 3.875 0.4375 C7 1 7 1 10 3 C8.70964844 2.95359375 7.41929687 2.9071875 6.08984375 2.859375 C4.37241912 2.82183566 2.65496928 2.78543783 0.9375 2.75 C0.08994141 2.71648437 -0.75761719 2.68296875 -1.63085938 2.6484375 C-7.69751329 2.554744 -10.94834283 3.66288447 -16 7 C-16.66 7 -17.32 7 -18 7 C-17.49396008 4.83125748 -17.00016187 3.00032373 -16 1 C-10.31800617 -1.24912256 -5.95058635 -0.94620631 0 0 Z " fill="#D0BEAF" transform="translate(162,167)"/>
<path d="M0 0 C2.39097964 0.38316981 3.71686228 0.72803877 5.484375 2.42578125 C9.56052765 8.50226808 9.53737214 13.83503819 9 21 C8.34 21 7.68 21 7 21 C6.96261719 20.33613281 6.92523438 19.67226563 6.88671875 18.98828125 C6.43727467 12.95163035 5.8383514 8.73322728 1.3125 4.375 C0 3 0 3 0 0 Z " fill="#ECB191" transform="translate(221,240)"/>
<path d="M0 0 C0.66 0 1.32 0 2 0 C2 5.61 2 11.22 2 17 C1.34 17.33 0.68 17.66 0 18 C-0.10957031 17.39671875 -0.21914062 16.7934375 -0.33203125 16.171875 C-1.50797128 10.06315013 -1.50797128 10.06315013 -5 5 C-3.35 5 -1.7 5 0 5 C0 3.35 0 1.7 0 0 Z " fill="#0A0503" transform="translate(210,189)"/>
<path d="M0 0 C0.33 1.32 0.66 2.64 1 4 C-0.32 4.33 -1.64 4.66 -3 5 C-2.67 5.66 -2.34 6.32 -2 7 C-5.96 6.67 -9.92 6.34 -14 6 C-14 5.34 -14 4.68 -14 4 C-15.32 3.67 -16.64 3.34 -18 3 C-12.00223894 1.50055974 -5.99776106 1.50055974 0 3 C0 2.01 0 1.02 0 0 Z " fill="#241A15" transform="translate(209,190)"/>
<path d="M0 0 C0.33 0 0.66 0 1 0 C1.25 2.32421875 1.25 2.32421875 1 5 C-0.6875 6.51953125 -0.6875 6.51953125 -3 7.8125 C-8.08577905 10.89943086 -11.96141384 14.66429715 -16 19 C-16.66 18.67 -17.32 18.34 -18 18 C-17.2575 17.278125 -16.515 16.55625 -15.75 15.8125 C-13.04961342 13.16513453 -13.04961342 13.16513453 -11.1875 10.625 C-8.15449621 6.98539545 -4.59918575 4.06383775 -1 1 C-0.67 0.67 -0.34 0.34 0 0 Z " fill="#F3CAAE" transform="translate(262,200)"/>
<path d="M0 0 C0.99 0 1.98 0 3 0 C3 3 3 3 1.6328125 4.44921875 C0.82457031 5.21685547 0.82457031 5.21685547 0 6 C-2.75812519 10.46055419 -4.47418959 14.74189589 -5 20 C-5.33 20 -5.66 20 -6 20 C-6.64665162 12.1827004 -6.02656926 7.16372756 -1 1 C-0.67 0.67 -0.34 0.34 0 0 Z " fill="#EDBFA3" transform="translate(176,240)"/>
<path d="M0 0 C-0.66 1.32 -1.32 2.64 -2 4 C-6.62 4 -11.24 4 -16 4 C-16 3.01 -16 2.02 -16 1 C-10.65097076 0.40801257 -5.39115154 -0.14187241 0 0 Z " fill="#120A07" transform="translate(247,223)"/>
<path d="M0 0 C0.9590625 0.4021875 0.9590625 0.4021875 1.9375 0.8125 C5.91202261 2.35364142 9.94884495 3.67609312 14 5 C13.01 5.33 12.02 5.66 11 6 C11 6.66 11 7.32 11 8 C6.8029908 8.35281338 4.93477927 7.64185432 1.6875 5 C0.99011719 4.443125 0.29273438 3.88625 -0.42578125 3.3125 C-0.94527344 2.879375 -1.46476563 2.44625 -2 2 C-1.34 1.34 -0.68 0.68 0 0 Z " fill="#251E1A" transform="translate(144,218)"/>
<path d="M0 0 C0.66 1.32 1.32 2.64 2 4 C-5.2 10 -5.2 10 -10 10 C-10 8.68 -10 7.36 -10 6 C-7.8125 4.296875 -7.8125 4.296875 -5 2.75 C-4.071875 2.22921875 -3.14375 1.7084375 -2.1875 1.171875 C-1.1046875 0.59179688 -1.1046875 0.59179688 0 0 Z " fill="#2A1D18" transform="translate(256,216)"/>
<path d="M0 0 C0.671875 1.6640625 0.671875 1.6640625 1 4 C-0.109375 6.5859375 -0.109375 6.5859375 -1.75 9.375 C-3.50015288 12.39945774 -5.1519351 15.32724484 -6.625 18.5 C-8.08986756 21.16339557 -9.43827601 22.40996442 -12 24 C-10.29465708 19.47018288 -8.17111788 15.19363666 -6 10.875 C-5.64421875 10.15957031 -5.2884375 9.44414062 -4.921875 8.70703125 C-4.57640625 8.01738281 -4.2309375 7.32773438 -3.875 6.6171875 C-3.56304687 5.99440918 -3.25109375 5.37163086 -2.9296875 4.72998047 C-2 3 -2 3 0 0 Z " fill="#BDAEA3" transform="translate(279,231)"/>
<path d="M0 0 C2.03962107 2.20279075 3.01806108 3.31367884 2.9375 6.375 C1.77007062 9.64380227 0.02293413 12.19399459 -2 15 C-2.33 14.34 -2.66 13.68 -3 13 C-3.66 13 -4.32 13 -5 13 C-4.70351562 12.43796875 -4.40703125 11.8759375 -4.1015625 11.296875 C-2.99056497 8.98032695 -2.16535294 6.69290908 -1.375 4.25 C-1.11460937 3.45078125 -0.85421875 2.6515625 -0.5859375 1.828125 C-0.39257812 1.22484375 -0.19921875 0.6215625 0 0 Z " fill="#1F1914" transform="translate(187,202)"/>
<path d="M0 0 C0.99 0.495 0.99 0.495 2 1 C2 2.65 2 4.3 2 6 C3.2375 6.0825 4.475 6.165 5.75 6.25 C9.73975643 6.72933469 11.42434064 7.82995771 14 11 C14.66 11.33 15.32 11.66 16 12 C15.67 13.32 15.34 14.64 15 16 C13.66102417 15.04956626 12.32894573 14.08940853 11 13.125 C10.2575 12.59132812 9.515 12.05765625 8.75 11.5078125 C8.1725 11.01023438 7.595 10.51265625 7 10 C7 9.34 7 8.68 7 8 C5.35 8 3.7 8 2 8 C0 2.25 0 2.25 0 0 Z " fill="#C4AC9E" transform="translate(281,174)"/>
<path d="M0 0 C9.41002278 0.96355353 9.41002278 0.96355353 14 2 C14 2.33 14 2.66 14 3 C11.69 3 9.38 3 7 3 C6.67 4.65 6.34 6.3 6 8 C2.54832597 5.52187506 0.76836694 4.20393865 0 0 Z " fill="#E7C2A8" transform="translate(255,171)"/>
<path d="M0 0 C0.66 0.33 1.32 0.66 2 1 C2.36337162 4.27034459 2.28544288 5.60883753 0.3125 8.3125 C-2.39116247 10.28544288 -3.72965541 10.36337162 -7 10 C-7.33 9.34 -7.66 8.68 -8 8 C-7.50628906 7.59007812 -7.01257813 7.18015625 -6.50390625 6.7578125 C-5.86324219 6.21898437 -5.22257813 5.68015625 -4.5625 5.125 C-3.92441406 4.59132812 -3.28632813 4.05765625 -2.62890625 3.5078125 C-0.89194996 2.0777243 -0.89194996 2.0777243 0 0 Z " fill="#6C6867" transform="translate(168,194)"/>
<path d="M0 0 C1.23102992 3.69308976 0.87175152 6.88050712 0.5625 10.6875 C0.51029297 11.38939453 0.45808594 12.09128906 0.40429688 12.81445312 C0.27492135 14.54338054 0.13817469 16.27175355 0 18 C-0.66 18 -1.32 18 -2 18 C-3.79751401 12.60745798 -3.70522993 7.67492109 -1.5 2.4375 C-1.005 1.633125 -0.51 0.82875 0 0 Z " fill="#070201" transform="translate(136,188)"/>
<path d="M0 0 C4.62 0 9.24 0 14 0 C14 0.99 14 1.98 14 3 C9.38 3 4.76 3 0 3 C0 2.01 0 1.02 0 0 Z " fill="#0B0704" transform="translate(155,224)"/>
<path d="M0 0 C2.4609375 -0.36328125 2.4609375 -0.36328125 5.375 -0.3125 C6.33148438 -0.30863281 7.28796875 -0.30476562 8.2734375 -0.30078125 C10.99092807 -0.00100077 12.67011179 0.61421341 15 2 C11.93466836 3.53266582 8.73245728 3.10276471 5.375 3.0625 C4.66859375 3.05798828 3.9621875 3.05347656 3.234375 3.04882812 C1.48954725 3.03703875 -0.255237 3.01910324 -2 3 C-1.34 2.01 -0.68 1.02 0 0 Z " fill="#110B08" transform="translate(157,169)"/>
<path d="M0 0 C0.66 0.33 1.32 0.66 2 1 C-1.62817477 4.20629398 -4.43125423 6.30303728 -9 8 C-9.33 8.66 -9.66 9.32 -10 10 C-11.98 10 -13.96 10 -16 10 C-13.30840491 6.87427667 -10.0365868 5.1963218 -6.4375 3.25 C-4.70306641 2.29867187 -4.70306641 2.29867187 -2.93359375 1.328125 C-1.96550781 0.88984375 -0.99742187 0.4515625 0 0 Z " fill="#EED9C9" transform="translate(171,158)"/>
<path d="M0 0 C-0.99 0.495 -0.99 0.495 -2 1 C2.29 1.33 6.58 1.66 11 2 C11 2.33 11 2.66 11 3 C10.14277344 3.06058594 9.28554687 3.12117187 8.40234375 3.18359375 C2.56395127 3.61143536 -3.22057272 4.059163 -9 5 C-5.28508772 -1.58552632 -5.28508772 -1.58552632 0 0 Z " fill="#463831" transform="translate(233,170)"/>
<path d="M0 0 C0.36075949 4.44936709 0.36075949 4.44936709 -1.1875 6.8125 C-3.55982525 8.36678206 -5.22041345 8.22537188 -8 8 C-6.48291727 4.46014029 -4.24676932 0 0 0 Z " fill="#19120F" transform="translate(242,196)"/>
<path d="M0 0 C4.34464536 0.60825035 8.67551867 1.26167392 13 2 C13 2.66 13 3.32 13 4 C11.68 4 10.36 4 9 4 C9.33 4.99 9.66 5.98 10 7 C5.27745665 5.50867052 5.27745665 5.50867052 3.875 2.9375 C3.58625 2.298125 3.2975 1.65875 3 1 C2.01 0.67 1.02 0.34 0 0 Z " fill="#C2AD9D" transform="translate(246,167)"/>
<path d="M0 0 C1.65 0.33 3.3 0.66 5 1 C1.67149253 4.59478807 -1.98971331 7.22364768 -6 10 C-5.15256083 5.51928716 -2.97965011 3.36165653 0 0 Z " fill="#150F0B" transform="translate(147,172)"/>
<path d="M0 0 C-0.33 0.33 -0.66 0.66 -1 1 C2.96 1.33 6.92 1.66 11 2 C11 2.33 11 2.66 11 3 C8.39635591 3.24867947 5.79410106 3.47457902 3.1875 3.6875 C2.44951172 3.76033203 1.71152344 3.83316406 0.95117188 3.90820312 C-4.54974762 4.33135078 -4.54974762 4.33135078 -7.01171875 2.51953125 C-7.33785156 2.01808594 -7.66398438 1.51664063 -8 1 C-4.93251126 -0.86240388 -3.40254489 -1.2151946 0 0 Z " fill="#4F453E" transform="translate(157,170)"/>
<path d="M0 0 C3.82097239 0.53069061 6.06171403 1.49701566 9 4 C8.34 4 7.68 4 7 4 C7.33 4.99 7.66 5.98 8 7 C5.0280615 5.87548273 2.66559313 4.77706209 0 3 C0 2.01 0 1.02 0 0 Z " fill="#2A211C" transform="translate(183,251)"/>
<path d="M0 0 C0.33 0 0.66 0 1 0 C1.33 3.63 1.66 7.26 2 11 C1.34 10.67 0.68 10.34 0 10 C-0.33 11.98 -0.66 13.96 -1 16 C-1.33 16 -1.66 16 -2 16 C-2.33 12.04 -2.66 8.08 -3 4 C-2.34 4 -1.68 4 -1 4 C-0.67 2.68 -0.34 1.36 0 0 Z " fill="#D8AA91" transform="translate(208,198)"/>
<path d="M0 0 C2.0625 0.4375 2.0625 0.4375 4 1 C2.42702086 2.86562642 1.54489783 3.90238443 -0.90112305 4.34057617 C-1.59761963 4.32486572 -2.29411621 4.30915527 -3.01171875 4.29296875 C-3.76904297 4.28330078 -4.52636719 4.27363281 -5.30664062 4.26367188 C-6.48516602 4.2259668 -6.48516602 4.2259668 -7.6875 4.1875 C-8.88342773 4.16719727 -8.88342773 4.16719727 -10.10351562 4.14648438 C-12.06929967 4.11117089 -14.03473582 4.05736447 -16 4 C-16 3.67 -16 3.34 -16 3 C-14.39318359 2.80083984 -14.39318359 2.80083984 -12.75390625 2.59765625 C-11.35674231 2.4194944 -9.95960841 2.24109681 -8.5625 2.0625 C-7.85544922 1.97548828 -7.14839844 1.88847656 -6.41992188 1.79882812 C-2.91182032 1.61783809 -2.91182032 1.61783809 0 0 Z " fill="#C4A28D" transform="translate(212,256)"/>
<path d="M0 0 C0.33 0 0.66 0 1 0 C1.24858198 2.77034137 1.47452879 5.53939069 1.6875 8.3125 C1.76033203 9.09818359 1.83316406 9.88386719 1.90820312 10.69335938 C1.96298828 11.45068359 2.01777344 12.20800781 2.07421875 12.98828125 C2.13182373 13.68477783 2.18942871 14.38127441 2.2487793 15.09887695 C1.92238821 17.59309425 0.8898183 18.4211918 -1 20 C-2.42944945 17.64561267 -3.08661261 16.51967567 -2.625 13.75 C-2.41875 13.1725 -2.2125 12.595 -2 12 C-2 12.99 -2 13.98 -2 15 C-1.34 15 -0.68 15 0 15 C0 10.05 0 5.1 0 0 Z " fill="#49413A" transform="translate(136,191)"/>
<path d="M0 0 C3.63 0.33 7.26 0.66 11 1 C10.67 1.99 10.34 2.98 10 4 C3.375 4.25 3.375 4.25 0 2 C0 1.34 0 0.68 0 0 Z " fill="#130C08" transform="translate(190,255)"/>
<path d="M0 0 C-0.40683495 2.35964273 -0.89814339 3.85934088 -2.3125 5.8125 C-4 7 -4 7 -6.1875 6.6875 C-6.785625 6.460625 -7.38375 6.23375 -8 6 C-8 5.34 -8 4.68 -8 4 C-3.64705882 0 -3.64705882 0 0 0 Z " fill="#19140F" transform="translate(184,215)"/>
<path d="M0 0 C0.66 0 1.32 0 2 0 C2 0.99 2 1.98 2 3 C1.13375 3.8353125 1.13375 3.8353125 0.25 4.6875 C-2.7213212 7.7413579 -4.24537067 11.15474849 -6 15 C-7 12 -7 12 -6.07421875 9.58984375 C-5.61660156 8.71457031 -5.15898438 7.83929688 -4.6875 6.9375 C-4.23761719 6.05964844 -3.78773437 5.18179687 -3.32421875 4.27734375 C-2 2 -2 2 0 0 Z " fill="#8B776D" transform="translate(98,345)"/>
<path d="M0 0 C-0.1875 1.8125 -0.1875 1.8125 -1 4 C-3.4375 5.8125 -3.4375 5.8125 -6 7 C-6.66 6.67 -7.32 6.34 -8 6 C-8 5.01 -8 4.02 -8 3 C-5.0936485 0.19744677 -4.21174952 0 0 0 Z " fill="#2B1D18" transform="translate(217,251)"/>
<path d="M0 0 C1 2 1 2 0.44140625 4.1640625 C0.15136719 4.97617188 -0.13867188 5.78828125 -0.4375 6.625 C-0.72496094 7.44226563 -1.01242188 8.25953125 -1.30859375 9.1015625 C-1.65083984 10.04128906 -1.65083984 10.04128906 -2 11 C-2.33 11 -2.66 11 -3 11 C-3 9.35 -3 7.7 -3 6 C-4.32 6.33 -5.64 6.66 -7 7 C-4.66666667 4.66666667 -2.33333333 2.33333333 0 0 Z " fill="#E5CBB8" transform="translate(187,200)"/>
<path d="M0 0 C1.65 0.33 3.3 0.66 5 1 C4.67 1.99 4.34 2.98 4 4 C-0.0527516 4.98248524 -3.83861737 5.08159574 -8 5 C-8 4.67 -8 4.34 -8 4 C-7.05125 3.896875 -6.1025 3.79375 -5.125 3.6875 C-1.70892499 3.31460705 -1.70892499 3.31460705 0 0 Z " fill="#DDB8A1" transform="translate(242,219)"/>
<path d="M0 0 C5.29860806 1.2976183 9.34525646 3.15015702 14 6 C14 6.66 14 7.32 14 8 C9.02790438 6.23570801 4.56561939 3.6060834 0 1 C0 0.67 0 0.34 0 0 Z " fill="#BEACA0" transform="translate(229,158)"/>
<path d="M0 0 C0.33 1.32 0.66 2.64 1 4 C-3.30769231 7.93846154 -3.30769231 7.93846154 -6.8125 8.25 C-7.534375 8.1675 -8.25625 8.085 -9 8 C-6.14723863 5.06799526 -3.34920216 2.35684596 0 0 Z " fill="#7F635A" transform="translate(115,328)"/>
<path d="M0 0 C0.99 0.33 1.98 0.66 3 1 C2.5359375 1.7425 2.5359375 1.7425 2.0625 2.5 C0.58355618 5.97986781 0.37597149 9.24028509 0 13 C-1.32 13 -2.64 13 -4 13 C-3.67 11.68 -3.34 10.36 -3 9 C-2.34 9 -1.68 9 -1 9 C-1.020625 7.88625 -1.04125 6.7725 -1.0625 5.625 C-1 2 -1 2 0 0 Z " fill="#F3D1BD" transform="translate(193,198)"/>
<path d="M0 0 C0.33 0.99 0.66 1.98 1 3 C-1.3125 5.5 -1.3125 5.5 -4 8 C-4.99 8 -5.98 8 -7 8 C-5.50902342 4.2047869 -3.24299151 2.38957269 0 0 Z " fill="#DBB6A0" transform="translate(224,176)"/>
<path d="M0 0 C3.41021743 0.78697325 6.68885166 1.87119943 10 3 C10 3.66 10 4.32 10 5 C6.04 5 2.08 5 -2 5 C-2 4.67 -2 4.34 -2 4 C-0.35 4 1.3 4 3 4 C2.01 2.68 1.02 1.36 0 0 Z " fill="#E9C8AE" transform="translate(235,163)"/>
<path d="M0 0 C0.66 0 1.32 0 2 0 C1.67 3.3 1.34 6.6 1 10 C0.01 10 -0.98 10 -2 10 C-1.85950482 8.52031676 -1.71245174 7.04125484 -1.5625 5.5625 C-1.48128906 4.73878906 -1.40007812 3.91507812 -1.31640625 3.06640625 C-1 1 -1 1 0 0 Z " fill="#795C51" transform="translate(87,369)"/>
<path d="M0 0 C0.99 0.66 1.98 1.32 3 2 C0.0534615 3.80066242 -2.88801935 5.50163895 -6 7 C-6.33 6.01 -6.66 5.02 -7 4 C-4.69 2.68 -2.38 1.36 0 0 Z " fill="#83685B" transform="translate(124,323)"/>
<path d="M0 0 C0.33 0 0.66 0 1 0 C1.309375 0.94875 1.61875 1.8975 1.9375 2.875 C2.87394742 5.86080408 2.87394742 5.86080408 4 8 C2.625 10 2.625 10 1 12 C0.34 12 -0.32 12 -1 12 C-0.67 8.04 -0.34 4.08 0 0 Z " fill="#AA9D94" transform="translate(280,219)"/>
<path d="M0 0 C0.99 0 1.98 0 3 0 C3 0.66 3 1.32 3 2 C-3.61809577 4.46254726 -10.00439516 4.18935472 -17 4 C-17 3.67 -17 3.34 -17 3 C-15.85660156 2.86722656 -14.71320313 2.73445312 -13.53515625 2.59765625 C-12.0442438 2.4194969 -10.55335982 2.24109918 -9.0625 2.0625 C-7.93038086 1.93198242 -7.93038086 1.93198242 -6.77539062 1.79882812 C-3.07812542 1.65675901 -3.07812542 1.65675901 0 0 Z " fill="#BB9B87" transform="translate(250,224)"/>
<path d="M0 0 C1.41377341 2.63904371 2.37240135 5.07120629 3 8 C2.34 8 1.68 8 1 8 C1.33 9.65 1.66 11.3 2 13 C-0.5462039 10.4537961 -1.17825915 8.4923986 -2 5 C-1.125 2.125 -1.125 2.125 0 0 Z " fill="#2C221D" transform="translate(212,202)"/>
<path d="M0 0 C1.65 1.65 3.3 3.3 5 5 C4.67 5.66 4.34 6.32 4 7 C1.9375 7.625 1.9375 7.625 0 8 C-0.79953138 4.71303767 -1.09658936 3.28976808 0 0 Z " fill="#DBB59A" transform="translate(256,180)"/>
<path d="M0 0 C0.33 0.99 0.66 1.98 1 3 C-4.61 2.34 -10.22 1.68 -16 1 C-16 0.67 -16 0.34 -16 0 C-14.08416353 -0.1958009 -12.16727461 -0.38132214 -10.25 -0.5625 C-8.64898437 -0.71912109 -8.64898437 -0.71912109 -7.015625 -0.87890625 C-4.33550243 -0.98652775 -2.45725583 -1.0506491 0 0 Z " fill="#AC917F" transform="translate(249,168)"/>
<path d="M0 0 C0.66 0.33 1.32 0.66 2 1 C0.63855967 6.19822672 -1.46730171 9.09543873 -5 13 C-5 9.51038791 -4.09620626 7.88519705 -2.5 4.8125 C-2.0359375 3.91144531 -1.571875 3.01039063 -1.09375 2.08203125 C-0.7328125 1.39496094 -0.371875 0.70789063 0 0 Z " fill="#EDD6C4" transform="translate(199,125)"/>
<path d="M0 0 C0.70125 0.309375 1.4025 0.61875 2.125 0.9375 C5.08936657 2.03302678 7.87698108 2.56422992 11 3 C10.67 3.66 10.34 4.32 10 5 C7.36 5 4.72 5 2 5 C2 4.01 2 3.02 2 2 C1.34 2 0.68 2 0 2 C0 1.34 0 0.68 0 0 Z " fill="#B19D8C" transform="translate(228,311)"/>
<path d="M0 0 C0.66 0 1.32 0 2 0 C0.35821735 4.77609498 -2.26546702 8.79382904 -5 13 C-5.33 11.68 -5.66 10.36 -6 9 C-5.01 8.67 -4.02 8.34 -3 8 C-1.81608777 5.62374655 -1.81608777 5.62374655 -1 3 C-0.67 2.01 -0.34 1.02 0 0 Z " fill="#E7C7B1" transform="translate(271,243)"/>
<path d="M0 0 C4.875 1.75 4.875 1.75 6 4 C5.34 4 4.68 4 4 4 C3.67 4.66 3.34 5.32 3 6 C1.35 4.68 -0.3 3.36 -2 2 C-1.34 2 -0.68 2 0 2 C0 1.34 0 0.68 0 0 Z " fill="#2A1E18" transform="translate(252,173)"/>
<path d="M0 0 C0.66 0.33 1.32 0.66 2 1 C-0.07143201 5.03384128 -1.96615872 6.92856799 -6 9 C-6 6 -6 6 -4.6875 4.39453125 C-4.130625 3.87246094 -3.57375 3.35039062 -3 2.8125 C-2.443125 2.28269531 -1.88625 1.75289062 -1.3125 1.20703125 C-0.6628125 0.60955078 -0.6628125 0.60955078 0 0 Z " fill="#19100B" transform="translate(225,171)"/>
<path d="M0 0 C3.057952 1.73559438 5.63379989 3.38472619 8 6 C7.67 6.99 7.34 7.98 7 9 C5.82737096 7.88121617 4.66204862 6.75476949 3.5 5.625 C2.8503125 4.99851562 2.200625 4.37203125 1.53125 3.7265625 C0 2 0 2 0 0 Z " fill="#665751" transform="translate(290,333)"/>
<path d="M0 0 C0.33 0.99 0.66 1.98 1 3 C-0.4375 5.1875 -0.4375 5.1875 -2 7 C-2.99 6.67 -3.98 6.34 -5 6 C-3.63016497 2.83884224 -3.0109362 2.0072908 0 0 Z " fill="#150D09" transform="translate(261,212)"/>
<path d="M0 0 C0.86625 0.37125 0.86625 0.37125 1.75 0.75 C0.76 0.75 -0.23 0.75 -1.25 0.75 C-1.518125 1.389375 -1.78625 2.02875 -2.0625 2.6875 C-3.25 4.75 -3.25 4.75 -6.25 5.75 C-6.58 6.41 -6.91 7.07 -7.25 7.75 C-6.66524269 3.65669884 -4.62230386 -0.51358932 0 0 Z " fill="#504841" transform="translate(164.25,191.25)"/>
<path d="M0 0 C0.33 0 0.66 0 1 0 C1.144375 1.2375 1.28875 2.475 1.4375 3.75 C1.78688502 6.56504499 2.20379366 9.2701497 3 12 C2.01 12 1.02 12 0 12 C0 8.04 0 4.08 0 0 Z " fill="#18120F" transform="translate(188,193)"/>
<path d="M0 0 C2.64 0 5.28 0 8 0 C8 0.33 8 0.66 8 1 C6.576875 1.37125 6.576875 1.37125 5.125 1.75 C1.91306809 2.6857077 1.91306809 2.6857077 0.625 5.125 C0.41875 5.74375 0.2125 6.3625 0 7 C-0.93423645 3.98968256 -1.04449911 3.13349732 0 0 Z " fill="#EBDAC9" transform="translate(119,174)"/>
<path d="M0 0 C0 3.57575896 -1.08840607 5.05295935 -3 8 C-4.32 7.67 -5.64 7.34 -7 7 C-4.69 4.69 -2.38 2.38 0 0 Z " fill="#BAAEA2" transform="translate(262,260)"/>
<path d="M0 0 C1.5625 1.6875 1.5625 1.6875 3 4 C2.6875 6.75 2.6875 6.75 2 9 C1.34 8.34 0.68 7.68 0 7 C-0.99 7.495 -0.99 7.495 -2 8 C-1.34 5.36 -0.68 2.72 0 0 Z " fill="#332A24" transform="translate(187,202)"/>
<path d="M0 0 C0.66 0.99 1.32 1.98 2 3 C1.67 3.99 1.34 4.98 1 6 C0.67 5.67 0.34 5.34 0 5 C-0.66 6.65 -1.32 8.3 -2 10 C-2.6875 8.375 -2.6875 8.375 -3 6 C-1.5625 2.75 -1.5625 2.75 0 0 Z " fill="#362D28" transform="translate(136,184)"/>
<path d="M0 0 C2.50037734 2.17424117 3.43628586 3.73045798 4 7 C3.34 7 2.68 7 2 7 C1.67 7.66 1.34 8.32 1 9 C0 2.25 0 2.25 0 0 Z " fill="#291D18" transform="translate(261,180)"/>
<path d="M0 0 C6.75 2.5 6.75 2.5 9 7 C6.03 5.35 3.06 3.7 0 2 C0 1.34 0 0.68 0 0 Z " fill="#71645E" transform="translate(280,326)"/>
<path d="M0 0 C-0.33 0.66 -0.66 1.32 -1 2 C-3.3140622 2.73075648 -5.64828869 3.40138258 -8 4 C-8 3.34 -8 2.68 -8 2 C-7.34 2 -6.68 2 -6 2 C-6 1.34 -6 0.68 -6 0 C-3 -1 -3 -1 0 0 Z " fill="#B09B8E" transform="translate(236,281)"/>
<path d="M0 0 C-1.36983503 3.16115776 -1.9890638 3.9927092 -5 6 C-5 4.68 -5 3.36 -5 2 C-2 0 -2 0 0 0 Z " fill="#DBB8A4" transform="translate(219,174)"/>
<path d="M0 0 C1.32 0 2.64 0 4 0 C3.67 0.99 3.34 1.98 3 3 C1.35 3.33 -0.3 3.66 -2 4 C-1.34 2.68 -0.68 1.36 0 0 Z " fill="#745A4F" transform="translate(130,320)"/>
<path d="M0 0 C0.59296875 0.20496094 1.1859375 0.40992188 1.796875 0.62109375 C0.51036794 1.31820106 -0.78253165 2.00352251 -2.078125 2.68359375 C-3.15707031 3.25787109 -3.15707031 3.25787109 -4.2578125 3.84375 C-4.89976562 4.10027344 -5.54171875 4.35679687 -6.203125 4.62109375 C-6.863125 4.29109375 -7.523125 3.96109375 -8.203125 3.62109375 C-2.74543269 -0.47217548 -2.74543269 -0.47217548 0 0 Z " fill="#C1AEA0" transform="translate(153.203125,174.37890625)"/>
</svg>
